<?xml version="1.0" encoding="UTF-8" standalone="no"?>
<!DOCTYPE svg PUBLIC "-//W3C//DTD SVG 1.1//EN" "http://www.w3.org/Graphics/SVG/1.1/DTD/svg11.dtd">
<!-- Generated by graphviz version 2.40.1 (20161225.0304)
 -->
<!-- Title: debugoutput Pages: 1 -->
<svg width="809pt" height="2696pt" viewBox="0.00 0.00 809.08 2696.40" xmlns="http://www.w3.org/2000/svg" xmlns:xlink="http://www.w3.org/1999/xlink">
<g id="graph0" class="graph" transform="scale(1 1) rotate(0) translate(4 2692.4)">
<title>debugoutput</title>
<polygon fill="#ffffff" stroke="transparent" points="-4,4 -4,-2692.4 805.0779,-2692.4 805.0779,4 -4,4"/>
<!-- node_0 -->
<g id="node1" class="node">
<title>node_0</title>
<polygon fill="#ff4500" stroke="#000000" points="283.0836,-2688.4 186.3218,-2688.4 186.3218,-2652.4 283.0836,-2652.4 283.0836,-2688.4"/>
<text text-anchor="middle" x="234.7027" y="-2666.2" font-family="Times,serif" font-size="14.00" fill="#000000">0 Region Start</text>
</g>
<!-- node_1 -->
<g id="node2" class="node">
<title>node_1</title>
<polygon fill="#ff4500" stroke="#000000" points="305.6971,-2615.4 163.7083,-2615.4 163.7083,-2579.4 305.6971,-2579.4 305.6971,-2615.4"/>
<text text-anchor="middle" x="234.7027" y="-2593.2" font-family="Times,serif" font-size="14.00" fill="#000000">1 Region L858952163</text>
</g>
<!-- node_0&#45;&gt;node_1 -->
<g id="edge1" class="edge">
<title>node_0-&gt;node_1</title>
<path fill="none" stroke="#ff0000" stroke-width="2" d="M234.7027,-2652.3551C234.7027,-2644.2828 234.7027,-2634.5764 234.7027,-2625.5817"/>
<polygon fill="#ff0000" stroke="#ff0000" stroke-width="2" points="238.2028,-2625.4903 234.7027,-2615.4904 231.2028,-2625.4904 238.2028,-2625.4903"/>
</g>
<!-- node_2 -->
<g id="node3" class="node">
<title>node_2</title>
<polygon fill="#ff4500" stroke="#000000" points="342.2617,-2542.4 127.1437,-2542.4 127.1437,-2506.4 342.2617,-2506.4 342.2617,-2542.4"/>
<text text-anchor="middle" x="234.7027" y="-2520.2" font-family="Times,serif" font-size="14.00" fill="#000000">2 LineNumberDebugInfo : line #15</text>
</g>
<!-- node_1&#45;&gt;node_2 -->
<g id="edge2" class="edge">
<title>node_1-&gt;node_2</title>
<path fill="none" stroke="#ff0000" stroke-width="2" d="M234.7027,-2579.3551C234.7027,-2571.2828 234.7027,-2561.5764 234.7027,-2552.5817"/>
<polygon fill="#ff0000" stroke="#ff0000" stroke-width="2" points="238.2028,-2552.4903 234.7027,-2542.4904 231.2028,-2552.4904 238.2028,-2552.4903"/>
</g>
<!-- node_6 -->
<g id="node4" class="node">
<title>node_6</title>
<polygon fill="#ff4500" stroke="#000000" points="309.1971,-2469.4 160.2083,-2469.4 160.2083,-2433.4 309.1971,-2433.4 309.1971,-2469.4"/>
<text text-anchor="middle" x="234.7027" y="-2447.2" font-family="Times,serif" font-size="14.00" fill="#000000">6 Region L1201484275</text>
</g>
<!-- node_2&#45;&gt;node_6 -->
<g id="edge3" class="edge">
<title>node_2-&gt;node_6</title>
<path fill="none" stroke="#ff0000" stroke-width="2" d="M234.7027,-2506.3551C234.7027,-2498.2828 234.7027,-2488.5764 234.7027,-2479.5817"/>
<polygon fill="#ff0000" stroke="#ff0000" stroke-width="2" points="238.2028,-2479.4903 234.7027,-2469.4904 231.2028,-2479.4904 238.2028,-2479.4903"/>
</g>
<!-- node_7 -->
<g id="node8" class="node">
<title>node_7</title>
<polygon fill="#ff4500" stroke="#000000" points="342.2617,-2396.4 127.1437,-2396.4 127.1437,-2360.4 342.2617,-2360.4 342.2617,-2396.4"/>
<text text-anchor="middle" x="234.7027" y="-2374.2" font-family="Times,serif" font-size="14.00" fill="#000000">7 LineNumberDebugInfo : line #16</text>
</g>
<!-- node_6&#45;&gt;node_7 -->
<g id="edge4" class="edge">
<title>node_6-&gt;node_7</title>
<path fill="none" stroke="#ff0000" stroke-width="2" d="M234.7027,-2433.3551C234.7027,-2425.2828 234.7027,-2415.5764 234.7027,-2406.5817"/>
<polygon fill="#ff0000" stroke="#ff0000" stroke-width="2" points="238.2028,-2406.4903 234.7027,-2396.4904 231.2028,-2406.4904 238.2028,-2406.4903"/>
</g>
<!-- node_3 -->
<g id="node5" class="node">
<title>node_3</title>
<polygon fill="#ffb90f" stroke="#000000" points="512.7027,-2130 403.588,-2112 512.7027,-2094 621.8174,-2112 512.7027,-2130"/>
<text text-anchor="middle" x="512.7027" y="-2107.8" font-family="Times,serif" font-size="14.00" fill="#000000">3 PrimitiveInt : 0</text>
</g>
<!-- node_45 -->
<g id="node14" class="node">
<title>node_45</title>
<polygon fill="#ff4500" stroke="#000000" points="525.5401,-2041.2 457.8653,-2041.2 457.8653,-2005.2 525.5401,-2005.2 525.5401,-2041.2"/>
<text text-anchor="middle" x="491.7027" y="-2019" font-family="Times,serif" font-size="14.00" fill="#000000">45 Copy </text>
</g>
<!-- node_3&#45;&gt;node_45 -->
<g id="edge55" class="edge">
<title>node_3-&gt;node_45</title>
<path fill="none" stroke="#00eeee" d="M508.5538,-2094.456C505.6297,-2082.0914 501.6531,-2065.2759 498.2972,-2051.0852"/>
<polygon fill="#00eeee" stroke="#00eeee" points="501.6947,-2050.2433 495.9872,-2041.3172 494.8826,-2051.8543 501.6947,-2050.2433"/>
<text text-anchor="middle" x="517.8903" y="-2063.4" font-family="Times,serif" font-size="14.00" fill="#000000">arg 0</text>
</g>
<!-- node_4 -->
<g id="node6" class="node">
<title>node_4</title>
<ellipse fill="#00eeee" stroke="#000000" cx="363.7027" cy="-2670.4" rx="62.4975" ry="18"/>
<text text-anchor="middle" x="363.7027" y="-2666.2" font-family="Times,serif" font-size="14.00" fill="#000000">4 Variable : I</text>
</g>
<!-- node_5 -->
<g id="node7" class="node">
<title>node_5</title>
<ellipse fill="#00eeee" stroke="#000000" cx="505.7027" cy="-2670.4" rx="62.4975" ry="18"/>
<text text-anchor="middle" x="505.7027" y="-2666.2" font-family="Times,serif" font-size="14.00" fill="#000000">5 Variable : I</text>
</g>
<!-- node_10 -->
<g id="node9" class="node">
<title>node_10</title>
<polygon fill="#ff4500" stroke="#000000" points="385.5401,-2307.6 317.8653,-2307.6 317.8653,-2271.6 385.5401,-2271.6 385.5401,-2307.6"/>
<text text-anchor="middle" x="351.7027" y="-2285.4" font-family="Times,serif" font-size="14.00" fill="#000000">10 Copy </text>
</g>
<!-- node_7&#45;&gt;node_10 -->
<g id="edge5" class="edge">
<title>node_7-&gt;node_10</title>
<path fill="none" stroke="#ff0000" stroke-width="2" d="M258.6617,-2360.2157C276.2494,-2346.8672 300.3264,-2328.5933 319.5811,-2313.9794"/>
<polygon fill="#ff0000" stroke="#ff0000" stroke-width="2" points="321.9261,-2316.5936 327.7757,-2307.76 317.6941,-2311.0177 321.9261,-2316.5936"/>
</g>
<!-- node_9 -->
<g id="node11" class="node">
<title>node_9</title>
<ellipse fill="#00eeee" stroke="#000000" cx="306.7027" cy="-2200.8" rx="62.4975" ry="18"/>
<text text-anchor="middle" x="306.7027" y="-2196.6" font-family="Times,serif" font-size="14.00" fill="#000000">9 Variable : I</text>
</g>
<!-- node_10&#45;&gt;node_9 -->
<g id="edge6" class="edge">
<title>node_10-&gt;node_9</title>
<path fill="none" stroke="#00eeee" d="M342.3787,-2271.2006C336.0618,-2258.7353 327.6056,-2242.0484 320.5115,-2228.0494"/>
<polygon fill="#00eeee" stroke="#00eeee" points="323.5032,-2226.2099 315.8608,-2218.872 317.2591,-2229.3742 323.5032,-2226.2099"/>
<text text-anchor="middle" x="347.8903" y="-2241" font-family="Times,serif" font-size="14.00" fill="#000000">arg 0</text>
</g>
<!-- node_12 -->
<g id="node12" class="node">
<title>node_12</title>
<polygon fill="#ff4500" stroke="#000000" points="385.5401,-2130 317.8653,-2130 317.8653,-2094 385.5401,-2094 385.5401,-2130"/>
<text text-anchor="middle" x="351.7027" y="-2107.8" font-family="Times,serif" font-size="14.00" fill="#000000">12 Copy </text>
</g>
<!-- node_10&#45;&gt;node_12 -->
<g id="edge8" class="edge">
<title>node_10-&gt;node_12</title>
<path fill="none" stroke="#ff0000" stroke-width="2" d="M360.4885,-2271.4814C366.7494,-2257.4735 374.5864,-2237.3965 377.7027,-2218.8 382.9773,-2187.3234 376.6907,-2177.9643 365.7027,-2148 364.707,-2145.2848 363.6496,-2142.4629 362.5793,-2139.6471"/>
<polygon fill="#ff0000" stroke="#ff0000" stroke-width="2" points="365.8245,-2138.3347 358.9628,-2130.262 359.2927,-2140.8517 365.8245,-2138.3347"/>
</g>
<!-- node_8 -->
<g id="node10" class="node">
<title>node_8</title>
<polygon fill="#ffb90f" stroke="#000000" points="469.7027,-2396.4 360.588,-2378.4 469.7027,-2360.4 578.8174,-2378.4 469.7027,-2396.4"/>
<text text-anchor="middle" x="469.7027" y="-2374.2" font-family="Times,serif" font-size="14.00" fill="#000000">8 PrimitiveInt : 0</text>
</g>
<!-- node_8&#45;&gt;node_10 -->
<g id="edge7" class="edge">
<title>node_8-&gt;node_10</title>
<path fill="none" stroke="#00eeee" d="M449.9522,-2363.5369C431.9969,-2350.0248 405.1658,-2329.8333 384.0774,-2313.9633"/>
<polygon fill="#00eeee" stroke="#00eeee" points="386.1119,-2311.1141 376.0171,-2307.8976 381.9028,-2316.7073 386.1119,-2311.1141"/>
<text text-anchor="middle" x="435.8903" y="-2329.8" font-family="Times,serif" font-size="14.00" fill="#000000">arg 0</text>
</g>
<!-- node_9&#45;&gt;node_12 -->
<g id="edge10" class="edge">
<title>node_9-&gt;node_12</title>
<path fill="none" stroke="#00eeee" d="M315.8091,-2182.83C322.1108,-2170.3946 330.6164,-2153.6104 337.766,-2139.5018"/>
<polygon fill="#00eeee" stroke="#00eeee" points="341.057,-2140.7502 342.4554,-2130.2481 334.813,-2137.586 341.057,-2140.7502"/>
<text text-anchor="middle" x="347.8903" y="-2152.2" font-family="Times,serif" font-size="14.00" fill="#000000">arg 0</text>
</g>
<!-- node_11 -->
<g id="node13" class="node">
<title>node_11</title>
<ellipse fill="#00eeee" stroke="#000000" cx="351.7027" cy="-2023.2" rx="67.1535" ry="18"/>
<text text-anchor="middle" x="351.7027" y="-2019" font-family="Times,serif" font-size="14.00" fill="#000000">11 Variable : I</text>
</g>
<!-- node_12&#45;&gt;node_11 -->
<g id="edge9" class="edge">
<title>node_12-&gt;node_11</title>
<path fill="none" stroke="#00eeee" d="M351.7027,-2093.6006C351.7027,-2081.4949 351.7027,-2065.4076 351.7027,-2051.6674"/>
<polygon fill="#00eeee" stroke="#00eeee" points="355.2028,-2051.272 351.7027,-2041.272 348.2028,-2051.2721 355.2028,-2051.272"/>
<text text-anchor="middle" x="365.8903" y="-2063.4" font-family="Times,serif" font-size="14.00" fill="#000000">arg 0</text>
</g>
<!-- node_12&#45;&gt;node_45 -->
<g id="edge11" class="edge">
<title>node_12-&gt;node_45</title>
<path fill="none" stroke="#ff0000" stroke-width="2" d="M380.3716,-2093.8157C401.7941,-2080.2277 431.2629,-2061.5361 454.5008,-2046.7966"/>
<polygon fill="#ff0000" stroke="#ff0000" stroke-width="2" points="456.5023,-2049.6719 463.0721,-2041.36 452.7528,-2043.7607 456.5023,-2049.6719"/>
</g>
<!-- node_46 -->
<g id="node19" class="node">
<title>node_46</title>
<polygon fill="#ff4500" stroke="#000000" points="385.5401,-1952.4 317.8653,-1952.4 317.8653,-1916.4 385.5401,-1916.4 385.5401,-1952.4"/>
<text text-anchor="middle" x="351.7027" y="-1930.2" font-family="Times,serif" font-size="14.00" fill="#000000">46 Copy </text>
</g>
<!-- node_11&#45;&gt;node_46 -->
<g id="edge57" class="edge">
<title>node_11-&gt;node_46</title>
<path fill="none" stroke="#00eeee" d="M351.7027,-2004.8006C351.7027,-1992.6949 351.7027,-1976.6076 351.7027,-1962.8674"/>
<polygon fill="#00eeee" stroke="#00eeee" points="355.2028,-1962.472 351.7027,-1952.472 348.2028,-1962.4721 355.2028,-1962.472"/>
<text text-anchor="middle" x="365.8903" y="-1974.6" font-family="Times,serif" font-size="14.00" fill="#000000">arg 0</text>
</g>
<!-- node_13 -->
<g id="node15" class="node">
<title>node_13</title>
<polygon fill="#00eeee" stroke="#000000" points="644.7619,-91 616.2323,-109 559.1731,-109 530.6435,-91 559.1731,-73 616.2323,-73 644.7619,-91"/>
<text text-anchor="middle" x="587.7027" y="-86.8" font-family="Times,serif" font-size="14.00" fill="#000000">13 PHI : I</text>
</g>
<!-- node_45&#45;&gt;node_13 -->
<g id="edge12" class="edge">
<title>node_45-&gt;node_13</title>
<path fill="none" stroke="#00eeee" d="M525.5979,-2019.7208C600.3353,-2011.1098 772.7027,-1985.6906 772.7027,-1934.4 772.7027,-1934.4 772.7027,-1934.4 772.7027,-179.8 772.7027,-149.8665 692.9909,-120.9687 638.2146,-104.6444"/>
<polygon fill="#00eeee" stroke="#00eeee" points="638.8822,-101.1931 628.3017,-101.7452 636.9172,-107.9117 638.8822,-101.1931"/>
<text text-anchor="middle" x="786.8903" y="-1054.6" font-family="Times,serif" font-size="14.00" fill="#000000">arg 0</text>
</g>
<!-- node_45&#45;&gt;node_46 -->
<g id="edge56" class="edge">
<title>node_45-&gt;node_46</title>
<path fill="none" stroke="#ff0000" stroke-width="2" d="M463.0338,-2005.0157C441.6113,-1991.4277 412.1425,-1972.7361 388.9046,-1957.9966"/>
<polygon fill="#ff0000" stroke="#ff0000" stroke-width="2" points="390.6526,-1954.9607 380.3333,-1952.56 386.9031,-1960.8719 390.6526,-1954.9607"/>
</g>
<!-- node_27 -->
<g id="node32" class="node">
<title>node_27</title>
<polygon fill="#ff4500" stroke="#000000" points="390.5401,-1165.6 322.8653,-1165.6 322.8653,-1129.6 390.5401,-1129.6 390.5401,-1165.6"/>
<text text-anchor="middle" x="356.7027" y="-1143.4" font-family="Times,serif" font-size="14.00" fill="#000000">27 Copy </text>
</g>
<!-- node_13&#45;&gt;node_27 -->
<g id="edge32" class="edge">
<title>node_13-&gt;node_27</title>
<path fill="none" stroke="#00eeee" d="M587.7027,-109.0279C587.7027,-126.9689 587.7027,-155.2875 587.7027,-179.8 587.7027,-1058.8 587.7027,-1058.8 587.7027,-1058.8 587.7027,-1098.4414 467.6827,-1127.0725 400.666,-1139.9696"/>
<polygon fill="#00eeee" stroke="#00eeee" points="399.9666,-1136.5397 390.7875,-1141.8308 401.2627,-1143.4187 399.9666,-1136.5397"/>
<text text-anchor="middle" x="601.8903" y="-591.4" font-family="Times,serif" font-size="14.00" fill="#000000">arg 0</text>
</g>
<!-- node_47 -->
<g id="node16" class="node">
<title>node_47</title>
<polygon fill="#ff4500" stroke="#000000" points="496.5401,-197.8 428.8653,-197.8 428.8653,-161.8 496.5401,-161.8 496.5401,-197.8"/>
<text text-anchor="middle" x="462.7027" y="-175.6" font-family="Times,serif" font-size="14.00" fill="#000000">47 Copy </text>
</g>
<!-- node_47&#45;&gt;node_13 -->
<g id="edge13" class="edge">
<title>node_47-&gt;node_13</title>
<path fill="none" stroke="#00eeee" d="M488.3,-161.6157C507.2587,-148.1474 533.2755,-129.6651 553.937,-114.9871"/>
<polygon fill="#00eeee" stroke="#00eeee" points="556.0144,-117.8047 562.1397,-109.16 551.9604,-112.0981 556.0144,-117.8047"/>
<text text-anchor="middle" x="549.8903" y="-131.2" font-family="Times,serif" font-size="14.00" fill="#000000">arg 1</text>
</g>
<!-- node_15 -->
<g id="node20" class="node">
<title>node_15</title>
<polygon fill="#ff4500" stroke="#000000" points="238.6971,-109 82.7083,-109 82.7083,-73 238.6971,-73 238.6971,-109"/>
<text text-anchor="middle" x="160.7027" y="-86.8" font-family="Times,serif" font-size="14.00" fill="#000000">15 Region L1089418272</text>
</g>
<!-- node_47&#45;&gt;node_15 -->
<g id="edge60" class="edge">
<title>node_47-&gt;node_15</title>
<path fill="none" stroke="#ff0000" stroke-width="2" stroke-dasharray="5,2" d="M428.9385,-169.872C381.5286,-155.9316 294.0807,-130.2184 231.9278,-111.943"/>
<polygon fill="#ff0000" stroke="#ff0000" stroke-width="2" points="232.7611,-108.5399 222.1799,-109.0767 230.7863,-115.2556 232.7611,-108.5399"/>
</g>
<!-- node_14 -->
<g id="node17" class="node">
<title>node_14</title>
<polygon fill="#00eeee" stroke="#000000" points="408.7619,-1845.6 380.2323,-1863.6 323.1731,-1863.6 294.6435,-1845.6 323.1731,-1827.6 380.2323,-1827.6 408.7619,-1845.6"/>
<text text-anchor="middle" x="351.7027" y="-1841.4" font-family="Times,serif" font-size="14.00" fill="#000000">14 PHI : I</text>
</g>
<!-- node_18 -->
<g id="node22" class="node">
<title>node_18</title>
<polygon fill="#ff4500" stroke="#000000" points="344.5401,-1774.8 276.8653,-1774.8 276.8653,-1738.8 344.5401,-1738.8 344.5401,-1774.8"/>
<text text-anchor="middle" x="310.7027" y="-1752.6" font-family="Times,serif" font-size="14.00" fill="#000000">18 Copy </text>
</g>
<!-- node_14&#45;&gt;node_18 -->
<g id="edge19" class="edge">
<title>node_14-&gt;node_18</title>
<path fill="none" stroke="#00eeee" d="M343.2075,-1827.2006C337.4521,-1814.7353 329.7476,-1798.0484 323.284,-1784.0494"/>
<polygon fill="#00eeee" stroke="#00eeee" points="326.4163,-1782.4838 319.0468,-1774.872 320.061,-1785.4182 326.4163,-1782.4838"/>
<text text-anchor="middle" x="349.8903" y="-1797" font-family="Times,serif" font-size="14.00" fill="#000000">arg 0</text>
</g>
<!-- node_29 -->
<g id="node34" class="node">
<title>node_29</title>
<polygon fill="#ff4500" stroke="#000000" points="254.5401,-1076.8 186.8653,-1076.8 186.8653,-1040.8 254.5401,-1040.8 254.5401,-1076.8"/>
<text text-anchor="middle" x="220.7027" y="-1054.6" font-family="Times,serif" font-size="14.00" fill="#000000">29 Copy </text>
</g>
<!-- node_14&#45;&gt;node_29 -->
<g id="edge35" class="edge">
<title>node_14-&gt;node_29</title>
<path fill="none" stroke="#00eeee" d="M320.944,-1828.894C286.65,-1808.4119 232.7246,-1770.2419 207.7027,-1720.8 139.5403,-1586.1146 178.7027,-1533.3513 178.7027,-1382.4 178.7027,-1382.4 178.7027,-1382.4 178.7027,-1257.1 178.7027,-1195.1793 198.5446,-1124.6968 210.9524,-1086.675"/>
<polygon fill="#00eeee" stroke="#00eeee" points="214.387,-1087.4395 214.2322,-1076.8458 207.7469,-1085.2238 214.387,-1087.4395"/>
<text text-anchor="middle" x="192.8903" y="-1422.6" font-family="Times,serif" font-size="14.00" fill="#000000">arg 0</text>
</g>
<!-- node_38 -->
<g id="node44" class="node">
<title>node_38</title>
<polygon fill="#00eeee" stroke="#000000" points="142.5451,-1756.8 118.1239,-1774.8 69.2815,-1774.8 44.8603,-1756.8 69.2815,-1738.8 118.1239,-1738.8 142.5451,-1756.8"/>
<text text-anchor="middle" x="93.7027" y="-1752.6" font-family="Times,serif" font-size="14.00" fill="#000000">38 Add </text>
</g>
<!-- node_14&#45;&gt;node_38 -->
<g id="edge47" class="edge">
<title>node_14-&gt;node_38</title>
<path fill="none" stroke="#00eeee" d="M312.8296,-1834.0304C303.9688,-1831.664 294.5555,-1829.3618 285.7027,-1827.6 223.5803,-1815.2369 200.8991,-1838.0902 144.3275,-1809.6 137.4424,-1806.1326 125.7019,-1794.0789 115.2597,-1782.3627"/>
<polygon fill="#00eeee" stroke="#00eeee" points="117.8677,-1780.0282 108.6493,-1774.8059 112.599,-1784.637 117.8677,-1780.0282"/>
<text text-anchor="middle" x="158.8903" y="-1797" font-family="Times,serif" font-size="14.00" fill="#000000">arg 0</text>
</g>
<!-- node_39 -->
<g id="node18" class="node">
<title>node_39</title>
<polygon fill="#ff4500" stroke="#000000" points="441.5401,-343.8 373.8653,-343.8 373.8653,-307.8 441.5401,-307.8 441.5401,-343.8"/>
<text text-anchor="middle" x="407.7027" y="-321.6" font-family="Times,serif" font-size="14.00" fill="#000000">39 Copy </text>
</g>
<!-- node_39&#45;&gt;node_14 -->
<g id="edge14" class="edge">
<title>node_39-&gt;node_14</title>
<path fill="none" stroke="#00eeee" d="M441.6929,-339.6605C479.2815,-356.6713 539.0899,-389.0048 573.7027,-434.8 685.9766,-583.3466 734.7027,-1070.8971 734.7027,-1257.1 734.7027,-1756.8 734.7027,-1756.8 734.7027,-1756.8 734.7027,-1821.2707 526.1521,-1838.9469 416.8361,-1843.7838"/>
<polygon fill="#00eeee" stroke="#00eeee" points="416.4222,-1840.2979 406.5773,-1844.2129 416.7148,-1847.2918 416.4222,-1840.2979"/>
<text text-anchor="middle" x="741.8903" y="-1099" font-family="Times,serif" font-size="14.00" fill="#000000">arg 0</text>
</g>
<!-- node_40 -->
<g id="node45" class="node">
<title>node_40</title>
<polygon fill="#ff4500" stroke="#000000" points="464.1999,-270.8 399.2055,-270.8 399.2055,-234.8 464.1999,-234.8 464.1999,-270.8"/>
<text text-anchor="middle" x="431.7027" y="-248.6" font-family="Times,serif" font-size="14.00" fill="#000000">40 Goto </text>
</g>
<!-- node_39&#45;&gt;node_40 -->
<g id="edge50" class="edge">
<title>node_39-&gt;node_40</title>
<path fill="none" stroke="#ff0000" stroke-width="2" d="M413.6353,-307.7551C416.3469,-299.5074 419.6193,-289.5536 422.63,-280.3962"/>
<polygon fill="#ff0000" stroke="#ff0000" stroke-width="2" points="425.9568,-281.4833 425.7552,-270.8904 419.307,-279.297 425.9568,-281.4833"/>
</g>
<!-- node_46&#45;&gt;node_14 -->
<g id="edge15" class="edge">
<title>node_46-&gt;node_14</title>
<path fill="none" stroke="#00eeee" d="M351.7027,-1916.0006C351.7027,-1903.8949 351.7027,-1887.8076 351.7027,-1874.0674"/>
<polygon fill="#00eeee" stroke="#00eeee" points="355.2028,-1873.672 351.7027,-1863.672 348.2028,-1873.6721 355.2028,-1873.672"/>
<text text-anchor="middle" x="365.8903" y="-1885.8" font-family="Times,serif" font-size="14.00" fill="#000000">arg 1</text>
</g>
<!-- node_46&#45;&gt;node_15 -->
<g id="edge58" class="edge">
<title>node_46-&gt;node_15</title>
<path fill="none" stroke="#ff0000" stroke-width="2" d="M317.7376,-1932.614C232.5708,-1927.2122 16.7027,-1907.423 16.7027,-1845.6 16.7027,-1845.6 16.7027,-1845.6 16.7027,-289.3 16.7027,-214.7103 84.2345,-149.2839 126.8046,-115.4509"/>
<polygon fill="#ff0000" stroke="#ff0000" stroke-width="2" points="129.2115,-118.0129 134.9584,-109.1121 124.9152,-112.4864 129.2115,-118.0129"/>
</g>
<!-- node_16 -->
<g id="node21" class="node">
<title>node_16</title>
<polygon fill="#ff4500" stroke="#000000" points="133.6087,-36 -.2033,-36 -.2033,0 133.6087,0 133.6087,-36"/>
<text text-anchor="middle" x="66.7027" y="-13.8" font-family="Times,serif" font-size="14.00" fill="#000000">16 FrameDebugInfo </text>
</g>
<!-- node_15&#45;&gt;node_16 -->
<g id="edge16" class="edge">
<title>node_15-&gt;node_16</title>
<path fill="none" stroke="#ff0000" stroke-width="2" d="M137.4667,-72.9551C125.6036,-63.7422 110.9994,-52.4006 98.1451,-42.418"/>
<polygon fill="#ff0000" stroke="#ff0000" stroke-width="2" points="100.042,-39.4597 89.9971,-36.0904 95.7484,-44.9883 100.042,-39.4597"/>
</g>
<!-- node_16&#45;&gt;node_18 -->
<g id="edge17" class="edge">
<title>node_16-&gt;node_18</title>
<path fill="none" stroke="#ff0000" stroke-width="2" d="M62.0288,-36.1644C58.6594,-50.8522 54.7027,-72.1198 54.7027,-91 54.7027,-362.3 54.7027,-362.3 54.7027,-362.3 54.7027,-452.9625 131.7027,-460.5375 131.7027,-551.2 131.7027,-906.4 131.7027,-906.4 131.7027,-906.4 131.7027,-1160.5892 221.7027,-1217.0108 221.7027,-1471.2 221.7027,-1668 221.7027,-1668 221.7027,-1668 221.7027,-1696.7413 245.2497,-1719.4096 268.1201,-1734.6481"/>
<polygon fill="#ff0000" stroke="#ff0000" stroke-width="2" points="266.476,-1737.7491 276.8017,-1740.1219 270.2094,-1731.8278 266.476,-1737.7491"/>
</g>
<!-- node_17 -->
<g id="node23" class="node">
<title>node_17</title>
<ellipse fill="#00eeee" stroke="#000000" cx="310.7027" cy="-1614" rx="67.1535" ry="18"/>
<text text-anchor="middle" x="310.7027" y="-1609.8" font-family="Times,serif" font-size="14.00" fill="#000000">17 Variable : I</text>
</g>
<!-- node_18&#45;&gt;node_17 -->
<g id="edge18" class="edge">
<title>node_18-&gt;node_17</title>
<path fill="none" stroke="#00eeee" d="M310.7027,-1738.7143C310.7027,-1714.4908 310.7027,-1671.2461 310.7027,-1642.5888"/>
<polygon fill="#00eeee" stroke="#00eeee" points="314.2028,-1642.3899 310.7027,-1632.3899 307.2028,-1642.39 314.2028,-1642.3899"/>
<text text-anchor="middle" x="324.8903" y="-1708.2" font-family="Times,serif" font-size="14.00" fill="#000000">arg 0</text>
</g>
<!-- node_21 -->
<g id="node24" class="node">
<title>node_21</title>
<polygon fill="#ff4500" stroke="#000000" points="504.5401,-1686 436.8653,-1686 436.8653,-1650 504.5401,-1650 504.5401,-1686"/>
<text text-anchor="middle" x="470.7027" y="-1663.8" font-family="Times,serif" font-size="14.00" fill="#000000">21 Copy </text>
</g>
<!-- node_18&#45;&gt;node_21 -->
<g id="edge20" class="edge">
<title>node_18-&gt;node_21</title>
<path fill="none" stroke="#ff0000" stroke-width="2" d="M343.4672,-1738.6157C368.3558,-1724.8026 402.7473,-1705.7153 429.5005,-1690.8672"/>
<polygon fill="#ff0000" stroke="#ff0000" stroke-width="2" points="431.2106,-1693.9211 438.2558,-1686.008 427.8137,-1687.8005 431.2106,-1693.9211"/>
</g>
<!-- node_23 -->
<g id="node28" class="node">
<title>node_23</title>
<polygon fill="#00eeee" stroke="#000000" points="491.1525,-1471.2 432.9276,-1489.2 316.4778,-1489.2 258.2529,-1471.2 316.4778,-1453.2 432.9276,-1453.2 491.1525,-1471.2"/>
<text text-anchor="middle" x="374.7027" y="-1467" font-family="Times,serif" font-size="14.00" fill="#000000">23 NumericalTest : GE</text>
</g>
<!-- node_17&#45;&gt;node_23 -->
<g id="edge27" class="edge">
<title>node_17-&gt;node_23</title>
<path fill="none" stroke="#00eeee" d="M310.2122,-1595.8671C310.4226,-1580.885 312.1701,-1559.339 319.3275,-1542 326.1167,-1525.5531 337.8436,-1509.7116 348.7628,-1497.199"/>
<polygon fill="#00eeee" stroke="#00eeee" points="351.6348,-1499.2423 355.7617,-1489.4842 346.4503,-1494.5389 351.6348,-1499.2423"/>
<text text-anchor="middle" x="333.8903" y="-1555.8" font-family="Times,serif" font-size="14.00" fill="#000000">arg 0</text>
</g>
<!-- node_20 -->
<g id="node26" class="node">
<title>node_20</title>
<ellipse fill="#00eeee" stroke="#000000" cx="423.7027" cy="-1560" rx="67.1535" ry="18"/>
<text text-anchor="middle" x="423.7027" y="-1555.8" font-family="Times,serif" font-size="14.00" fill="#000000">20 Variable : I</text>
</g>
<!-- node_21&#45;&gt;node_20 -->
<g id="edge21" class="edge">
<title>node_21-&gt;node_20</title>
<path fill="none" stroke="#00eeee" d="M462.7298,-1649.6793C455.2914,-1632.5868 444.0963,-1606.8619 435.6012,-1587.3413"/>
<polygon fill="#00eeee" stroke="#00eeee" points="438.7576,-1585.8229 431.5579,-1578.0502 432.339,-1588.6162 438.7576,-1585.8229"/>
<text text-anchor="middle" x="467.8903" y="-1609.8" font-family="Times,serif" font-size="14.00" fill="#000000">arg 0</text>
</g>
<!-- node_22 -->
<g id="node27" class="node">
<title>node_22</title>
<polygon fill="#ff4500" stroke="#000000" points="499.7027,-1400.4 445.7027,-1400.4 445.7027,-1364.4 499.7027,-1364.4 499.7027,-1400.4"/>
<text text-anchor="middle" x="472.7027" y="-1378.2" font-family="Times,serif" font-size="14.00" fill="#000000">22 If </text>
</g>
<!-- node_21&#45;&gt;node_22 -->
<g id="edge23" class="edge">
<title>node_21-&gt;node_22</title>
<path fill="none" stroke="#ff0000" stroke-width="2" d="M478.84,-1649.8762C481.2228,-1644.2147 483.7182,-1637.9046 485.7027,-1632 511.0968,-1556.4434 514.1429,-1531.591 499.7027,-1453.2 496.968,-1438.3543 491.26,-1422.5923 485.7938,-1409.7183"/>
<polygon fill="#ff0000" stroke="#ff0000" stroke-width="2" points="488.9615,-1408.2276 481.714,-1400.4994 482.5603,-1411.0604 488.9615,-1408.2276"/>
</g>
<!-- node_19 -->
<g id="node25" class="node">
<title>node_19</title>
<polygon fill="#ffb90f" stroke="#000000" points="491.7027,-1774.8 362.1171,-1756.8 491.7027,-1738.8 621.2883,-1756.8 491.7027,-1774.8"/>
<text text-anchor="middle" x="491.7027" y="-1752.6" font-family="Times,serif" font-size="14.00" fill="#000000">19 PrimitiveInt : 100</text>
</g>
<!-- node_19&#45;&gt;node_21 -->
<g id="edge22" class="edge">
<title>node_19-&gt;node_21</title>
<path fill="none" stroke="#00eeee" d="M487.5538,-1739.256C484.6297,-1726.8914 480.6531,-1710.0759 477.2972,-1695.8852"/>
<polygon fill="#00eeee" stroke="#00eeee" points="480.6947,-1695.0433 474.9872,-1686.1172 473.8826,-1696.6543 480.6947,-1695.0433"/>
<text text-anchor="middle" x="496.8903" y="-1708.2" font-family="Times,serif" font-size="14.00" fill="#000000">arg 0</text>
</g>
<!-- node_20&#45;&gt;node_23 -->
<g id="edge28" class="edge">
<title>node_20-&gt;node_23</title>
<path fill="none" stroke="#00eeee" d="M413.7868,-1542.03C406.859,-1529.4751 397.4851,-1512.4872 389.6541,-1498.2955"/>
<polygon fill="#00eeee" stroke="#00eeee" points="392.6678,-1496.5126 384.772,-1489.4481 386.5389,-1499.8945 392.6678,-1496.5126"/>
<text text-anchor="middle" x="417.8903" y="-1511.4" font-family="Times,serif" font-size="14.00" fill="#000000">arg 1</text>
</g>
<!-- node_24 -->
<g id="node29" class="node">
<title>node_24</title>
<polygon fill="#ff4500" stroke="#000000" points="468.6971,-1311.6 312.7083,-1311.6 312.7083,-1275.6 468.6971,-1275.6 468.6971,-1311.6"/>
<text text-anchor="middle" x="390.7027" y="-1289.4" font-family="Times,serif" font-size="14.00" fill="#000000">24 Region L2036127838</text>
</g>
<!-- node_22&#45;&gt;node_24 -->
<g id="edge25" class="edge">
<title>node_22-&gt;node_24</title>
<path fill="none" stroke="#ff0000" stroke-width="2" d="M455.7122,-1364.0006C443.7588,-1351.0559 427.6014,-1333.5586 414.3852,-1319.2464"/>
<polygon fill="#ff0000" stroke="#ff0000" stroke-width="2" points="416.7464,-1316.6443 407.3908,-1311.672 411.6037,-1321.3933 416.7464,-1316.6443"/>
<text text-anchor="middle" x="460.0912" y="-1333.8" font-family="Times,serif" font-size="14.00" fill="#000000">FALSE</text>
</g>
<!-- node_41 -->
<g id="node30" class="node">
<title>node_41</title>
<polygon fill="#ff4500" stroke="#000000" points="650.1971,-1311.6 501.2083,-1311.6 501.2083,-1275.6 650.1971,-1275.6 650.1971,-1311.6"/>
<text text-anchor="middle" x="575.7027" y="-1289.4" font-family="Times,serif" font-size="14.00" fill="#000000">41 Region L230643635</text>
</g>
<!-- node_22&#45;&gt;node_41 -->
<g id="edge26" class="edge">
<title>node_22-&gt;node_41</title>
<path fill="none" stroke="#ff0000" stroke-width="2" d="M494.0444,-1364.0006C509.3371,-1350.8162 530.1078,-1332.909 546.8736,-1318.4546"/>
<polygon fill="#ff0000" stroke="#ff0000" stroke-width="2" points="549.4523,-1320.8526 554.7408,-1311.672 544.8815,-1315.5509 549.4523,-1320.8526"/>
<text text-anchor="middle" x="550.9769" y="-1333.8" font-family="Times,serif" font-size="14.00" fill="#000000">TRUE</text>
</g>
<!-- node_23&#45;&gt;node_22 -->
<g id="edge24" class="edge">
<title>node_23-&gt;node_22</title>
<path fill="none" stroke="#00eeee" d="M395.0084,-1452.8006C409.5587,-1439.6162 429.3212,-1421.709 445.2731,-1407.2546"/>
<polygon fill="#00eeee" stroke="#00eeee" points="447.6981,-1409.7804 452.7584,-1400.472 442.9978,-1404.5931 447.6981,-1409.7804"/>
<text text-anchor="middle" x="446.8903" y="-1422.6" font-family="Times,serif" font-size="14.00" fill="#000000">arg 0</text>
</g>
<!-- node_25 -->
<g id="node31" class="node">
<title>node_25</title>
<polygon fill="#ff4500" stroke="#000000" points="466.7617,-1238.6 244.6437,-1238.6 244.6437,-1202.6 466.7617,-1202.6 466.7617,-1238.6"/>
<text text-anchor="middle" x="355.7027" y="-1216.4" font-family="Times,serif" font-size="14.00" fill="#000000">25 LineNumberDebugInfo : line #17</text>
</g>
<!-- node_24&#45;&gt;node_25 -->
<g id="edge29" class="edge">
<title>node_24-&gt;node_25</title>
<path fill="none" stroke="#ff0000" stroke-width="2" d="M382.051,-1275.5551C378.0546,-1267.2196 373.2226,-1257.1416 368.7937,-1247.9042"/>
<polygon fill="#ff0000" stroke="#ff0000" stroke-width="2" points="371.8555,-1246.1944 364.3762,-1238.6904 365.5435,-1249.2207 371.8555,-1246.1944"/>
</g>
<!-- node_42 -->
<g id="node46" class="node">
<title>node_42</title>
<polygon fill="#ff4500" stroke="#000000" points="706.7617,-1238.6 484.6437,-1238.6 484.6437,-1202.6 706.7617,-1202.6 706.7617,-1238.6"/>
<text text-anchor="middle" x="595.7027" y="-1216.4" font-family="Times,serif" font-size="14.00" fill="#000000">42 LineNumberDebugInfo : line #19</text>
</g>
<!-- node_41&#45;&gt;node_42 -->
<g id="edge52" class="edge">
<title>node_41-&gt;node_42</title>
<path fill="none" stroke="#ff0000" stroke-width="2" d="M580.6465,-1275.5551C582.8821,-1267.3951 585.5753,-1257.5652 588.062,-1248.4887"/>
<polygon fill="#ff0000" stroke="#ff0000" stroke-width="2" points="591.4796,-1249.2598 590.7464,-1238.6904 584.7284,-1247.4101 591.4796,-1249.2598"/>
</g>
<!-- node_25&#45;&gt;node_27 -->
<g id="edge30" class="edge">
<title>node_25-&gt;node_27</title>
<path fill="none" stroke="#ff0000" stroke-width="2" d="M355.9499,-1202.5551C356.0605,-1194.4828 356.1934,-1184.7764 356.3166,-1175.7817"/>
<polygon fill="#ff0000" stroke="#ff0000" stroke-width="2" points="359.8175,-1175.7374 356.4549,-1165.6904 352.8181,-1175.6414 359.8175,-1175.7374"/>
</g>
<!-- node_26 -->
<g id="node33" class="node">
<title>node_26</title>
<ellipse fill="#00eeee" stroke="#000000" cx="357.7027" cy="-1004.8" rx="67.1535" ry="18"/>
<text text-anchor="middle" x="357.7027" y="-1000.6" font-family="Times,serif" font-size="14.00" fill="#000000">26 Variable : I</text>
</g>
<!-- node_27&#45;&gt;node_26 -->
<g id="edge31" class="edge">
<title>node_27-&gt;node_26</title>
<path fill="none" stroke="#00eeee" d="M356.8294,-1129.5143C356.999,-1105.2908 357.3018,-1062.0461 357.5025,-1033.3888"/>
<polygon fill="#00eeee" stroke="#00eeee" points="361.0037,-1033.2142 357.5739,-1023.1899 354.0039,-1033.1651 361.0037,-1033.2142"/>
<text text-anchor="middle" x="371.8903" y="-1099" font-family="Times,serif" font-size="14.00" fill="#000000">arg 0</text>
</g>
<!-- node_27&#45;&gt;node_29 -->
<g id="edge33" class="edge">
<title>node_27-&gt;node_29</title>
<path fill="none" stroke="#ff0000" stroke-width="2" d="M328.8529,-1129.4157C308.1341,-1115.8876 279.6678,-1097.3007 257.1404,-1082.5917"/>
<polygon fill="#ff0000" stroke="#ff0000" stroke-width="2" points="258.802,-1079.4966 248.5153,-1076.96 254.9749,-1085.3578 258.802,-1079.4966"/>
</g>
<!-- node_30 -->
<g id="node37" class="node">
<title>node_30</title>
<polygon fill="#00eeee" stroke="#000000" points="326.5451,-862 302.1239,-880 253.2815,-880 228.8603,-862 253.2815,-844 302.1239,-844 326.5451,-862"/>
<text text-anchor="middle" x="277.7027" y="-857.8" font-family="Times,serif" font-size="14.00" fill="#000000">30 Add </text>
</g>
<!-- node_26&#45;&gt;node_30 -->
<g id="edge37" class="edge">
<title>node_26-&gt;node_30</title>
<path fill="none" stroke="#00eeee" d="M355.9441,-986.7814C353.8997,-971.6742 349.5909,-949.8927 340.7027,-932.8 331.965,-915.9966 318.3476,-899.9899 306.0054,-887.4608"/>
<polygon fill="#00eeee" stroke="#00eeee" points="308.1286,-884.6405 298.5404,-880.133 303.225,-889.636 308.1286,-884.6405"/>
<text text-anchor="middle" x="366.8903" y="-946.6" font-family="Times,serif" font-size="14.00" fill="#000000">arg 0</text>
</g>
<!-- node_28 -->
<g id="node35" class="node">
<title>node_28</title>
<ellipse fill="#00eeee" stroke="#000000" cx="264.7027" cy="-950.8" rx="67.1535" ry="18"/>
<text text-anchor="middle" x="264.7027" y="-946.6" font-family="Times,serif" font-size="14.00" fill="#000000">28 Variable : I</text>
</g>
<!-- node_29&#45;&gt;node_28 -->
<g id="edge34" class="edge">
<title>node_29-&gt;node_28</title>
<path fill="none" stroke="#00eeee" d="M228.1667,-1040.4793C235.1303,-1023.3868 245.6108,-997.6619 253.5636,-978.1413"/>
<polygon fill="#00eeee" stroke="#00eeee" points="256.8172,-979.4317 257.3489,-968.8502 250.3346,-976.7905 256.8172,-979.4317"/>
<text text-anchor="middle" x="263.8903" y="-1000.6" font-family="Times,serif" font-size="14.00" fill="#000000">arg 0</text>
</g>
<!-- node_32 -->
<g id="node36" class="node">
<title>node_32</title>
<polygon fill="#ff4500" stroke="#000000" points="311.5401,-791.2 243.8653,-791.2 243.8653,-755.2 311.5401,-755.2 311.5401,-791.2"/>
<text text-anchor="middle" x="277.7027" y="-769" font-family="Times,serif" font-size="14.00" fill="#000000">32 Copy </text>
</g>
<!-- node_29&#45;&gt;node_32 -->
<g id="edge36" class="edge">
<title>node_29-&gt;node_32</title>
<path fill="none" stroke="#ff0000" stroke-width="2" d="M211.1364,-1040.6352C199.4786,-1016.3221 182.1009,-971.7409 188.7027,-932.8 195.6899,-891.5856 199.2553,-880.4602 219.7027,-844 228.7781,-827.8175 241.641,-811.6679 252.9483,-798.8877"/>
<polygon fill="#ff0000" stroke="#ff0000" stroke-width="2" points="255.6169,-801.1552 259.7399,-791.3955 250.4306,-796.4539 255.6169,-801.1552"/>
</g>
<!-- node_28&#45;&gt;node_30 -->
<g id="edge38" class="edge">
<title>node_28-&gt;node_30</title>
<path fill="none" stroke="#00eeee" d="M267.3963,-932.4006C269.1861,-920.175 271.5703,-903.8887 273.5948,-890.0599"/>
<polygon fill="#00eeee" stroke="#00eeee" points="277.0715,-890.4736 275.057,-880.072 270.1453,-889.4595 277.0715,-890.4736"/>
<text text-anchor="middle" x="286.8903" y="-902.2" font-family="Times,serif" font-size="14.00" fill="#000000">arg 1</text>
</g>
<!-- node_31 -->
<g id="node38" class="node">
<title>node_31</title>
<ellipse fill="#00eeee" stroke="#000000" cx="277.7027" cy="-684.4" rx="67.1535" ry="18"/>
<text text-anchor="middle" x="277.7027" y="-680.2" font-family="Times,serif" font-size="14.00" fill="#000000">31 Variable : I</text>
</g>
<!-- node_32&#45;&gt;node_31 -->
<g id="edge39" class="edge">
<title>node_32-&gt;node_31</title>
<path fill="none" stroke="#00eeee" d="M277.7027,-754.8006C277.7027,-742.6949 277.7027,-726.6076 277.7027,-712.8674"/>
<polygon fill="#00eeee" stroke="#00eeee" points="281.2028,-712.472 277.7027,-702.472 274.2028,-712.4721 281.2028,-712.472"/>
<text text-anchor="middle" x="291.8903" y="-724.6" font-family="Times,serif" font-size="14.00" fill="#000000">arg 0</text>
</g>
<!-- node_34 -->
<g id="node39" class="node">
<title>node_34</title>
<polygon fill="#ff4500" stroke="#000000" points="406.5401,-613.6 338.8653,-613.6 338.8653,-577.6 406.5401,-577.6 406.5401,-613.6"/>
<text text-anchor="middle" x="372.7027" y="-591.4" font-family="Times,serif" font-size="14.00" fill="#000000">34 Copy </text>
</g>
<!-- node_32&#45;&gt;node_34 -->
<g id="edge41" class="edge">
<title>node_32-&gt;node_34</title>
<path fill="none" stroke="#ff0000" stroke-width="2" d="M304.7889,-755.0317C321.5665,-742.3018 342.065,-723.7823 353.7027,-702.4 366.9329,-678.0918 371.2347,-646.4987 372.499,-623.9943"/>
<polygon fill="#ff0000" stroke="#ff0000" stroke-width="2" points="376.0062,-623.8782 372.9014,-613.7485 369.0115,-623.6034 376.0062,-623.8782"/>
</g>
<!-- node_30&#45;&gt;node_32 -->
<g id="edge40" class="edge">
<title>node_30-&gt;node_32</title>
<path fill="none" stroke="#00eeee" d="M277.7027,-843.6006C277.7027,-831.4949 277.7027,-815.4076 277.7027,-801.6674"/>
<polygon fill="#00eeee" stroke="#00eeee" points="281.2028,-801.272 277.7027,-791.272 274.2028,-801.2721 281.2028,-801.272"/>
<text text-anchor="middle" x="291.8903" y="-813.4" font-family="Times,serif" font-size="14.00" fill="#000000">arg 0</text>
</g>
<!-- node_31&#45;&gt;node_34 -->
<g id="edge43" class="edge">
<title>node_31-&gt;node_34</title>
<path fill="none" stroke="#00eeee" d="M294.4157,-666.9143C304.5898,-656.4521 317.9672,-643.0147 330.3275,-631.6 334.2169,-628.0082 338.3846,-624.3031 342.533,-620.6981"/>
<polygon fill="#00eeee" stroke="#00eeee" points="345.0953,-623.1115 350.4082,-613.945 340.5387,-617.7976 345.0953,-623.1115"/>
<text text-anchor="middle" x="344.8903" y="-635.8" font-family="Times,serif" font-size="14.00" fill="#000000">arg 0</text>
</g>
<!-- node_33 -->
<g id="node40" class="node">
<title>node_33</title>
<ellipse fill="#00eeee" stroke="#000000" cx="497.7027" cy="-452.8" rx="67.1535" ry="18"/>
<text text-anchor="middle" x="497.7027" y="-448.6" font-family="Times,serif" font-size="14.00" fill="#000000">33 Variable : I</text>
</g>
<!-- node_34&#45;&gt;node_33 -->
<g id="edge42" class="edge">
<title>node_34-&gt;node_33</title>
<path fill="none" stroke="#00eeee" d="M398.2851,-577.4088C415.7984,-564.1352 438.8169,-544.9981 455.7027,-524.8 467.0903,-511.1786 477.2095,-494.0764 484.6605,-479.9582"/>
<polygon fill="#00eeee" stroke="#00eeee" points="487.9375,-481.2372 489.3754,-470.7404 481.7055,-478.0495 487.9375,-481.2372"/>
<text text-anchor="middle" x="451.8903" y="-547" font-family="Times,serif" font-size="14.00" fill="#000000">arg 0</text>
</g>
<!-- node_35 -->
<g id="node41" class="node">
<title>node_35</title>
<polygon fill="#ff4500" stroke="#000000" points="447.1971,-524.8 298.2083,-524.8 298.2083,-488.8 447.1971,-488.8 447.1971,-524.8"/>
<text text-anchor="middle" x="372.7027" y="-502.6" font-family="Times,serif" font-size="14.00" fill="#000000">35 Region L306115458</text>
</g>
<!-- node_34&#45;&gt;node_35 -->
<g id="edge44" class="edge">
<title>node_34-&gt;node_35</title>
<path fill="none" stroke="#ff0000" stroke-width="2" d="M372.7027,-577.2006C372.7027,-565.0949 372.7027,-549.0076 372.7027,-535.2674"/>
<polygon fill="#ff0000" stroke="#ff0000" stroke-width="2" points="376.2028,-534.872 372.7027,-524.872 369.2028,-534.8721 376.2028,-534.872"/>
</g>
<!-- node_33&#45;&gt;node_47 -->
<g id="edge59" class="edge">
<title>node_33-&gt;node_47</title>
<path fill="none" stroke="#00eeee" d="M502.2095,-434.555C506.3021,-416.3677 511.7027,-387.5789 511.7027,-362.3 511.7027,-362.3 511.7027,-362.3 511.7027,-252.8 511.7027,-235.1033 501.6527,-218.4633 490.6557,-205.5524"/>
<polygon fill="#00eeee" stroke="#00eeee" points="493.0986,-203.0373 483.7675,-198.0193 487.9327,-207.7611 493.0986,-203.0373"/>
<text text-anchor="middle" x="525.8903" y="-321.6" font-family="Times,serif" font-size="14.00" fill="#000000">arg 0</text>
</g>
<!-- node_36 -->
<g id="node42" class="node">
<title>node_36</title>
<polygon fill="#ff4500" stroke="#000000" points="483.7617,-416.8 261.6437,-416.8 261.6437,-380.8 483.7617,-380.8 483.7617,-416.8"/>
<text text-anchor="middle" x="372.7027" y="-394.6" font-family="Times,serif" font-size="14.00" fill="#000000">36 LineNumberDebugInfo : line #16</text>
</g>
<!-- node_35&#45;&gt;node_36 -->
<g id="edge45" class="edge">
<title>node_35-&gt;node_36</title>
<path fill="none" stroke="#ff0000" stroke-width="2" d="M372.7027,-488.4793C372.7027,-471.621 372.7027,-446.3651 372.7027,-426.947"/>
<polygon fill="#ff0000" stroke="#ff0000" stroke-width="2" points="376.2028,-426.8501 372.7027,-416.8502 369.2028,-426.8502 376.2028,-426.8501"/>
</g>
<!-- node_36&#45;&gt;node_39 -->
<g id="edge46" class="edge">
<title>node_36-&gt;node_39</title>
<path fill="none" stroke="#ff0000" stroke-width="2" d="M381.3544,-380.7551C385.3508,-372.4196 390.1828,-362.3416 394.6117,-353.1042"/>
<polygon fill="#ff0000" stroke="#ff0000" stroke-width="2" points="397.8619,-354.4207 399.0292,-343.8904 391.5499,-351.3944 397.8619,-354.4207"/>
</g>
<!-- node_37 -->
<g id="node43" class="node">
<title>node_37</title>
<polygon fill="#ffb90f" stroke="#000000" points="160.7027,-1863.6 44.4312,-1845.6 160.7027,-1827.6 276.9742,-1845.6 160.7027,-1863.6"/>
<text text-anchor="middle" x="160.7027" y="-1841.4" font-family="Times,serif" font-size="14.00" fill="#000000">37 PrimitiveInt : 1</text>
</g>
<!-- node_37&#45;&gt;node_38 -->
<g id="edge48" class="edge">
<title>node_37-&gt;node_38</title>
<path fill="none" stroke="#00eeee" d="M121.6088,-1833.4421C110.5239,-1827.9862 99.7373,-1820.2923 93.3275,-1809.6 89.0192,-1802.4133 87.8354,-1793.6273 88.094,-1785.3003"/>
<polygon fill="#00eeee" stroke="#00eeee" points="91.5965,-1785.4415 89.0665,-1775.1532 84.6284,-1784.7736 91.5965,-1785.4415"/>
<text text-anchor="middle" x="107.8903" y="-1797" font-family="Times,serif" font-size="14.00" fill="#000000">arg 1</text>
</g>
<!-- node_38&#45;&gt;node_39 -->
<g id="edge49" class="edge">
<title>node_38-&gt;node_39</title>
<path fill="none" stroke="#00eeee" d="M93.3808,-1738.7728C93.0885,-1720.8323 92.7027,-1692.5141 92.7027,-1668 92.7027,-1668 92.7027,-1668 92.7027,-398.8 92.7027,-343.7771 277.4088,-330.2166 363.9447,-326.8827"/>
<polygon fill="#00eeee" stroke="#00eeee" points="364.1232,-330.3787 373.9922,-326.5247 363.8739,-323.3831 364.1232,-330.3787"/>
<text text-anchor="middle" x="106.8903" y="-1054.6" font-family="Times,serif" font-size="14.00" fill="#000000">arg 0</text>
</g>
<!-- node_40&#45;&gt;node_47 -->
<g id="edge51" class="edge">
<title>node_40-&gt;node_47</title>
<path fill="none" stroke="#ff0000" stroke-width="2" d="M439.3656,-234.7551C442.9053,-226.4196 447.185,-216.3416 451.1078,-207.1042"/>
<polygon fill="#ff0000" stroke="#ff0000" stroke-width="2" points="454.3333,-208.4629 455.0205,-197.8904 447.8901,-205.7267 454.3333,-208.4629"/>
</g>
<!-- node_43 -->
<g id="node47" class="node">
<title>node_43</title>
<polygon fill="#ff4500" stroke="#000000" points="692.6087,-1165.6 558.7967,-1165.6 558.7967,-1129.6 692.6087,-1129.6 692.6087,-1165.6"/>
<text text-anchor="middle" x="625.7027" y="-1143.4" font-family="Times,serif" font-size="14.00" fill="#000000">43 FrameDebugInfo </text>
</g>
<!-- node_42&#45;&gt;node_43 -->
<g id="edge53" class="edge">
<title>node_42-&gt;node_43</title>
<path fill="none" stroke="#ff0000" stroke-width="2" d="M603.1184,-1202.5551C606.5079,-1194.3074 610.5985,-1184.3536 614.3618,-1175.1962"/>
<polygon fill="#ff0000" stroke="#ff0000" stroke-width="2" points="617.7044,-1176.2702 618.2683,-1165.6904 611.2298,-1173.6094 617.7044,-1176.2702"/>
</g>
<!-- node_44 -->
<g id="node48" class="node">
<title>node_44</title>
<polygon fill="#ff4500" stroke="#000000" points="691.3052,-1076.8 616.1002,-1076.8 616.1002,-1040.8 691.3052,-1040.8 691.3052,-1076.8"/>
<text text-anchor="middle" x="653.7027" y="-1054.6" font-family="Times,serif" font-size="14.00" fill="#000000">44 Return </text>
</g>
<!-- node_43&#45;&gt;node_44 -->
<g id="edge54" class="edge">
<title>node_43-&gt;node_44</title>
<path fill="none" stroke="#ff0000" stroke-width="2" d="M631.5043,-1129.2006C635.397,-1116.8552 640.5954,-1100.3689 644.983,-1086.4539"/>
<polygon fill="#ff0000" stroke="#ff0000" stroke-width="2" points="648.335,-1087.4617 648.0043,-1076.872 641.6591,-1085.3566 648.335,-1087.4617"/>
</g>
</g>
</svg>