<?xml version="1.0" encoding="UTF-8" standalone="no"?><!DOCTYPE svg PUBLIC "-//W3C//DTD SVG 1.1//EN" "http://www.w3.org/Graphics/SVG/1.1/DTD/svg11.dtd"><!-- Generated by graphviz version 2.40.1 (20161225.0304)
 --><!-- Title: debugoutput Pages: 1 --><svg xmlns="http://www.w3.org/2000/svg" xmlns:xlink="http://www.w3.org/1999/xlink" width="1169pt" height="1979pt" viewBox="0.00 0.00 1169.06 1979.20">
<g id="graph0" class="graph" transform="scale(1 1) rotate(0) translate(4 1975.2)">
<title>debugoutput</title>
<polygon fill="#ffffff" stroke="transparent" points="-4,4 -4,-1975.2 1165.057,-1975.2 1165.057,4 -4,4"/>
<!-- node_0 -->
<g id="node1" class="node">
<title>node_0</title>
<polygon fill="#ff4500" stroke="#000000" points="635.6453,-1971.2 538.8835,-1971.2 538.8835,-1935.2 635.6453,-1935.2 635.6453,-1971.2"/>
<text text-anchor="middle" x="587.2644" y="-1949" font-family="Times,serif" font-size="14.00" fill="#000000">0 Region Start</text>
</g>
<!-- node_2 -->
<g id="node2" class="node">
<title>node_2</title>
<polygon fill="#ff4500" stroke="#000000" points="658.2588,-1898.2 516.27,-1898.2 516.27,-1862.2 658.2588,-1862.2 658.2588,-1898.2"/>
<text text-anchor="middle" x="587.2644" y="-1876" font-family="Times,serif" font-size="14.00" fill="#000000">2 Region L572593338</text>
</g>
<!-- node_0&#45;&gt;node_2 -->
<g id="edge1" class="edge">
<title>node_0-&gt;node_2</title>
<path fill="none" stroke="#ff0000" stroke-width="2" d="M587.2644,-1935.1551C587.2644,-1927.0828 587.2644,-1917.3764 587.2644,-1908.3817"/>
<polygon fill="#ff0000" stroke="#ff0000" stroke-width="2" points="590.7645,-1908.2903 587.2644,-1898.2904 583.7645,-1908.2904 590.7645,-1908.2903"/>
</g>
<!-- node_3 -->
<g id="node4" class="node">
<title>node_3</title>
<polygon fill="#ff4500" stroke="#000000" points="694.8234,-1825.2 479.7054,-1825.2 479.7054,-1789.2 694.8234,-1789.2 694.8234,-1825.2"/>
<text text-anchor="middle" x="587.2644" y="-1803" font-family="Times,serif" font-size="14.00" fill="#000000">3 LineNumberDebugInfo : line #27</text>
</g>
<!-- node_2&#45;&gt;node_3 -->
<g id="edge2" class="edge">
<title>node_2-&gt;node_3</title>
<path fill="none" stroke="#ff0000" stroke-width="2" d="M587.2644,-1862.1551C587.2644,-1854.0828 587.2644,-1844.3764 587.2644,-1835.3817"/>
<polygon fill="#ff0000" stroke="#ff0000" stroke-width="2" points="590.7645,-1835.2903 587.2644,-1825.2904 583.7645,-1835.2904 590.7645,-1835.2903"/>
</g>
<!-- node_1 -->
<g id="node3" class="node">
<title>node_1</title>
<polygon fill="#ffb90f" stroke="#000000" points="861.2644,-1679.2 713.2915,-1661.2 861.2644,-1643.2 1009.2373,-1661.2 861.2644,-1679.2"/>
<text text-anchor="middle" x="861.2644" y="-1657" font-family="Times,serif" font-size="14.00" fill="#000000">1 MethodArgument : #0</text>
</g>
<!-- node_34 -->
<g id="node7" class="node">
<title>node_34</title>
<polygon fill="#ff4500" stroke="#000000" points="759.1018,-1590.4 691.427,-1590.4 691.427,-1554.4 759.1018,-1554.4 759.1018,-1590.4"/>
<text text-anchor="middle" x="725.2644" y="-1568.2" font-family="Times,serif" font-size="14.00" fill="#000000">34 Copy </text>
</g>
<!-- node_1&#45;&gt;node_34 -->
<g id="edge43" class="edge">
<title>node_1-&gt;node_34</title>
<path fill="none" stroke="#00eeee" d="M837.8852,-1645.9347C816.9169,-1632.2437 785.8142,-1611.9355 761.6043,-1596.1278"/>
<polygon fill="#00eeee" stroke="#00eeee" points="763.3149,-1593.0647 753.0282,-1590.5281 759.4878,-1598.926 763.3149,-1593.0647"/>
<text text-anchor="middle" x="819.452" y="-1612.6" font-family="Times,serif" font-size="14.00" fill="#000000">arg 0</text>
</g>
<!-- node_21 -->
<g id="node28" class="node">
<title>node_21</title>
<polygon fill="#00eeee" stroke="#000000" points="349.1068,-1128.4 324.6856,-1146.4 275.8432,-1146.4 251.422,-1128.4 275.8432,-1110.4 324.6856,-1110.4 349.1068,-1128.4"/>
<text text-anchor="middle" x="300.2644" y="-1124.2" font-family="Times,serif" font-size="14.00" fill="#000000">21 Add </text>
</g>
<!-- node_1&#45;&gt;node_21 -->
<g id="edge28" class="edge">
<title>node_1-&gt;node_21</title>
<path fill="none" stroke="#00eeee" d="M861.2644,-1643.1721C861.2644,-1625.2311 861.2644,-1596.9125 861.2644,-1572.4 861.2644,-1572.4 861.2644,-1572.4 861.2644,-1217.2 861.2644,-1166.454 498.5382,-1139.9018 356.4194,-1131.4461"/>
<polygon fill="#00eeee" stroke="#00eeee" points="356.3612,-1127.9367 346.1734,-1130.8451 355.9513,-1134.9247 356.3612,-1127.9367"/>
<text text-anchor="middle" x="875.452" y="-1390.6" font-family="Times,serif" font-size="14.00" fill="#000000">arg 1</text>
</g>
<!-- node_4 -->
<g id="node5" class="node">
<title>node_4</title>
<polygon fill="#ff4500" stroke="#000000" points="658.2588,-1752.2 516.27,-1752.2 516.27,-1716.2 658.2588,-1716.2 658.2588,-1752.2"/>
<text text-anchor="middle" x="587.2644" y="-1730" font-family="Times,serif" font-size="14.00" fill="#000000">4 Region L384294141</text>
</g>
<!-- node_3&#45;&gt;node_4 -->
<g id="edge3" class="edge">
<title>node_3-&gt;node_4</title>
<path fill="none" stroke="#ff0000" stroke-width="2" d="M587.2644,-1789.1551C587.2644,-1781.0828 587.2644,-1771.3764 587.2644,-1762.3817"/>
<polygon fill="#ff0000" stroke="#ff0000" stroke-width="2" points="590.7645,-1762.2903 587.2644,-1752.2904 583.7645,-1762.2904 590.7645,-1762.2903"/>
</g>
<!-- node_5 -->
<g id="node6" class="node">
<title>node_5</title>
<polygon fill="#ff4500" stroke="#000000" points="694.8234,-1679.2 479.7054,-1679.2 479.7054,-1643.2 694.8234,-1643.2 694.8234,-1679.2"/>
<text text-anchor="middle" x="587.2644" y="-1657" font-family="Times,serif" font-size="14.00" fill="#000000">5 LineNumberDebugInfo : line #28</text>
</g>
<!-- node_4&#45;&gt;node_5 -->
<g id="edge4" class="edge">
<title>node_4-&gt;node_5</title>
<path fill="none" stroke="#ff0000" stroke-width="2" d="M587.2644,-1716.1551C587.2644,-1708.0828 587.2644,-1698.3764 587.2644,-1689.3817"/>
<polygon fill="#ff0000" stroke="#ff0000" stroke-width="2" points="590.7645,-1689.2903 587.2644,-1679.2904 583.7645,-1689.2904 590.7645,-1689.2903"/>
</g>
<!-- node_5&#45;&gt;node_34 -->
<g id="edge5" class="edge">
<title>node_5-&gt;node_34</title>
<path fill="none" stroke="#ff0000" stroke-width="2" d="M615.5238,-1643.0157C636.6402,-1629.4277 665.688,-1610.7361 688.5939,-1595.9966"/>
<polygon fill="#ff0000" stroke="#ff0000" stroke-width="2" points="690.5274,-1598.9146 697.0428,-1590.56 686.7394,-1593.028 690.5274,-1598.9146"/>
</g>
<!-- node_7 -->
<g id="node9" class="node">
<title>node_7</title>
<polygon fill="#00eeee" stroke="#000000" points="399.6727,-1483.6 373.9686,-1501.6 322.5602,-1501.6 296.8561,-1483.6 322.5602,-1465.6 373.9686,-1465.6 399.6727,-1483.6"/>
<text text-anchor="middle" x="348.2644" y="-1479.4" font-family="Times,serif" font-size="14.00" fill="#000000">7 PHI : I</text>
</g>
<!-- node_34&#45;&gt;node_7 -->
<g id="edge6" class="edge">
<title>node_34-&gt;node_7</title>
<path fill="none" stroke="#00eeee" d="M691.4764,-1564.4414C624.4518,-1548.6542 474.4607,-1513.3248 396.8544,-1495.0451"/>
<polygon fill="#00eeee" stroke="#00eeee" points="397.3892,-1491.5753 386.8531,-1492.6893 395.7842,-1498.3889 397.3892,-1491.5753"/>
<text text-anchor="middle" x="584.452" y="-1523.8" font-family="Times,serif" font-size="14.00" fill="#000000">arg 0</text>
</g>
<!-- node_35 -->
<g id="node13" class="node">
<title>node_35</title>
<polygon fill="#ff4500" stroke="#000000" points="842.1018,-772 774.427,-772 774.427,-736 842.1018,-736 842.1018,-772"/>
<text text-anchor="middle" x="808.2644" y="-749.8" font-family="Times,serif" font-size="14.00" fill="#000000">35 Copy </text>
</g>
<!-- node_34&#45;&gt;node_35 -->
<g id="edge44" class="edge">
<title>node_34-&gt;node_35</title>
<path fill="none" stroke="#ff0000" stroke-width="2" d="M759.0331,-1556.1196C784.571,-1541.1878 815.2644,-1516.4156 815.2644,-1483.6 815.2644,-1483.6 815.2644,-1483.6 815.2644,-842.8 815.2644,-822.5657 813.4358,-799.8178 811.6478,-782.4117"/>
<polygon fill="#ff0000" stroke="#ff0000" stroke-width="2" points="815.1129,-781.8994 810.5565,-772.3344 808.1536,-782.6531 815.1129,-781.8994"/>
</g>
<!-- node_6 -->
<g id="node8" class="node">
<title>node_6</title>
<polygon fill="#ffb90f" stroke="#000000" points="678.2644,-860.8 569.1497,-842.8 678.2644,-824.8 787.3791,-842.8 678.2644,-860.8"/>
<text text-anchor="middle" x="678.2644" y="-838.6" font-family="Times,serif" font-size="14.00" fill="#000000">6 PrimitiveInt : 0</text>
</g>
<!-- node_6&#45;&gt;node_35 -->
<g id="edge45" class="edge">
<title>node_6-&gt;node_35</title>
<path fill="none" stroke="#00eeee" d="M699.7313,-828.1365C719.7706,-814.4481 750.0267,-793.7808 773.5072,-777.7418"/>
<polygon fill="#00eeee" stroke="#00eeee" points="775.5366,-780.5943 781.8199,-772.0636 771.5882,-774.814 775.5366,-780.5943"/>
<text text-anchor="middle" x="768.452" y="-794.2" font-family="Times,serif" font-size="14.00" fill="#000000">arg 0</text>
</g>
<!-- node_17 -->
<g id="node22" class="node">
<title>node_17</title>
<polygon fill="#ff4500" stroke="#000000" points="189.1018,-1412.8 121.427,-1412.8 121.427,-1376.8 189.1018,-1376.8 189.1018,-1412.8"/>
<text text-anchor="middle" x="155.2644" y="-1390.6" font-family="Times,serif" font-size="14.00" fill="#000000">17 Copy </text>
</g>
<!-- node_7&#45;&gt;node_17 -->
<g id="edge20" class="edge">
<title>node_7-&gt;node_17</title>
<path fill="none" stroke="#00eeee" d="M316.8261,-1469.1351C284.567,-1454.2926 234.1508,-1431.0959 198.2224,-1414.5651"/>
<polygon fill="#00eeee" stroke="#00eeee" points="199.5084,-1411.3042 188.9609,-1410.3039 196.5825,-1417.6634 199.5084,-1411.3042"/>
<text text-anchor="middle" x="282.452" y="-1435" font-family="Times,serif" font-size="14.00" fill="#000000">arg 0</text>
</g>
<!-- node_33 -->
<g id="node37" class="node">
<title>node_33</title>
<polygon fill="#ff4500" stroke="#000000" points="108.2942,-36 .2346,-36 .2346,0 108.2942,0 108.2942,-36"/>
<text text-anchor="middle" x="54.2644" y="-13.8" font-family="Times,serif" font-size="14.00" fill="#000000">33 ReturnValue </text>
</g>
<!-- node_7&#45;&gt;node_33 -->
<g id="edge42" class="edge">
<title>node_7-&gt;node_33</title>
<path fill="none" stroke="#00eeee" d="M302.1218,-1479.8438C216.6379,-1471.6054 42.2644,-1448.2498 42.2644,-1394.8 42.2644,-1394.8 42.2644,-1394.8 42.2644,-91 42.2644,-76.1023 44.7279,-59.7182 47.4226,-46.2531"/>
<polygon fill="#00eeee" stroke="#00eeee" points="50.9114,-46.6765 49.5905,-36.1644 44.0677,-45.2058 50.9114,-46.6765"/>
<text text-anchor="middle" x="56.452" y="-705.4" font-family="Times,serif" font-size="14.00" fill="#000000">arg 0</text>
</g>
<!-- node_36 -->
<g id="node10" class="node">
<title>node_36</title>
<polygon fill="#ff4500" stroke="#000000" points="436.1018,-594.4 368.427,-594.4 368.427,-558.4 436.1018,-558.4 436.1018,-594.4"/>
<text text-anchor="middle" x="402.2644" y="-572.2" font-family="Times,serif" font-size="14.00" fill="#000000">36 Copy </text>
</g>
<!-- node_36&#45;&gt;node_7 -->
<g id="edge7" class="edge">
<title>node_36-&gt;node_7</title>
<path fill="none" stroke="#00eeee" d="M417.7935,-594.641C436.902,-617.94 469.1549,-660.1741 488.2644,-701.2 502.7902,-732.3852 541.2644,-878.0938 541.2644,-896.8 541.2644,-1394.8 541.2644,-1394.8 541.2644,-1394.8 541.2644,-1426.6368 453.4969,-1455.9172 396.3347,-1471.6111"/>
<polygon fill="#00eeee" stroke="#00eeee" points="395.1404,-1468.308 386.395,-1474.2886 396.9612,-1475.067 395.1404,-1468.308"/>
<text text-anchor="middle" x="555.452" y="-1035.4" font-family="Times,serif" font-size="14.00" fill="#000000">arg 1</text>
</g>
<!-- node_9 -->
<g id="node14" class="node">
<title>node_9</title>
<polygon fill="#ff4500" stroke="#000000" points="665.7588,-505.6 516.77,-505.6 516.77,-469.6 665.7588,-469.6 665.7588,-505.6"/>
<text text-anchor="middle" x="591.2644" y="-483.4" font-family="Times,serif" font-size="14.00" fill="#000000">9 Region L1024597427</text>
</g>
<!-- node_36&#45;&gt;node_9 -->
<g id="edge48" class="edge">
<title>node_36-&gt;node_9</title>
<path fill="none" stroke="#ff0000" stroke-width="2" stroke-dasharray="5,2" d="M436.0538,-560.5243C466.0433,-546.4341 510.1788,-525.6974 543.7267,-509.9352"/>
<polygon fill="#ff0000" stroke="#ff0000" stroke-width="2" points="545.3251,-513.0513 552.8876,-505.631 542.3484,-506.7157 545.3251,-513.0513"/>
</g>
<!-- node_8 -->
<g id="node11" class="node">
<title>node_8</title>
<polygon fill="#00eeee" stroke="#000000" points="845.6727,-665.2 819.9686,-683.2 768.5602,-683.2 742.8561,-665.2 768.5602,-647.2 819.9686,-647.2 845.6727,-665.2"/>
<text text-anchor="middle" x="794.2644" y="-661" font-family="Times,serif" font-size="14.00" fill="#000000">8 PHI : I</text>
</g>
<!-- node_13 -->
<g id="node18" class="node">
<title>node_13</title>
<polygon fill="#00eeee" stroke="#000000" points="1133.7142,-576.4 1075.4893,-594.4 959.0395,-594.4 900.8146,-576.4 959.0395,-558.4 1075.4893,-558.4 1133.7142,-576.4"/>
<text text-anchor="middle" x="1017.2644" y="-572.2" font-family="Times,serif" font-size="14.00" fill="#000000">13 NumericalTest : GE</text>
</g>
<!-- node_8&#45;&gt;node_13 -->
<g id="edge15" class="edge">
<title>node_8-&gt;node_13</title>
<path fill="none" stroke="#00eeee" d="M827.1688,-652.0973C862.7618,-637.9239 920.0953,-615.0933 962.5018,-598.2068"/>
<polygon fill="#00eeee" stroke="#00eeee" points="963.8558,-601.435 971.8514,-594.4837 961.266,-594.9317 963.8558,-601.435"/>
<text text-anchor="middle" x="939.452" y="-616.6" font-family="Times,serif" font-size="14.00" fill="#000000">arg 0</text>
</g>
<!-- node_19 -->
<g id="node24" class="node">
<title>node_19</title>
<polygon fill="#ff4500" stroke="#000000" points="265.1018,-594.4 197.427,-594.4 197.427,-558.4 265.1018,-558.4 265.1018,-594.4"/>
<text text-anchor="middle" x="231.2644" y="-572.2" font-family="Times,serif" font-size="14.00" fill="#000000">19 Copy </text>
</g>
<!-- node_8&#45;&gt;node_19 -->
<g id="edge23" class="edge">
<title>node_8-&gt;node_19</title>
<path fill="none" stroke="#00eeee" d="M759.0256,-653.8112C737.7823,-646.8669 710.2153,-637.7165 685.8892,-629.2 665.4943,-622.0598 661.4056,-616.8706 640.2644,-612.4 517.8271,-586.5092 483.7609,-607.1226 359.2644,-594.4 331.2331,-591.5354 299.9064,-587.1506 275.2605,-583.426"/>
<polygon fill="#00eeee" stroke="#00eeee" points="275.5505,-579.9297 265.136,-581.8765 274.4914,-586.8491 275.5505,-579.9297"/>
<text text-anchor="middle" x="699.452" y="-616.6" font-family="Times,serif" font-size="14.00" fill="#000000">arg 0</text>
</g>
<!-- node_27 -->
<g id="node33" class="node">
<title>node_27</title>
<polygon fill="#00eeee" stroke="#000000" points="657.1068,-576.4 632.6856,-594.4 583.8432,-594.4 559.422,-576.4 583.8432,-558.4 632.6856,-558.4 657.1068,-576.4"/>
<text text-anchor="middle" x="608.2644" y="-572.2" font-family="Times,serif" font-size="14.00" fill="#000000">27 Add </text>
</g>
<!-- node_8&#45;&gt;node_27 -->
<g id="edge34" class="edge">
<title>node_8-&gt;node_27</title>
<path fill="none" stroke="#00eeee" d="M772.0665,-647.1896C757.4581,-636.008 737.5386,-621.9911 718.2644,-612.4 698.2579,-602.4445 674.8747,-594.3448 654.8242,-588.3673"/>
<polygon fill="#00eeee" stroke="#00eeee" points="655.558,-584.9362 644.9793,-585.5207 653.6135,-591.6608 655.558,-584.9362"/>
<text text-anchor="middle" x="760.452" y="-616.6" font-family="Times,serif" font-size="14.00" fill="#000000">arg 0</text>
</g>
<!-- node_28 -->
<g id="node12" class="node">
<title>node_28</title>
<polygon fill="#ff4500" stroke="#000000" points="439.1018,-772 371.427,-772 371.427,-736 439.1018,-736 439.1018,-772"/>
<text text-anchor="middle" x="405.2644" y="-749.8" font-family="Times,serif" font-size="14.00" fill="#000000">28 Copy </text>
</g>
<!-- node_28&#45;&gt;node_8 -->
<g id="edge8" class="edge">
<title>node_28-&gt;node_8</title>
<path fill="none" stroke="#00eeee" d="M438.982,-747.5822C498.6409,-736.0356 626.5771,-710.4151 733.2644,-683.2 738.2194,-681.936 743.378,-680.5403 748.5044,-679.1018"/>
<polygon fill="#00eeee" stroke="#00eeee" points="749.6118,-682.4254 758.2609,-676.3063 747.6837,-675.6962 749.6118,-682.4254"/>
<text text-anchor="middle" x="666.452" y="-705.4" font-family="Times,serif" font-size="14.00" fill="#000000">arg 0</text>
</g>
<!-- node_29 -->
<g id="node34" class="node">
<title>node_29</title>
<polygon fill="#ff4500" stroke="#000000" points="372.7616,-683.2 307.7672,-683.2 307.7672,-647.2 372.7616,-647.2 372.7616,-683.2"/>
<text text-anchor="middle" x="340.2644" y="-661" font-family="Times,serif" font-size="14.00" fill="#000000">29 Goto </text>
</g>
<!-- node_28&#45;&gt;node_29 -->
<g id="edge37" class="edge">
<title>node_28-&gt;node_29</title>
<path fill="none" stroke="#ff0000" stroke-width="2" d="M391.7964,-735.6006C382.4965,-722.8956 369.9866,-705.8051 359.6215,-691.6448"/>
<polygon fill="#ff0000" stroke="#ff0000" stroke-width="2" points="362.2236,-689.274 353.4928,-683.272 356.5751,-693.4086 362.2236,-689.274"/>
</g>
<!-- node_35&#45;&gt;node_8 -->
<g id="edge9" class="edge">
<title>node_35-&gt;node_8</title>
<path fill="none" stroke="#00eeee" d="M805.3636,-735.6006C803.4361,-723.375 800.8685,-707.0887 798.6883,-693.2599"/>
<polygon fill="#00eeee" stroke="#00eeee" points="802.1283,-692.6049 797.1136,-683.272 795.2137,-693.6951 802.1283,-692.6049"/>
<text text-anchor="middle" x="816.452" y="-705.4" font-family="Times,serif" font-size="14.00" fill="#000000">arg 1</text>
</g>
<!-- node_35&#45;&gt;node_9 -->
<g id="edge46" class="edge">
<title>node_35-&gt;node_9</title>
<path fill="none" stroke="#ff0000" stroke-width="2" d="M824.6102,-735.8605C847.8617,-707.7536 884.9667,-652.7213 859.2644,-612.4 819.1977,-549.5442 738.339,-517.8402 675.8663,-502.172"/>
<polygon fill="#ff0000" stroke="#ff0000" stroke-width="2" points="676.5488,-498.7363 666.0068,-499.7928 674.9067,-505.541 676.5488,-498.7363"/>
</g>
<!-- node_10 -->
<g id="node15" class="node">
<title>node_10</title>
<polygon fill="#ff4500" stroke="#000000" points="658.1704,-416.8 524.3584,-416.8 524.3584,-380.8 658.1704,-380.8 658.1704,-416.8"/>
<text text-anchor="middle" x="591.2644" y="-394.6" font-family="Times,serif" font-size="14.00" fill="#000000">10 FrameDebugInfo </text>
</g>
<!-- node_9&#45;&gt;node_10 -->
<g id="edge10" class="edge">
<title>node_9-&gt;node_10</title>
<path fill="none" stroke="#ff0000" stroke-width="2" d="M591.2644,-469.2006C591.2644,-457.0949 591.2644,-441.0076 591.2644,-427.2674"/>
<polygon fill="#ff0000" stroke="#ff0000" stroke-width="2" points="594.7645,-426.872 591.2644,-416.872 587.7645,-426.8721 594.7645,-426.872"/>
</g>
<!-- node_12 -->
<g id="node16" class="node">
<title>node_12</title>
<polygon fill="#ff4500" stroke="#000000" points="618.2644,-343.8 564.2644,-343.8 564.2644,-307.8 618.2644,-307.8 618.2644,-343.8"/>
<text text-anchor="middle" x="591.2644" y="-321.6" font-family="Times,serif" font-size="14.00" fill="#000000">12 If </text>
</g>
<!-- node_10&#45;&gt;node_12 -->
<g id="edge11" class="edge">
<title>node_10-&gt;node_12</title>
<path fill="none" stroke="#ff0000" stroke-width="2" d="M591.2644,-380.7551C591.2644,-372.6828 591.2644,-362.9764 591.2644,-353.9817"/>
<polygon fill="#ff0000" stroke="#ff0000" stroke-width="2" points="594.7645,-353.8903 591.2644,-343.8904 587.7645,-353.8904 594.7645,-353.8903"/>
</g>
<!-- node_30 -->
<g id="node19" class="node">
<title>node_30</title>
<polygon fill="#ff4500" stroke="#000000" points="499.2588,-255 343.27,-255 343.27,-219 499.2588,-219 499.2588,-255"/>
<text text-anchor="middle" x="421.2644" y="-232.8" font-family="Times,serif" font-size="14.00" fill="#000000">30 Region L1277009227</text>
</g>
<!-- node_12&#45;&gt;node_30 -->
<g id="edge13" class="edge">
<title>node_12-&gt;node_30</title>
<path fill="none" stroke="#ff0000" stroke-width="2" d="M563.951,-311.5327C537.2129,-297.5661 496.0555,-276.0674 464.8024,-259.7422"/>
<polygon fill="#ff0000" stroke="#ff0000" stroke-width="2" points="466.3443,-256.5989 455.8601,-255.0712 463.1033,-262.8034 466.3443,-256.5989"/>
<text text-anchor="middle" x="539.5386" y="-277.2" font-family="Times,serif" font-size="14.00" fill="#000000">TRUE</text>
</g>
<!-- node_14 -->
<g id="node20" class="node">
<title>node_14</title>
<polygon fill="#ff4500" stroke="#000000" points="665.7588,-255 516.77,-255 516.77,-219 665.7588,-219 665.7588,-255"/>
<text text-anchor="middle" x="591.2644" y="-232.8" font-family="Times,serif" font-size="14.00" fill="#000000">14 Region L296347592</text>
</g>
<!-- node_12&#45;&gt;node_14 -->
<g id="edge14" class="edge">
<title>node_12-&gt;node_14</title>
<path fill="none" stroke="#ff0000" stroke-width="2" d="M591.2644,-307.4006C591.2644,-295.2949 591.2644,-279.2076 591.2644,-265.4674"/>
<polygon fill="#ff0000" stroke="#ff0000" stroke-width="2" points="594.7645,-265.072 591.2644,-255.072 587.7645,-265.0721 594.7645,-265.072"/>
<text text-anchor="middle" x="612.6529" y="-277.2" font-family="Times,serif" font-size="14.00" fill="#000000">FALSE</text>
</g>
<!-- node_11 -->
<g id="node17" class="node">
<title>node_11</title>
<polygon fill="#ffb90f" stroke="#000000" points="1031.2644,-683.2 901.6788,-665.2 1031.2644,-647.2 1160.85,-665.2 1031.2644,-683.2"/>
<text text-anchor="middle" x="1031.2644" y="-661" font-family="Times,serif" font-size="14.00" fill="#000000">11 PrimitiveInt : 100</text>
</g>
<!-- node_11&#45;&gt;node_13 -->
<g id="edge16" class="edge">
<title>node_11-&gt;node_13</title>
<path fill="none" stroke="#00eeee" d="M1028.4313,-647.23C1026.5085,-635.0338 1023.9261,-618.6543 1021.7291,-604.7187"/>
<polygon fill="#00eeee" stroke="#00eeee" points="1025.1561,-603.981 1020.1413,-594.6481 1018.2415,-605.0712 1025.1561,-603.981"/>
<text text-anchor="middle" x="1039.452" y="-616.6" font-family="Times,serif" font-size="14.00" fill="#000000">arg 1</text>
</g>
<!-- node_13&#45;&gt;node_12 -->
<g id="edge12" class="edge">
<title>node_13-&gt;node_12</title>
<path fill="none" stroke="#00eeee" d="M986.6275,-558.3775C909.8419,-513.2073 709.4581,-395.329 627.2507,-346.9694"/>
<polygon fill="#00eeee" stroke="#00eeee" points="628.6803,-343.7498 618.2864,-341.6961 625.131,-349.7832 628.6803,-343.7498"/>
<text text-anchor="middle" x="818.452" y="-439" font-family="Times,serif" font-size="14.00" fill="#000000">arg 0</text>
</g>
<!-- node_31 -->
<g id="node35" class="node">
<title>node_31</title>
<polygon fill="#ff4500" stroke="#000000" points="532.3234,-182 310.2054,-182 310.2054,-146 532.3234,-146 532.3234,-182"/>
<text text-anchor="middle" x="421.2644" y="-159.8" font-family="Times,serif" font-size="14.00" fill="#000000">31 LineNumberDebugInfo : line #31</text>
</g>
<!-- node_30&#45;&gt;node_31 -->
<g id="edge39" class="edge">
<title>node_30-&gt;node_31</title>
<path fill="none" stroke="#ff0000" stroke-width="2" d="M421.2644,-218.9551C421.2644,-210.8828 421.2644,-201.1764 421.2644,-192.1817"/>
<polygon fill="#ff0000" stroke="#ff0000" stroke-width="2" points="424.7645,-192.0903 421.2644,-182.0904 417.7645,-192.0904 424.7645,-192.0903"/>
</g>
<!-- node_15 -->
<g id="node21" class="node">
<title>node_15</title>
<polygon fill="#ff4500" stroke="#000000" points="292.3234,-182 70.2054,-182 70.2054,-146 292.3234,-146 292.3234,-182"/>
<text text-anchor="middle" x="181.2644" y="-159.8" font-family="Times,serif" font-size="14.00" fill="#000000">15 LineNumberDebugInfo : line #29</text>
</g>
<!-- node_14&#45;&gt;node_15 -->
<g id="edge17" class="edge">
<title>node_14-&gt;node_15</title>
<path fill="none" stroke="#ff0000" stroke-width="2" d="M516.6416,-220.6438C513.8153,-220.0793 511.0154,-219.5294 508.2644,-219 440.3897,-205.9394 364.2529,-193.0316 302.5343,-183.0062"/>
<polygon fill="#ff0000" stroke="#ff0000" stroke-width="2" points="302.7956,-179.503 292.3646,-181.3591 301.6764,-186.413 302.7956,-179.503"/>
</g>
<!-- node_15&#45;&gt;node_17 -->
<g id="edge18" class="edge">
<title>node_15-&gt;node_17</title>
<path fill="none" stroke="#ff0000" stroke-width="2" d="M129.8919,-182.0681C107.0671,-193.6791 85.2644,-211.4557 85.2644,-237 85.2644,-1306 85.2644,-1306 85.2644,-1306 85.2644,-1331.365 103.0971,-1353.7471 120.7611,-1369.6955"/>
<polygon fill="#ff0000" stroke="#ff0000" stroke-width="2" points="118.9222,-1372.7276 128.8004,-1376.5581 123.467,-1367.4036 118.9222,-1372.7276"/>
</g>
<!-- node_16 -->
<g id="node23" class="node">
<title>node_16</title>
<ellipse fill="#00eeee" stroke="#000000" cx="218.2644" cy="-1306" rx="67.1535" ry="18"/>
<text text-anchor="middle" x="218.2644" y="-1301.8" font-family="Times,serif" font-size="14.00" fill="#000000">16 Variable : I</text>
</g>
<!-- node_17&#45;&gt;node_16 -->
<g id="edge19" class="edge">
<title>node_17-&gt;node_16</title>
<path fill="none" stroke="#00eeee" d="M168.318,-1376.4006C177.3914,-1363.6115 189.6175,-1346.3785 199.7022,-1332.1638"/>
<polygon fill="#00eeee" stroke="#00eeee" points="202.7256,-1333.951 205.6574,-1323.7699 197.0165,-1329.9006 202.7256,-1333.951"/>
<text text-anchor="middle" x="206.452" y="-1346.2" font-family="Times,serif" font-size="14.00" fill="#000000">arg 0</text>
</g>
<!-- node_17&#45;&gt;node_19 -->
<g id="edge21" class="edge">
<title>node_17-&gt;node_19</title>
<path fill="none" stroke="#ff0000" stroke-width="2" d="M144.6089,-1376.7738C135.3,-1359.2977 123.2644,-1331.7278 123.2644,-1306 123.2644,-1306 123.2644,-1306 123.2644,-665.2 123.2644,-630.0446 157.8295,-606.2458 187.8509,-592.2054"/>
<polygon fill="#ff0000" stroke="#ff0000" stroke-width="2" points="189.6586,-595.233 197.3888,-587.9877 186.8276,-588.831 189.6586,-595.233"/>
</g>
<!-- node_20 -->
<g id="node27" class="node">
<title>node_20</title>
<polygon fill="#00eeee" stroke="#000000" points="267.1068,-1217.2 242.6856,-1235.2 193.8432,-1235.2 169.422,-1217.2 193.8432,-1199.2 242.6856,-1199.2 267.1068,-1217.2"/>
<text text-anchor="middle" x="218.2644" y="-1213" font-family="Times,serif" font-size="14.00" fill="#000000">20 Add </text>
</g>
<!-- node_16&#45;&gt;node_20 -->
<g id="edge25" class="edge">
<title>node_16-&gt;node_20</title>
<path fill="none" stroke="#00eeee" d="M218.2644,-1287.6006C218.2644,-1275.4949 218.2644,-1259.4076 218.2644,-1245.6674"/>
<polygon fill="#00eeee" stroke="#00eeee" points="221.7645,-1245.272 218.2644,-1235.272 214.7645,-1245.2721 221.7645,-1245.272"/>
<text text-anchor="middle" x="232.452" y="-1257.4" font-family="Times,serif" font-size="14.00" fill="#000000">arg 0</text>
</g>
<!-- node_18 -->
<g id="node25" class="node">
<title>node_18</title>
<ellipse fill="#00eeee" stroke="#000000" cx="191.2644" cy="-487.6" rx="67.1535" ry="18"/>
<text text-anchor="middle" x="191.2644" y="-483.4" font-family="Times,serif" font-size="14.00" fill="#000000">18 Variable : I</text>
</g>
<!-- node_19&#45;&gt;node_18 -->
<g id="edge22" class="edge">
<title>node_19-&gt;node_18</title>
<path fill="none" stroke="#00eeee" d="M222.9764,-558.0006C217.3614,-545.5353 209.8448,-528.8484 203.5389,-514.8494"/>
<polygon fill="#00eeee" stroke="#00eeee" points="206.7033,-513.3522 199.4049,-505.672 200.3209,-516.2272 206.7033,-513.3522"/>
<text text-anchor="middle" x="228.452" y="-527.8" font-family="Times,serif" font-size="14.00" fill="#000000">arg 0</text>
</g>
<!-- node_23 -->
<g id="node26" class="node">
<title>node_23</title>
<polygon fill="#ff4500" stroke="#000000" points="334.1018,-1057.6 266.427,-1057.6 266.427,-1021.6 334.1018,-1021.6 334.1018,-1057.6"/>
<text text-anchor="middle" x="300.2644" y="-1035.4" font-family="Times,serif" font-size="14.00" fill="#000000">23 Copy </text>
</g>
<!-- node_19&#45;&gt;node_23 -->
<g id="edge24" class="edge">
<title>node_19-&gt;node_23</title>
<path fill="none" stroke="#ff0000" stroke-width="2" d="M229.3329,-594.4038C227.5789,-612.3265 225.2644,-640.6316 225.2644,-665.2 225.2644,-950.8 225.2644,-950.8 225.2644,-950.8 225.2644,-976.9326 244.4564,-999.3497 263.4235,-1015.1232"/>
<polygon fill="#ff0000" stroke="#ff0000" stroke-width="2" points="261.4598,-1018.0317 271.4819,-1021.468 265.7902,-1012.5318 261.4598,-1018.0317"/>
</g>
<!-- node_18&#45;&gt;node_20 -->
<g id="edge26" class="edge">
<title>node_18-&gt;node_20</title>
<path fill="none" stroke="#00eeee" d="M184.0608,-505.6439C177.6446,-523.3611 169.2644,-551.3053 169.2644,-576.4 169.2644,-1128.4 169.2644,-1128.4 169.2644,-1128.4 169.2644,-1151.4912 182.1229,-1174.2274 194.6659,-1190.9128"/>
<polygon fill="#00eeee" stroke="#00eeee" points="192.1695,-1193.3976 201.1266,-1199.0564 197.6534,-1189.047 192.1695,-1193.3976"/>
<text text-anchor="middle" x="183.452" y="-838.6" font-family="Times,serif" font-size="14.00" fill="#000000">arg 1</text>
</g>
<!-- node_22 -->
<g id="node29" class="node">
<title>node_22</title>
<ellipse fill="#00eeee" stroke="#000000" cx="307.2644" cy="-896.8" rx="67.1535" ry="18"/>
<text text-anchor="middle" x="307.2644" y="-892.6" font-family="Times,serif" font-size="14.00" fill="#000000">22 Variable : I</text>
</g>
<!-- node_23&#45;&gt;node_22 -->
<g id="edge29" class="edge">
<title>node_23-&gt;node_22</title>
<path fill="none" stroke="#00eeee" d="M301.151,-1021.5143C302.3384,-997.2908 304.4582,-954.0461 305.863,-925.3888"/>
<polygon fill="#00eeee" stroke="#00eeee" points="309.369,-925.3493 306.3629,-915.1899 302.3774,-925.0065 309.369,-925.3493"/>
<text text-anchor="middle" x="316.452" y="-991" font-family="Times,serif" font-size="14.00" fill="#000000">arg 0</text>
</g>
<!-- node_24 -->
<g id="node30" class="node">
<title>node_24</title>
<polygon fill="#ff4500" stroke="#000000" points="476.7588,-968.8 327.77,-968.8 327.77,-932.8 476.7588,-932.8 476.7588,-968.8"/>
<text text-anchor="middle" x="402.2644" y="-946.6" font-family="Times,serif" font-size="14.00" fill="#000000">24 Region L315932542</text>
</g>
<!-- node_23&#45;&gt;node_24 -->
<g id="edge31" class="edge">
<title>node_23-&gt;node_24</title>
<path fill="none" stroke="#ff0000" stroke-width="2" d="M321.3989,-1021.2006C336.5431,-1008.0162 357.1122,-990.109 373.7152,-975.6546"/>
<polygon fill="#ff0000" stroke="#ff0000" stroke-width="2" points="376.2619,-978.078 381.506,-968.872 371.6656,-972.7984 376.2619,-978.078"/>
</g>
<!-- node_20&#45;&gt;node_21 -->
<g id="edge27" class="edge">
<title>node_20-&gt;node_21</title>
<path fill="none" stroke="#00eeee" d="M235.2549,-1198.8006C247.2083,-1185.8559 263.3657,-1168.3586 276.5819,-1154.0464"/>
<polygon fill="#00eeee" stroke="#00eeee" points="279.3634,-1156.1933 283.5763,-1146.472 274.2207,-1151.4443 279.3634,-1156.1933"/>
<text text-anchor="middle" x="280.452" y="-1168.6" font-family="Times,serif" font-size="14.00" fill="#000000">arg 0</text>
</g>
<!-- node_21&#45;&gt;node_23 -->
<g id="edge30" class="edge">
<title>node_21-&gt;node_23</title>
<path fill="none" stroke="#00eeee" d="M300.2644,-1110.0006C300.2644,-1097.8949 300.2644,-1081.8076 300.2644,-1068.0674"/>
<polygon fill="#00eeee" stroke="#00eeee" points="303.7645,-1067.672 300.2644,-1057.672 296.7645,-1067.6721 303.7645,-1067.672"/>
<text text-anchor="middle" x="314.452" y="-1079.8" font-family="Times,serif" font-size="14.00" fill="#000000">arg 0</text>
</g>
<!-- node_22&#45;&gt;node_36 -->
<g id="edge47" class="edge">
<title>node_22-&gt;node_36</title>
<path fill="none" stroke="#00eeee" d="M291.9432,-879.2636C288.0086,-873.725 284.3111,-867.3353 282.2644,-860.8 264.9728,-805.585 237.7604,-751.6882 299.2644,-647.2 312.9409,-623.9652 337.6049,-606.6065 359.369,-594.8931"/>
<polygon fill="#00eeee" stroke="#00eeee" points="361.1798,-597.8979 368.4785,-590.2181 357.9836,-591.6702 361.1798,-597.8979"/>
<text text-anchor="middle" x="277.452" y="-749.8" font-family="Times,serif" font-size="14.00" fill="#000000">arg 0</text>
</g>
<!-- node_25 -->
<g id="node31" class="node">
<title>node_25</title>
<polygon fill="#ff4500" stroke="#000000" points="513.3234,-860.8 291.2054,-860.8 291.2054,-824.8 513.3234,-824.8 513.3234,-860.8"/>
<text text-anchor="middle" x="402.2644" y="-838.6" font-family="Times,serif" font-size="14.00" fill="#000000">25 LineNumberDebugInfo : line #28</text>
</g>
<!-- node_24&#45;&gt;node_25 -->
<g id="edge32" class="edge">
<title>node_24-&gt;node_25</title>
<path fill="none" stroke="#ff0000" stroke-width="2" d="M402.2644,-932.4793C402.2644,-915.621 402.2644,-890.3651 402.2644,-870.947"/>
<polygon fill="#ff0000" stroke="#ff0000" stroke-width="2" points="405.7645,-870.8501 402.2644,-860.8502 398.7645,-870.8502 405.7645,-870.8501"/>
</g>
<!-- node_25&#45;&gt;node_28 -->
<g id="edge33" class="edge">
<title>node_25-&gt;node_28</title>
<path fill="none" stroke="#ff0000" stroke-width="2" d="M402.886,-824.4006C403.295,-812.2949 403.8385,-796.2076 404.3027,-782.4674"/>
<polygon fill="#ff0000" stroke="#ff0000" stroke-width="2" points="407.8141,-782.1845 404.6539,-772.072 400.8181,-781.9481 407.8141,-782.1845"/>
</g>
<!-- node_26 -->
<g id="node32" class="node">
<title>node_26</title>
<polygon fill="#ffb90f" stroke="#000000" points="608.2644,-683.2 491.9929,-665.2 608.2644,-647.2 724.5359,-665.2 608.2644,-683.2"/>
<text text-anchor="middle" x="608.2644" y="-661" font-family="Times,serif" font-size="14.00" fill="#000000">26 PrimitiveInt : 1</text>
</g>
<!-- node_26&#45;&gt;node_27 -->
<g id="edge35" class="edge">
<title>node_26-&gt;node_27</title>
<path fill="none" stroke="#00eeee" d="M608.2644,-646.8006C608.2644,-634.6949 608.2644,-618.6076 608.2644,-604.8674"/>
<polygon fill="#00eeee" stroke="#00eeee" points="611.7645,-604.472 608.2644,-594.472 604.7645,-604.4721 611.7645,-604.472"/>
<text text-anchor="middle" x="622.452" y="-616.6" font-family="Times,serif" font-size="14.00" fill="#000000">arg 1</text>
</g>
<!-- node_27&#45;&gt;node_28 -->
<g id="edge36" class="edge">
<title>node_27-&gt;node_28</title>
<path fill="none" stroke="#00eeee" d="M571.4928,-585.4823C537.4689,-595.5436 487.3845,-614.7859 454.8892,-647.2 432.949,-669.0853 419.5933,-702.4939 412.3478,-726.1087"/>
<polygon fill="#00eeee" stroke="#00eeee" points="408.938,-725.3013 409.5246,-735.8799 415.6629,-727.2444 408.938,-725.3013"/>
<text text-anchor="middle" x="468.452" y="-661" font-family="Times,serif" font-size="14.00" fill="#000000">arg 0</text>
</g>
<!-- node_29&#45;&gt;node_36 -->
<g id="edge38" class="edge">
<title>node_29-&gt;node_36</title>
<path fill="none" stroke="#ff0000" stroke-width="2" d="M353.1108,-646.8006C361.9814,-634.0956 373.914,-617.0051 383.8007,-602.8448"/>
<polygon fill="#ff0000" stroke="#ff0000" stroke-width="2" points="386.7915,-604.6749 389.6466,-594.472 381.0521,-600.6676 386.7915,-604.6749"/>
</g>
<!-- node_32 -->
<g id="node36" class="node">
<title>node_32</title>
<polygon fill="#ff4500" stroke="#000000" points="346.1704,-109 212.3584,-109 212.3584,-73 346.1704,-73 346.1704,-109"/>
<text text-anchor="middle" x="279.2644" y="-86.8" font-family="Times,serif" font-size="14.00" fill="#000000">32 FrameDebugInfo </text>
</g>
<!-- node_31&#45;&gt;node_32 -->
<g id="edge40" class="edge">
<title>node_31-&gt;node_32</title>
<path fill="none" stroke="#ff0000" stroke-width="2" d="M386.1633,-145.9551C367.2183,-136.2157 343.6458,-124.0975 323.4609,-113.7207"/>
<polygon fill="#ff0000" stroke="#ff0000" stroke-width="2" points="324.9477,-110.5497 314.4539,-109.0904 321.7472,-116.7752 324.9477,-110.5497"/>
</g>
<!-- node_32&#45;&gt;node_33 -->
<g id="edge41" class="edge">
<title>node_32-&gt;node_33</title>
<path fill="none" stroke="#ff0000" stroke-width="2" d="M223.6464,-72.9551C191.6668,-62.5795 151.3655,-49.5039 118.0977,-38.7104"/>
<polygon fill="#ff0000" stroke="#ff0000" stroke-width="2" points="119.0583,-35.3425 108.4662,-35.5855 116.898,-42.0008 119.0583,-35.3425"/>
</g>
</g>
</svg>