<?xml version="1.0" encoding="UTF-8" standalone="no"?>
<!DOCTYPE svg PUBLIC "-//W3C//DTD SVG 1.1//EN"
 "http://www.w3.org/Graphics/SVG/1.1/DTD/svg11.dtd">
<!-- Generated by graphviz version 2.40.1 (20161225.0304)
 -->
<!-- Title: CFG Pages: 1 -->
<svg width="716pt" height="714pt"
 viewBox="0.00 0.00 716.00 714.00" xmlns="http://www.w3.org/2000/svg" xmlns:xlink="http://www.w3.org/1999/xlink">
<g id="graph0" class="graph" transform="scale(1 1) rotate(0) translate(4 710)">
<title>CFG</title>
<polygon fill="#ffffff" stroke="transparent" points="-4,4 -4,-710 712,-710 712,4 -4,4"/>
<g id="clust1" class="cluster">
<title>cluster_0</title>
<polygon fill="#d3d3d3" stroke="#d3d3d3" points="8,-331 8,-698 314,-698 314,-331 8,-331"/>
<text text-anchor="middle" x="161" y="-682.8" font-family="Times,serif" font-size="14.00" fill="#000000">Region Address 0</text>
</g>
<g id="clust2" class="cluster">
<title>cluster_5</title>
<polygon fill="#d3d3d3" stroke="#d3d3d3" points="322,-8 322,-479 700,-479 700,-8 322,-8"/>
<text text-anchor="middle" x="511" y="-463.8" font-family="Times,serif" font-size="14.00" fill="#000000">Region Address 2</text>
</g>
<!-- C_0_control -->
<g id="node1" class="node">
<title>C_0_control</title>
<polygon fill="none" stroke="#000000" points="279.5,-667 208.5,-667 208.5,-631 279.5,-631 279.5,-667"/>
<text text-anchor="middle" x="244" y="-645.3" font-family="Times,serif" font-size="14.00" fill="#000000">Control</text>
</g>
<!-- E_1 -->
<g id="node2" class="node">
<title>E_1</title>
<ellipse fill="none" stroke="#000000" cx="120" cy="-524" rx="103.9815" ry="18"/>
<text text-anchor="middle" x="120" y="-520.3" font-family="Times,serif" font-size="14.00" fill="#000000">VariableAssignment</text>
</g>
<!-- C_0_control&#45;&gt;E_1 -->
<g id="edge1" class="edge">
<title>C_0_control&#45;&gt;E_1</title>
<path fill="none" stroke="#0000ff" stroke-dasharray="1,5" d="M225.9693,-630.8239C204.6344,-609.317 168.9881,-573.3832 144.9976,-549.1992"/>
<polygon fill="#0000ff" stroke="#0000ff" points="147.1784,-546.4278 137.6509,-541.7933 142.2088,-551.3576 147.1784,-546.4278"/>
<text text-anchor="middle" x="199" y="-582.8" font-family="Times,serif" font-size="14.00" fill="#000000">e&#45;0</text>
</g>
<!-- E_4 -->
<g id="node5" class="node">
<title>E_4</title>
<ellipse fill="none" stroke="#000000" cx="274" cy="-524" rx="32.4942" ry="18"/>
<text text-anchor="middle" x="274" y="-520.3" font-family="Times,serif" font-size="14.00" fill="#000000">Goto</text>
</g>
<!-- C_0_control&#45;&gt;E_4 -->
<g id="edge4" class="edge">
<title>C_0_control&#45;&gt;E_4</title>
<path fill="none" stroke="#0000ff" stroke-dasharray="1,5" d="M248.3623,-630.8239C253.3169,-610.1798 261.4617,-576.2431 267.2404,-552.1648"/>
<polygon fill="#0000ff" stroke="#0000ff" points="270.702,-552.7387 269.6325,-542.198 263.8953,-551.1051 270.702,-552.7387"/>
<text text-anchor="middle" x="271" y="-582.8" font-family="Times,serif" font-size="14.00" fill="#000000">e&#45;1</text>
</g>
<!-- V_2 -->
<g id="node3" class="node">
<title>V_2</title>
<ellipse fill="none" stroke="#00ff00" cx="274" cy="-357" rx="31.6951" ry="18"/>
<text text-anchor="middle" x="274" y="-353.3" font-family="Times,serif" font-size="14.00" fill="#000000">var0</text>
</g>
<!-- E_1&#45;&gt;V_2 -->
<g id="edge2" class="edge">
<title>E_1&#45;&gt;V_2</title>
<path fill="none" stroke="#000000" d="M136.4807,-506.1281C164.3525,-475.9035 220.8031,-414.6875 252.0141,-380.8418"/>
<polygon fill="#000000" stroke="#000000" points="254.8,-382.9837 259.0062,-373.2595 249.654,-378.2383 254.8,-382.9837"/>
</g>
<!-- E_7 -->
<g id="node8" class="node">
<title>E_7</title>
<ellipse fill="none" stroke="#000000" cx="473" cy="-284" rx="41.6928" ry="18"/>
<text text-anchor="middle" x="473" y="-280.3" font-family="Times,serif" font-size="14.00" fill="#000000">Binary</text>
</g>
<!-- V_2&#45;&gt;E_7 -->
<g id="edge7" class="edge">
<title>V_2&#45;&gt;E_7</title>
<path fill="none" stroke="#000000" d="M294.8903,-343.1283C302.0122,-338.8182 310.1597,-334.3295 318,-331 362.5621,-312.0759 376.8573,-316.6544 423,-302 425.8962,-301.0802 428.8749,-300.0991 431.8668,-299.0877"/>
<polygon fill="#000000" stroke="#000000" points="433.0792,-302.3719 441.3834,-295.7923 430.7886,-295.7572 433.0792,-302.3719"/>
</g>
<!-- E_11 -->
<g id="node12" class="node">
<title>E_11</title>
<ellipse fill="none" stroke="#000000" cx="372" cy="-284" rx="41.6928" ry="18"/>
<text text-anchor="middle" x="372" y="-280.3" font-family="Times,serif" font-size="14.00" fill="#000000">Binary</text>
</g>
<!-- V_2&#45;&gt;E_11 -->
<g id="edge13" class="edge">
<title>V_2&#45;&gt;E_11</title>
<path fill="none" stroke="#000000" d="M293.3616,-342.5775C307.3872,-332.1299 326.6023,-317.8167 342.5273,-305.9542"/>
<polygon fill="#000000" stroke="#000000" points="345.0534,-308.4368 350.9822,-299.6561 340.8717,-302.8231 345.0534,-308.4368"/>
</g>
<!-- P_3 -->
<g id="node4" class="node">
<title>P_3</title>
<ellipse fill="none" stroke="#ffa500" cx="120" cy="-649" rx="45.4919" ry="18"/>
<text text-anchor="middle" x="120" y="-645.3" font-family="Times,serif" font-size="14.00" fill="#000000">Integer</text>
</g>
<!-- P_3&#45;&gt;E_1 -->
<g id="edge3" class="edge">
<title>P_3&#45;&gt;E_1</title>
<path fill="none" stroke="#000000" d="M120,-630.8239C120,-610.2723 120,-576.5472 120,-552.4893"/>
<polygon fill="#000000" stroke="#000000" points="123.5001,-552.198 120,-542.198 116.5001,-552.198 123.5001,-552.198"/>
</g>
<!-- C_5_control -->
<g id="node6" class="node">
<title>C_5_control</title>
<polygon fill="none" stroke="#000000" points="603.5,-302 532.5,-302 532.5,-266 603.5,-266 603.5,-302"/>
<text text-anchor="middle" x="568" y="-280.3" font-family="Times,serif" font-size="14.00" fill="#000000">Control</text>
</g>
<!-- E_4&#45;&gt;C_5_control -->
<g id="edge16" class="edge">
<title>E_4&#45;&gt;C_5_control</title>
<path fill="none" stroke="#0000ff" stroke-dasharray="1,5" d="M306.8972,-523.0368C370.3707,-520.4615 506.2873,-511.2301 538,-479 581.8502,-434.4344 578.4205,-354.285 572.8404,-311.9518"/>
<polygon fill="#0000ff" stroke="#0000ff" points="576.3032,-311.442 571.4028,-302.0485 569.3758,-312.4476 576.3032,-311.442"/>
</g>
<!-- E_6 -->
<g id="node7" class="node">
<title>E_6</title>
<ellipse fill="none" stroke="#000000" cx="583" cy="-159" rx="27" ry="18"/>
<text text-anchor="middle" x="583" y="-155.3" font-family="Times,serif" font-size="14.00" fill="#000000">IF</text>
</g>
<!-- C_5_control&#45;&gt;E_6 -->
<g id="edge5" class="edge">
<title>C_5_control&#45;&gt;E_6</title>
<path fill="none" stroke="#0000ff" stroke-dasharray="1,5" d="M540.4229,-265.9961C523.5761,-252.5725 506.8746,-233.2972 516,-214 523.6523,-197.8178 538.6577,-184.7996 552.5312,-175.4987"/>
<polygon fill="#0000ff" stroke="#0000ff" points="554.7916,-178.212 561.396,-169.9275 551.0668,-172.2852 554.7916,-178.212"/>
<text text-anchor="middle" x="527" y="-217.8" font-family="Times,serif" font-size="14.00" fill="#000000">e&#45;0</text>
</g>
<!-- E_10 -->
<g id="node11" class="node">
<title>E_10</title>
<ellipse fill="none" stroke="#000000" cx="434" cy="-159" rx="103.9815" ry="18"/>
<text text-anchor="middle" x="434" y="-155.3" font-family="Times,serif" font-size="14.00" fill="#000000">VariableAssignment</text>
</g>
<!-- C_5_control&#45;&gt;E_10 -->
<g id="edge10" class="edge">
<title>C_5_control&#45;&gt;E_10</title>
<path fill="none" stroke="#0000ff" stroke-dasharray="1,5" d="M536.2306,-265.8183C520.5124,-256.0096 501.7902,-243.0467 487,-229 473.3999,-216.0835 460.6292,-199.4119 451.0326,-185.579"/>
<polygon fill="#0000ff" stroke="#0000ff" points="453.7094,-183.2892 445.2078,-176.9667 447.911,-187.2109 453.7094,-183.2892"/>
<text text-anchor="middle" x="498" y="-217.8" font-family="Times,serif" font-size="14.00" fill="#000000">e&#45;1</text>
</g>
<!-- E_13 -->
<g id="node14" class="node">
<title>E_13</title>
<ellipse fill="none" stroke="#000000" cx="660" cy="-159" rx="32.4942" ry="18"/>
<text text-anchor="middle" x="660" y="-155.3" font-family="Times,serif" font-size="14.00" fill="#000000">Goto</text>
</g>
<!-- C_5_control&#45;&gt;E_13 -->
<g id="edge15" class="edge">
<title>C_5_control&#45;&gt;E_13</title>
<path fill="none" stroke="#0000ff" stroke-dasharray="1,5" d="M598.7631,-265.8775C612.48,-256.4248 627.808,-243.7493 638,-229 646.6563,-216.473 652.0254,-200.3832 655.2897,-186.7888"/>
<polygon fill="#0000ff" stroke="#0000ff" points="658.7184,-187.4917 657.3952,-176.9798 651.8744,-186.0225 658.7184,-187.4917"/>
<text text-anchor="middle" x="657" y="-217.8" font-family="Times,serif" font-size="14.00" fill="#000000">e&#45;2</text>
</g>
<!-- E_9 -->
<g id="node10" class="node">
<title>E_9</title>
<ellipse fill="none" stroke="#000000" cx="583" cy="-34" rx="42.7926" ry="18"/>
<text text-anchor="middle" x="583" y="-30.3" font-family="Times,serif" font-size="14.00" fill="#000000">Return</text>
</g>
<!-- E_6&#45;&gt;E_9 -->
<g id="edge9" class="edge">
<title>E_6&#45;&gt;E_9</title>
<path fill="none" stroke="#0000ff" stroke-dasharray="1,5" d="M583,-140.8239C583,-120.2723 583,-86.5472 583,-62.4893"/>
<polygon fill="#0000ff" stroke="#0000ff" points="586.5001,-62.198 583,-52.198 579.5001,-62.198 586.5001,-62.198"/>
<text text-anchor="middle" x="594" y="-92.8" font-family="Times,serif" font-size="14.00" fill="#000000">e&#45;0</text>
</g>
<!-- E_7&#45;&gt;E_6 -->
<g id="edge6" class="edge">
<title>E_7&#45;&gt;E_6</title>
<path fill="none" stroke="#000000" d="M449.3084,-268.904C429.9723,-254.6758 407.9636,-232.7932 422,-214 456.6704,-167.5802 493.1032,-198.2597 547,-177 548.8526,-176.2692 550.7389,-175.4781 552.6284,-174.6491"/>
<polygon fill="#000000" stroke="#000000" points="554.3807,-177.6937 561.9618,-170.2925 551.4199,-171.3507 554.3807,-177.6937"/>
</g>
<!-- P_8 -->
<g id="node9" class="node">
<title>P_8</title>
<ellipse fill="none" stroke="#ffa500" cx="484" cy="-430" rx="45.4919" ry="18"/>
<text text-anchor="middle" x="484" y="-426.3" font-family="Times,serif" font-size="14.00" fill="#000000">Integer</text>
</g>
<!-- P_8&#45;&gt;E_7 -->
<g id="edge8" class="edge">
<title>P_8&#45;&gt;E_7</title>
<path fill="none" stroke="#000000" d="M482.6291,-411.8042C480.7517,-386.8868 477.3619,-341.8938 475.1463,-312.4877"/>
<polygon fill="#000000" stroke="#000000" points="478.6297,-312.1339 474.3882,-302.4251 471.6495,-312.6598 478.6297,-312.1339"/>
</g>
<!-- E_10&#45;&gt;V_2 -->
<g id="edge11" class="edge">
<title>E_10&#45;&gt;V_2</title>
<path fill="none" stroke="#000000" d="M411.0245,-176.8032C386.5141,-196.6326 347.628,-230.585 321,-266 306.0764,-285.8483 293.448,-311.1229 285.0518,-329.9964"/>
<polygon fill="#000000" stroke="#000000" points="281.8198,-328.6526 281.0573,-339.2199 288.2432,-331.4345 281.8198,-328.6526"/>
</g>
<!-- E_11&#45;&gt;E_10 -->
<g id="edge12" class="edge">
<title>E_11&#45;&gt;E_10</title>
<path fill="none" stroke="#000000" d="M378.9359,-266.1797C384.6727,-251.8678 393.2685,-231.3644 402,-214 406.7147,-204.6238 412.337,-194.6324 417.5439,-185.7737"/>
<polygon fill="#000000" stroke="#000000" points="420.6456,-187.406 422.7644,-177.0251 414.6345,-183.819 420.6456,-187.406"/>
</g>
<!-- P_12 -->
<g id="node13" class="node">
<title>P_12</title>
<ellipse fill="none" stroke="#ffa500" cx="375" cy="-430" rx="45.4919" ry="18"/>
<text text-anchor="middle" x="375" y="-426.3" font-family="Times,serif" font-size="14.00" fill="#000000">Integer</text>
</g>
<!-- P_12&#45;&gt;E_11 -->
<g id="edge14" class="edge">
<title>P_12&#45;&gt;E_11</title>
<path fill="none" stroke="#000000" d="M374.6261,-411.8042C374.1141,-386.8868 373.1896,-341.8938 372.5854,-312.4877"/>
<polygon fill="#000000" stroke="#000000" points="376.0834,-312.3511 372.3786,-302.4251 369.0849,-312.4949 376.0834,-312.3511"/>
</g>
<!-- E_13&#45;&gt;C_5_control -->
<g id="edge17" class="edge">
<title>E_13&#45;&gt;C_5_control</title>
<path fill="none" stroke="#0000ff" stroke-dasharray="1,5" d="M635.1772,-170.9965C606.9775,-184.876 564.2859,-206.7514 560,-214 552.6081,-226.5016 553.794,-242.4647 557.1909,-255.9891"/>
<polygon fill="#0000ff" stroke="#0000ff" points="553.8942,-257.1812 560.114,-265.7582 560.6004,-255.1745 553.8942,-257.1812"/>
<text text-anchor="middle" x="597" y="-217.8" font-family="Times,serif" font-size="14.00" fill="#000000">back&#45;edge</text>
</g>
</g>
</svg>
