<?xml version="1.0" encoding="UTF-8" standalone="no"?>
<!DOCTYPE svg PUBLIC "-//W3C//DTD SVG 1.1//EN"
 "http://www.w3.org/Graphics/SVG/1.1/DTD/svg11.dtd">
<!-- Generated by graphviz version 2.40.1 (20161225.0304)
 -->
<!-- Title: CFG Pages: 1 -->
<svg width="895pt" height="864pt"
 viewBox="0.00 0.00 895.00 864.00" xmlns="http://www.w3.org/2000/svg" xmlns:xlink="http://www.w3.org/1999/xlink">
<g id="graph0" class="graph" transform="scale(1 1) rotate(0) translate(4 860)">
<title>CFG</title>
<polygon fill="#ffffff" stroke="transparent" points="-4,4 -4,-860 891,-860 891,4 -4,4"/>
<g id="clust1" class="cluster">
<title>cluster_0</title>
<polygon fill="#d3d3d3" stroke="#d3d3d3" points="573,-446 573,-848 879,-848 879,-446 573,-446"/>
<text text-anchor="middle" x="726" y="-832.8" font-family="Times,serif" font-size="14.00" fill="#000000">Region Address 0</text>
</g>
<g id="clust2" class="cluster">
<title>cluster_5</title>
<polygon fill="#d3d3d3" stroke="#d3d3d3" points="376,-227 376,-754 565,-754 565,-227 376,-227"/>
<text text-anchor="middle" x="470.5" y="-738.8" font-family="Times,serif" font-size="14.00" fill="#000000">Region Address 2</text>
</g>
<g id="clust3" class="cluster">
<title>cluster_12</title>
<polygon fill="#d3d3d3" stroke="#d3d3d3" points="8,-300 8,-848 334,-848 334,-300 8,-300"/>
<text text-anchor="middle" x="171" y="-832.8" font-family="Times,serif" font-size="14.00" fill="#000000">Region Address 8</text>
</g>
<g id="clust4" class="cluster">
<title>cluster_10</title>
<polygon fill="#d3d3d3" stroke="#d3d3d3" points="428,-8 428,-208 580,-208 580,-8 428,-8"/>
<text text-anchor="middle" x="504" y="-192.8" font-family="Times,serif" font-size="14.00" fill="#000000">Region Address 14</text>
</g>
<!-- C_0_control -->
<g id="node1" class="node">
<title>C_0_control</title>
<polygon fill="none" stroke="#000000" points="678.5,-817 607.5,-817 607.5,-781 678.5,-781 678.5,-817"/>
<text text-anchor="middle" x="643" y="-795.3" font-family="Times,serif" font-size="14.00" fill="#000000">Control</text>
</g>
<!-- E_1 -->
<g id="node2" class="node">
<title>E_1</title>
<ellipse fill="none" stroke="#000000" cx="767" cy="-632" rx="103.9815" ry="18"/>
<text text-anchor="middle" x="767" y="-628.3" font-family="Times,serif" font-size="14.00" fill="#000000">VariableAssignment</text>
</g>
<!-- C_0_control&#45;&gt;E_1 -->
<g id="edge1" class="edge">
<title>C_0_control&#45;&gt;E_1</title>
<path fill="none" stroke="#0000ff" stroke-dasharray="1,5" d="M656.5062,-780.8102C678.5531,-751.118 722.3501,-692.1334 747.6805,-658.019"/>
<polygon fill="#0000ff" stroke="#0000ff" points="750.5467,-660.0299 753.6981,-649.9146 744.9265,-655.8569 750.5467,-660.0299"/>
<text text-anchor="middle" x="736" y="-701.3" font-family="Times,serif" font-size="14.00" fill="#000000">e&#45;0</text>
</g>
<!-- E_4 -->
<g id="node5" class="node">
<title>E_4</title>
<ellipse fill="none" stroke="#000000" cx="613" cy="-632" rx="32.4942" ry="18"/>
<text text-anchor="middle" x="613" y="-628.3" font-family="Times,serif" font-size="14.00" fill="#000000">Goto</text>
</g>
<!-- C_0_control&#45;&gt;E_4 -->
<g id="edge4" class="edge">
<title>C_0_control&#45;&gt;E_4</title>
<path fill="none" stroke="#0000ff" stroke-dasharray="1,5" d="M639.7324,-780.8102C634.4889,-751.6213 624.1601,-694.1244 617.9895,-659.7748"/>
<polygon fill="#0000ff" stroke="#0000ff" points="621.4312,-659.1382 616.2182,-649.9146 614.5415,-660.376 621.4312,-659.1382"/>
<text text-anchor="middle" x="645" y="-701.3" font-family="Times,serif" font-size="14.00" fill="#000000">e&#45;1</text>
</g>
<!-- V_2 -->
<g id="node3" class="node">
<title>V_2</title>
<ellipse fill="none" stroke="#00ff00" cx="613" cy="-472" rx="31.6951" ry="18"/>
<text text-anchor="middle" x="613" y="-468.3" font-family="Times,serif" font-size="14.00" fill="#000000">var0</text>
</g>
<!-- E_1&#45;&gt;V_2 -->
<g id="edge2" class="edge">
<title>E_1&#45;&gt;V_2</title>
<path fill="none" stroke="#000000" d="M749.6336,-613.957C721.5236,-584.7518 666.0932,-527.1617 635.1724,-495.0363"/>
<polygon fill="#000000" stroke="#000000" points="637.6915,-492.6064 628.2351,-487.8286 632.6481,-497.4607 637.6915,-492.6064"/>
</g>
<!-- E_7 -->
<g id="node8" class="node">
<title>E_7</title>
<ellipse fill="none" stroke="#000000" cx="515" cy="-545" rx="41.6928" ry="18"/>
<text text-anchor="middle" x="515" y="-541.3" font-family="Times,serif" font-size="14.00" fill="#000000">Binary</text>
</g>
<!-- V_2&#45;&gt;E_7 -->
<g id="edge7" class="edge">
<title>V_2&#45;&gt;E_7</title>
<path fill="none" stroke="#000000" d="M593.4423,-486.5685C579.4915,-496.9604 560.4801,-511.1219 544.6677,-522.9006"/>
<polygon fill="#000000" stroke="#000000" points="542.1933,-520.3794 536.2645,-529.1601 546.375,-525.9931 542.1933,-520.3794"/>
</g>
<!-- P_3 -->
<g id="node4" class="node">
<title>P_3</title>
<ellipse fill="none" stroke="#ffa500" cx="767" cy="-799" rx="45.4919" ry="18"/>
<text text-anchor="middle" x="767" y="-795.3" font-family="Times,serif" font-size="14.00" fill="#000000">Integer</text>
</g>
<!-- P_3&#45;&gt;E_1 -->
<g id="edge3" class="edge">
<title>P_3&#45;&gt;E_1</title>
<path fill="none" stroke="#000000" d="M767,-780.8102C767,-751.8234 767,-694.9192 767,-660.4916"/>
<polygon fill="#000000" stroke="#000000" points="770.5001,-660.1674 767,-650.1674 763.5001,-660.1674 770.5001,-660.1674"/>
</g>
<!-- C_5_control -->
<g id="node6" class="node">
<title>C_5_control</title>
<polygon fill="none" stroke="#000000" points="455.5,-563 384.5,-563 384.5,-527 455.5,-527 455.5,-563"/>
<text text-anchor="middle" x="420" y="-541.3" font-family="Times,serif" font-size="14.00" fill="#000000">Control</text>
</g>
<!-- E_4&#45;&gt;C_5_control -->
<g id="edge19" class="edge">
<title>E_4&#45;&gt;C_5_control</title>
<path fill="none" stroke="#000000" d="M587.7686,-620.6263C556.6843,-606.6142 503.309,-582.5538 465.1066,-565.333"/>
<polygon fill="#000000" stroke="#000000" points="466.2987,-562.0313 455.7438,-561.1125 463.422,-568.4129 466.2987,-562.0313"/>
</g>
<!-- E_6 -->
<g id="node7" class="node">
<title>E_6</title>
<ellipse fill="none" stroke="#000000" cx="504" cy="-399" rx="27" ry="18"/>
<text text-anchor="middle" x="504" y="-395.3" font-family="Times,serif" font-size="14.00" fill="#000000">IF</text>
</g>
<!-- C_5_control&#45;&gt;E_6 -->
<g id="edge5" class="edge">
<title>C_5_control&#45;&gt;E_6</title>
<path fill="none" stroke="#0000ff" stroke-dasharray="1,5" d="M430.4688,-526.8042C445.2316,-501.1451 472.2426,-454.1974 489.0963,-424.9041"/>
<polygon fill="#0000ff" stroke="#0000ff" points="492.2297,-426.4762 494.183,-416.0629 486.1623,-422.9853 492.2297,-426.4762"/>
<text text-anchor="middle" x="487" y="-468.3" font-family="Times,serif" font-size="14.00" fill="#000000">e&#45;0</text>
</g>
<!-- E_11 -->
<g id="node11" class="node">
<title>E_11</title>
<ellipse fill="none" stroke="#000000" cx="416" cy="-399" rx="32.4942" ry="18"/>
<text text-anchor="middle" x="416" y="-395.3" font-family="Times,serif" font-size="14.00" fill="#000000">Goto</text>
</g>
<!-- C_5_control&#45;&gt;E_11 -->
<g id="edge10" class="edge">
<title>C_5_control&#45;&gt;E_11</title>
<path fill="none" stroke="#0000ff" stroke-dasharray="1,5" d="M419.5015,-526.8042C418.8188,-501.8868 417.5861,-456.8938 416.7805,-427.4877"/>
<polygon fill="#0000ff" stroke="#0000ff" points="420.2775,-427.3255 416.5048,-417.4251 413.2801,-427.5172 420.2775,-427.3255"/>
<text text-anchor="middle" x="429" y="-468.3" font-family="Times,serif" font-size="14.00" fill="#000000">e&#45;1</text>
</g>
<!-- E_9 -->
<g id="node10" class="node">
<title>E_9</title>
<ellipse fill="none" stroke="#000000" cx="504" cy="-253" rx="32.4942" ry="18"/>
<text text-anchor="middle" x="504" y="-249.3" font-family="Times,serif" font-size="14.00" fill="#000000">Goto</text>
</g>
<!-- E_6&#45;&gt;E_9 -->
<g id="edge9" class="edge">
<title>E_6&#45;&gt;E_9</title>
<path fill="none" stroke="#0000ff" stroke-dasharray="1,5" d="M504,-380.8042C504,-355.8868 504,-310.8938 504,-281.4877"/>
<polygon fill="#0000ff" stroke="#0000ff" points="507.5001,-281.4251 504,-271.4251 500.5001,-281.4251 507.5001,-281.4251"/>
<text text-anchor="middle" x="515" y="-322.3" font-family="Times,serif" font-size="14.00" fill="#000000">e&#45;0</text>
</g>
<!-- E_7&#45;&gt;E_6 -->
<g id="edge6" class="edge">
<title>E_7&#45;&gt;E_6</title>
<path fill="none" stroke="#000000" d="M513.6291,-526.8042C511.7517,-501.8868 508.3619,-456.8938 506.1463,-427.4877"/>
<polygon fill="#000000" stroke="#000000" points="509.6297,-427.1339 505.3882,-417.4251 502.6495,-427.6598 509.6297,-427.1339"/>
</g>
<!-- P_8 -->
<g id="node9" class="node">
<title>P_8</title>
<ellipse fill="none" stroke="#ffa500" cx="512" cy="-705" rx="45.4919" ry="18"/>
<text text-anchor="middle" x="512" y="-701.3" font-family="Times,serif" font-size="14.00" fill="#000000">Integer</text>
</g>
<!-- P_8&#45;&gt;E_7 -->
<g id="edge8" class="edge">
<title>P_8&#45;&gt;E_7</title>
<path fill="none" stroke="#000000" d="M512.3383,-686.957C512.856,-659.3487 513.8492,-606.3746 514.4651,-573.5255"/>
<polygon fill="#000000" stroke="#000000" points="517.9701,-573.2865 514.6583,-563.2226 510.9714,-573.1552 517.9701,-573.2865"/>
</g>
<!-- C_10_control -->
<g id="node18" class="node">
<title>C_10_control</title>
<polygon fill="none" stroke="#000000" points="539.5,-177 468.5,-177 468.5,-141 539.5,-141 539.5,-177"/>
<text text-anchor="middle" x="504" y="-155.3" font-family="Times,serif" font-size="14.00" fill="#000000">Control</text>
</g>
<!-- E_9&#45;&gt;C_10_control -->
<g id="edge20" class="edge">
<title>E_9&#45;&gt;C_10_control</title>
<path fill="none" stroke="#000000" d="M504,-234.8759C504,-221.3516 504,-202.6192 504,-187.1514"/>
<polygon fill="#000000" stroke="#000000" points="507.5001,-187.0685 504,-177.0685 500.5001,-187.0685 507.5001,-187.0685"/>
</g>
<!-- C_12_control -->
<g id="node12" class="node">
<title>C_12_control</title>
<polygon fill="none" stroke="#000000" points="300.5,-817 229.5,-817 229.5,-781 300.5,-781 300.5,-817"/>
<text text-anchor="middle" x="265" y="-795.3" font-family="Times,serif" font-size="14.00" fill="#000000">Control</text>
</g>
<!-- E_11&#45;&gt;C_12_control -->
<g id="edge21" class="edge">
<title>E_11&#45;&gt;C_12_control</title>
<path fill="none" stroke="#000000" d="M394.6773,-412.7531C377.4316,-425.7274 356,-446.9002 356,-472 356,-705 356,-705 356,-705 356,-734.9397 331.8746,-758.9687 308.4678,-775.2363"/>
<polygon fill="#000000" stroke="#000000" points="306.3416,-772.446 299.9227,-780.875 310.197,-778.2886 306.3416,-772.446"/>
</g>
<!-- E_13 -->
<g id="node13" class="node">
<title>E_13</title>
<ellipse fill="none" stroke="#000000" cx="120" cy="-632" rx="103.9815" ry="18"/>
<text text-anchor="middle" x="120" y="-628.3" font-family="Times,serif" font-size="14.00" fill="#000000">VariableAssignment</text>
</g>
<!-- C_12_control&#45;&gt;E_13 -->
<g id="edge11" class="edge">
<title>C_12_control&#45;&gt;E_13</title>
<path fill="none" stroke="#0000ff" stroke-dasharray="1,5" d="M243.7921,-780.8788C234.8965,-772.9384 224.6352,-763.3194 216,-754 187.1603,-722.8752 157.4844,-683.8913 138.9084,-658.4867"/>
<polygon fill="#0000ff" stroke="#0000ff" points="141.5281,-656.1376 132.8203,-650.1022 135.8638,-660.2505 141.5281,-656.1376"/>
<text text-anchor="middle" x="227" y="-701.3" font-family="Times,serif" font-size="14.00" fill="#000000">e&#45;0</text>
</g>
<!-- E_16 -->
<g id="node16" class="node">
<title>E_16</title>
<ellipse fill="none" stroke="#000000" cx="222" cy="-326" rx="103.9815" ry="18"/>
<text text-anchor="middle" x="222" y="-322.3" font-family="Times,serif" font-size="14.00" fill="#000000">VariableAssignment</text>
</g>
<!-- C_12_control&#45;&gt;E_16 -->
<g id="edge14" class="edge">
<title>C_12_control&#45;&gt;E_16</title>
<path fill="none" stroke="#0000ff" stroke-dasharray="1,5" d="M258.1597,-780.9212C251.7015,-762.2066 243,-731.9843 243,-705 243,-705 243,-705 243,-399 243,-383.6571 238.6626,-367.1824 233.9303,-353.7736"/>
<polygon fill="#0000ff" stroke="#0000ff" points="237.1146,-352.2992 230.2998,-344.1869 230.5683,-354.7784 237.1146,-352.2992"/>
<text text-anchor="middle" x="254" y="-541.3" font-family="Times,serif" font-size="14.00" fill="#000000">e&#45;1</text>
</g>
<!-- E_17 -->
<g id="node17" class="node">
<title>E_17</title>
<ellipse fill="none" stroke="#000000" cx="294" cy="-632" rx="32.4942" ry="18"/>
<text text-anchor="middle" x="294" y="-628.3" font-family="Times,serif" font-size="14.00" fill="#000000">Goto</text>
</g>
<!-- C_12_control&#45;&gt;E_17 -->
<g id="edge17" class="edge">
<title>C_12_control&#45;&gt;E_17</title>
<path fill="none" stroke="#0000ff" stroke-dasharray="1,5" d="M268.1587,-780.8102C273.2141,-751.6979 283.1595,-694.426 289.1298,-660.0457"/>
<polygon fill="#0000ff" stroke="#0000ff" points="292.5826,-660.6188 290.8452,-650.1674 285.6858,-659.4211 292.5826,-660.6188"/>
<text text-anchor="middle" x="296" y="-701.3" font-family="Times,serif" font-size="14.00" fill="#000000">e&#45;2</text>
</g>
<!-- V_14 -->
<g id="node14" class="node">
<title>V_14</title>
<ellipse fill="none" stroke="#00ff00" cx="174" cy="-472" rx="31.6951" ry="18"/>
<text text-anchor="middle" x="174" y="-468.3" font-family="Times,serif" font-size="14.00" fill="#000000">var1</text>
</g>
<!-- E_13&#45;&gt;V_14 -->
<g id="edge12" class="edge">
<title>E_13&#45;&gt;V_14</title>
<path fill="none" stroke="#000000" d="M126.0895,-613.957C135.4976,-586.0812 153.6334,-532.3456 164.693,-499.5763"/>
<polygon fill="#000000" stroke="#000000" points="168.1335,-500.3271 168.0151,-489.7329 161.5011,-498.0886 168.1335,-500.3271"/>
</g>
<!-- V_14&#45;&gt;E_16 -->
<g id="edge16" class="edge">
<title>V_14&#45;&gt;E_16</title>
<path fill="none" stroke="#000000" d="M179.8857,-454.0975C188.1266,-429.0316 203.1797,-383.245 212.8787,-353.744"/>
<polygon fill="#000000" stroke="#000000" points="216.2678,-354.6418 216.0661,-344.0489 209.6179,-352.4555 216.2678,-354.6418"/>
</g>
<!-- E_15 -->
<g id="node15" class="node">
<title>E_15</title>
<ellipse fill="none" stroke="#000000" cx="120" cy="-799" rx="41.6928" ry="18"/>
<text text-anchor="middle" x="120" y="-795.3" font-family="Times,serif" font-size="14.00" fill="#000000">Binary</text>
</g>
<!-- E_15&#45;&gt;E_13 -->
<g id="edge13" class="edge">
<title>E_15&#45;&gt;E_13</title>
<path fill="none" stroke="#000000" d="M120,-780.8102C120,-751.8234 120,-694.9192 120,-660.4916"/>
<polygon fill="#000000" stroke="#000000" points="123.5001,-660.1674 120,-650.1674 116.5001,-660.1674 123.5001,-660.1674"/>
</g>
<!-- E_16&#45;&gt;V_2 -->
<g id="edge15" class="edge">
<title>E_16&#45;&gt;V_2</title>
<path fill="none" stroke="#000000" d="M304.436,-337.1154C403.6655,-350.7829 558.4108,-373.1355 569,-381 589.3677,-396.1269 600.7635,-423.1912 606.825,-443.8854"/>
<polygon fill="#000000" stroke="#000000" points="603.4954,-444.9827 609.4581,-453.7404 610.2582,-443.1758 603.4954,-444.9827"/>
</g>
<!-- E_17&#45;&gt;C_5_control -->
<g id="edge22" class="edge">
<title>E_17&#45;&gt;C_5_control</title>
<path fill="none" stroke="#000000" d="M314.5245,-617.8283C333.6931,-604.5929 362.6815,-584.5771 385.4205,-568.8764"/>
<polygon fill="#000000" stroke="#000000" points="387.5556,-571.6554 393.7959,-563.0933 383.5782,-565.8951 387.5556,-571.6554"/>
<text text-anchor="middle" x="402" y="-584.8" font-family="Times,serif" font-size="14.00" fill="#000000">back&#45;edge</text>
</g>
<!-- E_18 -->
<g id="node19" class="node">
<title>E_18</title>
<ellipse fill="none" stroke="#000000" cx="504" cy="-34" rx="42.7926" ry="18"/>
<text text-anchor="middle" x="504" y="-30.3" font-family="Times,serif" font-size="14.00" fill="#000000">Return</text>
</g>
<!-- C_10_control&#45;&gt;E_18 -->
<g id="edge18" class="edge">
<title>C_10_control&#45;&gt;E_18</title>
<path fill="none" stroke="#0000ff" stroke-dasharray="1,5" d="M504,-140.8239C504,-120.2723 504,-86.5472 504,-62.4893"/>
<polygon fill="#0000ff" stroke="#0000ff" points="507.5001,-62.198 504,-52.198 500.5001,-62.198 507.5001,-62.198"/>
<text text-anchor="middle" x="515" y="-92.8" font-family="Times,serif" font-size="14.00" fill="#000000">e&#45;0</text>
</g>
</g>
</svg>
