<?xml version="1.0" encoding="UTF-8" standalone="no"?>
<!DOCTYPE svg PUBLIC "-//W3C//DTD SVG 1.1//EN"
 "http://www.w3.org/Graphics/SVG/1.1/DTD/svg11.dtd">
<!-- Generated by graphviz version 2.40.1 (20161225.0304)
 -->
<!-- Title: CFG Pages: 1 -->
<svg width="897pt" height="954pt"
 viewBox="0.00 0.00 897.00 954.00" xmlns="http://www.w3.org/2000/svg" xmlns:xlink="http://www.w3.org/1999/xlink">
<g id="graph0" class="graph" transform="scale(1 1) rotate(0) translate(4 950)">
<title>CFG</title>
<polygon fill="#ffffff" stroke="transparent" points="-4,4 -4,-950 893,-950 893,4 -4,4"/>
<g id="clust1" class="cluster">
<title>cluster_0</title>
<polygon fill="#d3d3d3" stroke="#d3d3d3" points="342,-571 342,-938 648,-938 648,-571 342,-571"/>
<text text-anchor="middle" x="495" y="-922.8" font-family="Times,serif" font-size="14.00" fill="#000000">Region Address 0</text>
</g>
<g id="clust2" class="cluster">
<title>cluster_5</title>
<polygon fill="#d3d3d3" stroke="#d3d3d3" points="656,-248 656,-719 845,-719 845,-248 656,-248"/>
<text text-anchor="middle" x="750.5" y="-703.8" font-family="Times,serif" font-size="14.00" fill="#000000">Region Address 2</text>
</g>
<g id="clust3" class="cluster">
<title>cluster_12</title>
<polygon fill="#d3d3d3" stroke="#d3d3d3" points="8,-81 8,-719 334,-719 334,-81 8,-81"/>
<text text-anchor="middle" x="171" y="-703.8" font-family="Times,serif" font-size="14.00" fill="#000000">Region Address 8</text>
</g>
<g id="clust4" class="cluster">
<title>cluster_10</title>
<polygon fill="#d3d3d3" stroke="#d3d3d3" points="729,-8 729,-229 881,-229 881,-8 729,-8"/>
<text text-anchor="middle" x="805" y="-213.8" font-family="Times,serif" font-size="14.00" fill="#000000">Region Address 14</text>
</g>
<!-- C_0_control -->
<g id="node1" class="node">
<title>C_0_control</title>
<polygon fill="none" stroke="#000000" points="613.5,-907 542.5,-907 542.5,-871 613.5,-871 613.5,-907"/>
<text text-anchor="middle" x="578" y="-885.3" font-family="Times,serif" font-size="14.00" fill="#000000">Control</text>
</g>
<!-- E_1 -->
<g id="node2" class="node">
<title>E_1</title>
<ellipse fill="none" stroke="#000000" cx="454" cy="-764" rx="103.9815" ry="18"/>
<text text-anchor="middle" x="454" y="-760.3" font-family="Times,serif" font-size="14.00" fill="#000000">VariableAssignment</text>
</g>
<!-- C_0_control&#45;&gt;E_1 -->
<g id="edge1" class="edge">
<title>C_0_control&#45;&gt;E_1</title>
<path fill="none" stroke="#0000ff" stroke-dasharray="1,5" d="M559.9693,-870.8239C538.6344,-849.317 502.9881,-813.3832 478.9976,-789.1992"/>
<polygon fill="#0000ff" stroke="#0000ff" points="481.1784,-786.4278 471.6509,-781.7933 476.2088,-791.3576 481.1784,-786.4278"/>
<text text-anchor="middle" x="533" y="-822.8" font-family="Times,serif" font-size="14.00" fill="#000000">e&#45;0</text>
</g>
<!-- E_4 -->
<g id="node5" class="node">
<title>E_4</title>
<ellipse fill="none" stroke="#000000" cx="608" cy="-764" rx="32.4942" ry="18"/>
<text text-anchor="middle" x="608" y="-760.3" font-family="Times,serif" font-size="14.00" fill="#000000">Goto</text>
</g>
<!-- C_0_control&#45;&gt;E_4 -->
<g id="edge4" class="edge">
<title>C_0_control&#45;&gt;E_4</title>
<path fill="none" stroke="#0000ff" stroke-dasharray="1,5" d="M582.3623,-870.8239C587.3169,-850.1798 595.4617,-816.2431 601.2404,-792.1648"/>
<polygon fill="#0000ff" stroke="#0000ff" points="604.702,-792.7387 603.6325,-782.198 597.8953,-791.1051 604.702,-792.7387"/>
<text text-anchor="middle" x="605" y="-822.8" font-family="Times,serif" font-size="14.00" fill="#000000">e&#45;1</text>
</g>
<!-- V_2 -->
<g id="node3" class="node">
<title>V_2</title>
<ellipse fill="none" stroke="#00ff00" cx="388" cy="-597" rx="31.6951" ry="18"/>
<text text-anchor="middle" x="388" y="-593.3" font-family="Times,serif" font-size="14.00" fill="#000000">var0</text>
</g>
<!-- E_1&#45;&gt;V_2 -->
<g id="edge2" class="edge">
<title>E_1&#45;&gt;V_2</title>
<path fill="none" stroke="#000000" d="M446.8112,-745.8102C435.1953,-716.4185 412.2359,-658.3243 398.6953,-624.0623"/>
<polygon fill="#000000" stroke="#000000" points="401.9113,-622.6769 394.9807,-614.6633 395.4012,-625.2498 401.9113,-622.6769"/>
</g>
<!-- E_7 -->
<g id="node8" class="node">
<title>E_7</title>
<ellipse fill="none" stroke="#000000" cx="706" cy="-524" rx="41.6928" ry="18"/>
<text text-anchor="middle" x="706" y="-520.3" font-family="Times,serif" font-size="14.00" fill="#000000">Binary</text>
</g>
<!-- V_2&#45;&gt;E_7 -->
<g id="edge7" class="edge">
<title>V_2&#45;&gt;E_7</title>
<path fill="none" stroke="#000000" d="M417.6311,-590.1979C473.0678,-577.4719 592.8491,-549.9749 659.2677,-534.7279"/>
<polygon fill="#000000" stroke="#000000" points="660.0953,-538.129 669.0586,-532.4803 658.529,-531.3065 660.0953,-538.129"/>
</g>
<!-- E_15 -->
<g id="node15" class="node">
<title>E_15</title>
<ellipse fill="none" stroke="#000000" cx="148" cy="-524" rx="41.6928" ry="18"/>
<text text-anchor="middle" x="148" y="-520.3" font-family="Times,serif" font-size="14.00" fill="#000000">Binary</text>
</g>
<!-- V_2&#45;&gt;E_15 -->
<g id="edge14" class="edge">
<title>V_2&#45;&gt;E_15</title>
<path fill="none" stroke="#000000" d="M365.6235,-583.9204C357.1705,-579.3686 347.3364,-574.525 338,-571 312.2333,-561.2716 242.9139,-545.018 195.5308,-534.4038"/>
<polygon fill="#000000" stroke="#000000" points="196.0028,-530.9232 185.4808,-532.1633 194.4795,-537.7555 196.0028,-530.9232"/>
</g>
<!-- P_3 -->
<g id="node4" class="node">
<title>P_3</title>
<ellipse fill="none" stroke="#ffa500" cx="454" cy="-889" rx="45.4919" ry="18"/>
<text text-anchor="middle" x="454" y="-885.3" font-family="Times,serif" font-size="14.00" fill="#000000">Integer</text>
</g>
<!-- P_3&#45;&gt;E_1 -->
<g id="edge3" class="edge">
<title>P_3&#45;&gt;E_1</title>
<path fill="none" stroke="#000000" d="M454,-870.8239C454,-850.2723 454,-816.5472 454,-792.4893"/>
<polygon fill="#000000" stroke="#000000" points="457.5001,-792.198 454,-782.198 450.5001,-792.198 457.5001,-792.198"/>
</g>
<!-- C_5_control -->
<g id="node6" class="node">
<title>C_5_control</title>
<polygon fill="none" stroke="#000000" points="836.5,-542 765.5,-542 765.5,-506 836.5,-506 836.5,-542"/>
<text text-anchor="middle" x="801" y="-520.3" font-family="Times,serif" font-size="14.00" fill="#000000">Control</text>
</g>
<!-- E_4&#45;&gt;C_5_control -->
<g id="edge21" class="edge">
<title>E_4&#45;&gt;C_5_control</title>
<path fill="none" stroke="#0000ff" stroke-dasharray="1,5" d="M639.4205,-758.8341C679.7229,-751.5647 746.414,-737.1519 763,-719 805.2703,-672.7388 806.6816,-593.9233 803.9388,-552.0624"/>
<polygon fill="#0000ff" stroke="#0000ff" points="807.4222,-551.7127 803.1523,-542.0164 800.4436,-552.2591 807.4222,-551.7127"/>
</g>
<!-- E_6 -->
<g id="node7" class="node">
<title>E_6</title>
<ellipse fill="none" stroke="#000000" cx="794" cy="-399" rx="27" ry="18"/>
<text text-anchor="middle" x="794" y="-395.3" font-family="Times,serif" font-size="14.00" fill="#000000">IF</text>
</g>
<!-- C_5_control&#45;&gt;E_6 -->
<g id="edge5" class="edge">
<title>C_5_control&#45;&gt;E_6</title>
<path fill="none" stroke="#0000ff" stroke-dasharray="1,5" d="M799.9821,-505.8239C798.8313,-485.2723 796.9426,-451.5472 795.5954,-427.4893"/>
<polygon fill="#0000ff" stroke="#0000ff" points="799.0728,-426.9866 795.0191,-417.198 792.0838,-427.3781 799.0728,-426.9866"/>
<text text-anchor="middle" x="808" y="-457.8" font-family="Times,serif" font-size="14.00" fill="#000000">e&#45;0</text>
</g>
<!-- E_11 -->
<g id="node11" class="node">
<title>E_11</title>
<ellipse fill="none" stroke="#000000" cx="710" cy="-399" rx="32.4942" ry="18"/>
<text text-anchor="middle" x="710" y="-395.3" font-family="Times,serif" font-size="14.00" fill="#000000">Goto</text>
</g>
<!-- C_5_control&#45;&gt;E_11 -->
<g id="edge10" class="edge">
<title>C_5_control&#45;&gt;E_11</title>
<path fill="none" stroke="#0000ff" stroke-dasharray="1,5" d="M787.7678,-505.8239C772.1385,-484.355 746.0436,-448.5104 728.4386,-424.3278"/>
<polygon fill="#0000ff" stroke="#0000ff" points="731.087,-422.0189 722.3718,-415.9943 725.4278,-426.1388 731.087,-422.0189"/>
<text text-anchor="middle" x="771" y="-457.8" font-family="Times,serif" font-size="14.00" fill="#000000">e&#45;1</text>
</g>
<!-- E_9 -->
<g id="node10" class="node">
<title>E_9</title>
<ellipse fill="none" stroke="#000000" cx="794" cy="-274" rx="32.4942" ry="18"/>
<text text-anchor="middle" x="794" y="-270.3" font-family="Times,serif" font-size="14.00" fill="#000000">Goto</text>
</g>
<!-- E_6&#45;&gt;E_9 -->
<g id="edge9" class="edge">
<title>E_6&#45;&gt;E_9</title>
<path fill="none" stroke="#0000ff" stroke-dasharray="1,5" d="M794,-380.8239C794,-360.2723 794,-326.5472 794,-302.4893"/>
<polygon fill="#0000ff" stroke="#0000ff" points="797.5001,-302.198 794,-292.198 790.5001,-302.198 797.5001,-302.198"/>
<text text-anchor="middle" x="805" y="-332.8" font-family="Times,serif" font-size="14.00" fill="#000000">e&#45;0</text>
</g>
<!-- E_7&#45;&gt;E_6 -->
<g id="edge6" class="edge">
<title>E_7&#45;&gt;E_6</title>
<path fill="none" stroke="#000000" d="M706.449,-505.717C707.5896,-490.7621 711.0363,-469.6099 721,-454 731.3224,-437.8281 748.1777,-424.6636 763.0926,-415.2731"/>
<polygon fill="#000000" stroke="#000000" points="765.2626,-418.0538 772.0526,-409.9208 761.6728,-412.0444 765.2626,-418.0538"/>
</g>
<!-- P_8 -->
<g id="node9" class="node">
<title>P_8</title>
<ellipse fill="none" stroke="#ffa500" cx="709" cy="-670" rx="45.4919" ry="18"/>
<text text-anchor="middle" x="709" y="-666.3" font-family="Times,serif" font-size="14.00" fill="#000000">Integer</text>
</g>
<!-- P_8&#45;&gt;E_7 -->
<g id="edge8" class="edge">
<title>P_8&#45;&gt;E_7</title>
<path fill="none" stroke="#000000" d="M708.6261,-651.8042C708.1141,-626.8868 707.1896,-581.8938 706.5854,-552.4877"/>
<polygon fill="#000000" stroke="#000000" points="710.0834,-552.3511 706.3786,-542.4251 703.0849,-552.4949 710.0834,-552.3511"/>
</g>
<!-- C_10_control -->
<g id="node19" class="node">
<title>C_10_control</title>
<polygon fill="none" stroke="#000000" points="829.5,-198 758.5,-198 758.5,-162 829.5,-162 829.5,-198"/>
<text text-anchor="middle" x="794" y="-176.3" font-family="Times,serif" font-size="14.00" fill="#000000">Control</text>
</g>
<!-- E_9&#45;&gt;C_10_control -->
<g id="edge22" class="edge">
<title>E_9&#45;&gt;C_10_control</title>
<path fill="none" stroke="#0000ff" stroke-dasharray="1,5" d="M794,-255.8759C794,-242.3516 794,-223.6192 794,-208.1514"/>
<polygon fill="#0000ff" stroke="#0000ff" points="797.5001,-208.0685 794,-198.0685 790.5001,-208.0685 797.5001,-208.0685"/>
</g>
<!-- C_12_control -->
<g id="node12" class="node">
<title>C_12_control</title>
<polygon fill="none" stroke="#000000" points="311.5,-542 240.5,-542 240.5,-506 311.5,-506 311.5,-542"/>
<text text-anchor="middle" x="276" y="-520.3" font-family="Times,serif" font-size="14.00" fill="#000000">Control</text>
</g>
<!-- E_11&#45;&gt;C_12_control -->
<g id="edge23" class="edge">
<title>E_11&#45;&gt;C_12_control</title>
<path fill="none" stroke="#0000ff" stroke-dasharray="1,5" d="M677.7875,-401.7716C622.1207,-407.2497 504.8692,-421.8335 411,-454 376.483,-465.8281 339.8888,-485.2867 313.5203,-500.6897"/>
<polygon fill="#0000ff" stroke="#0000ff" points="311.4603,-497.8419 304.6401,-505.9496 315.0278,-503.8647 311.4603,-497.8419"/>
</g>
<!-- E_13 -->
<g id="node13" class="node">
<title>E_13</title>
<ellipse fill="none" stroke="#000000" cx="120" cy="-399" rx="103.9815" ry="18"/>
<text text-anchor="middle" x="120" y="-395.3" font-family="Times,serif" font-size="14.00" fill="#000000">VariableAssignment</text>
</g>
<!-- C_12_control&#45;&gt;E_13 -->
<g id="edge11" class="edge">
<title>C_12_control&#45;&gt;E_13</title>
<path fill="none" stroke="#0000ff" stroke-dasharray="1,5" d="M253.3163,-505.8239C226.127,-484.0376 180.4624,-447.4474 150.2802,-423.2629"/>
<polygon fill="#0000ff" stroke="#0000ff" points="152.1984,-420.315 142.206,-416.7933 147.8213,-425.7777 152.1984,-420.315"/>
<text text-anchor="middle" x="217" y="-457.8" font-family="Times,serif" font-size="14.00" fill="#000000">e&#45;0</text>
</g>
<!-- E_17 -->
<g id="node17" class="node">
<title>E_17</title>
<ellipse fill="none" stroke="#000000" cx="222" cy="-107" rx="103.9815" ry="18"/>
<text text-anchor="middle" x="222" y="-103.3" font-family="Times,serif" font-size="14.00" fill="#000000">VariableAssignment</text>
</g>
<!-- C_12_control&#45;&gt;E_17 -->
<g id="edge16" class="edge">
<title>C_12_control&#45;&gt;E_17</title>
<path fill="none" stroke="#0000ff" stroke-dasharray="1,5" d="M260.4663,-505.8822C251.9071,-494.0516 243,-477.8195 243,-461.5 243,-461.5 243,-461.5 243,-180 243,-164.6571 238.6626,-148.1824 233.9303,-134.7736"/>
<polygon fill="#0000ff" stroke="#0000ff" points="237.1146,-133.2992 230.2998,-125.1869 230.5683,-135.7784 237.1146,-133.2992"/>
<text text-anchor="middle" x="254" y="-332.8" font-family="Times,serif" font-size="14.00" fill="#000000">e&#45;1</text>
</g>
<!-- E_18 -->
<g id="node18" class="node">
<title>E_18</title>
<ellipse fill="none" stroke="#000000" cx="294" cy="-399" rx="32.4942" ry="18"/>
<text text-anchor="middle" x="294" y="-395.3" font-family="Times,serif" font-size="14.00" fill="#000000">Goto</text>
</g>
<!-- C_12_control&#45;&gt;E_18 -->
<g id="edge19" class="edge">
<title>C_12_control&#45;&gt;E_18</title>
<path fill="none" stroke="#0000ff" stroke-dasharray="1,5" d="M278.6174,-505.8239C281.5901,-485.1798 286.477,-451.2431 289.9443,-427.1648"/>
<polygon fill="#0000ff" stroke="#0000ff" points="293.4184,-427.5948 291.3795,-417.198 286.4898,-426.597 293.4184,-427.5948"/>
<text text-anchor="middle" x="297" y="-457.8" font-family="Times,serif" font-size="14.00" fill="#000000">e&#45;2</text>
</g>
<!-- V_14 -->
<g id="node14" class="node">
<title>V_14</title>
<ellipse fill="none" stroke="#00ff00" cx="174" cy="-274" rx="31.6951" ry="18"/>
<text text-anchor="middle" x="174" y="-270.3" font-family="Times,serif" font-size="14.00" fill="#000000">var1</text>
</g>
<!-- E_13&#45;&gt;V_14 -->
<g id="edge12" class="edge">
<title>E_13&#45;&gt;V_14</title>
<path fill="none" stroke="#000000" d="M127.8521,-380.8239C136.9017,-359.8756 151.8643,-325.2401 162.2898,-301.107"/>
<polygon fill="#000000" stroke="#000000" points="165.5605,-302.3613 166.3133,-291.7933 159.1345,-299.5853 165.5605,-302.3613"/>
</g>
<!-- V_14&#45;&gt;E_17 -->
<g id="edge18" class="edge">
<title>V_14&#45;&gt;E_17</title>
<path fill="none" stroke="#000000" d="M179.1368,-256.1281C187.4874,-227.0749 204.0687,-169.3861 213.9817,-134.8971"/>
<polygon fill="#000000" stroke="#000000" points="217.4289,-135.5736 216.8275,-124.9958 210.7013,-133.6399 217.4289,-135.5736"/>
</g>
<!-- E_15&#45;&gt;E_13 -->
<g id="edge13" class="edge">
<title>E_15&#45;&gt;E_13</title>
<path fill="none" stroke="#000000" d="M143.9286,-505.8239C139.3043,-485.1798 131.7024,-451.2431 126.3089,-427.1648"/>
<polygon fill="#000000" stroke="#000000" points="129.6776,-426.1911 124.0764,-417.198 122.8469,-427.7213 129.6776,-426.1911"/>
</g>
<!-- P_16 -->
<g id="node16" class="node">
<title>P_16</title>
<ellipse fill="none" stroke="#ffa500" cx="148" cy="-670" rx="45.4919" ry="18"/>
<text text-anchor="middle" x="148" y="-666.3" font-family="Times,serif" font-size="14.00" fill="#000000">Integer</text>
</g>
<!-- P_16&#45;&gt;E_15 -->
<g id="edge15" class="edge">
<title>P_16&#45;&gt;E_15</title>
<path fill="none" stroke="#000000" d="M148,-651.8042C148,-626.8868 148,-581.8938 148,-552.4877"/>
<polygon fill="#000000" stroke="#000000" points="151.5001,-552.4251 148,-542.4251 144.5001,-552.4251 151.5001,-552.4251"/>
</g>
<!-- E_17&#45;&gt;V_2 -->
<g id="edge17" class="edge">
<title>E_17&#45;&gt;V_2</title>
<path fill="none" stroke="#000000" d="M282.0355,-121.6998C329.2131,-135.0619 387,-156.2719 387,-180 387,-524 387,-524 387,-524 387,-538.8018 387.2081,-555.2902 387.4344,-568.8463"/>
<polygon fill="#000000" stroke="#000000" points="383.9377,-569.0653 387.6162,-579.001 390.9366,-568.9399 383.9377,-569.0653"/>
</g>
<!-- E_18&#45;&gt;C_5_control -->
<g id="edge24" class="edge">
<title>E_18&#45;&gt;C_5_control</title>
<path fill="none" stroke="#0000ff" stroke-dasharray="1,5" d="M325.0722,-404.3866C398.7957,-417.5453 589.9259,-453.88 755.3042,-505.6722"/>
<polygon fill="#0000ff" stroke="#0000ff" points="754.5657,-509.1094 765.1556,-508.7857 756.6753,-502.4348 754.5657,-509.1094"/>
<text text-anchor="middle" x="661" y="-457.8" font-family="Times,serif" font-size="14.00" fill="#000000">back&#45;edge</text>
</g>
<!-- E_19 -->
<g id="node20" class="node">
<title>E_19</title>
<ellipse fill="none" stroke="#000000" cx="794" cy="-34" rx="42.7926" ry="18"/>
<text text-anchor="middle" x="794" y="-30.3" font-family="Times,serif" font-size="14.00" fill="#000000">Return</text>
</g>
<!-- C_10_control&#45;&gt;E_19 -->
<g id="edge20" class="edge">
<title>C_10_control&#45;&gt;E_19</title>
<path fill="none" stroke="#0000ff" stroke-dasharray="1,5" d="M794,-161.8042C794,-136.8868 794,-91.8938 794,-62.4877"/>
<polygon fill="#0000ff" stroke="#0000ff" points="797.5001,-62.4251 794,-52.4251 790.5001,-62.4251 797.5001,-62.4251"/>
<text text-anchor="middle" x="805" y="-103.3" font-family="Times,serif" font-size="14.00" fill="#000000">e&#45;0</text>
</g>
</g>
</svg>
