<?xml version="1.0" encoding="UTF-8" standalone="no"?>
<!DOCTYPE svg PUBLIC "-//W3C//DTD SVG 1.1//EN" "http://www.w3.org/Graphics/SVG/1.1/DTD/svg11.dtd">
<!-- Generated by graphviz version 2.40.1 (20161225.0304)
 -->
<!-- Title: debugoutput Pages: 1 -->
<svg width="1200pt" height="1008pt" viewBox="0.00 0.00 1200.38 1008.40" xmlns="http://www.w3.org/2000/svg" xmlns:xlink="http://www.w3.org/1999/xlink">
<g id="graph0" class="graph" transform="scale(1 1) rotate(0) translate(4 1004.4)">
<title>debugoutput</title>
<polygon fill="#ffffff" stroke="transparent" points="-4,4 -4,-1004.4 1196.3752,-1004.4 1196.3752,4 -4,4"/>
<!-- node_0 -->
<g id="node1" class="node">
<title>node_0</title>
<polygon fill="#ff4500" stroke="#000000" points="507.3809,-1000.4 410.6191,-1000.4 410.6191,-964.4 507.3809,-964.4 507.3809,-1000.4"/>
<text text-anchor="middle" x="459" y="-978.2" font-family="Times,serif" font-size="14.00" fill="#000000">0 Region Start</text>
</g>
<!-- node_18 -->
<g id="node2" class="node">
<title>node_18</title>
<polygon fill="#ff4500" stroke="#000000" points="555.8374,-911.6 488.1626,-911.6 488.1626,-875.6 555.8374,-875.6 555.8374,-911.6"/>
<text text-anchor="middle" x="522" y="-889.4" font-family="Times,serif" font-size="14.00" fill="#000000">18 Copy </text>
</g>
<!-- node_0&#45;&gt;node_18 -->
<g id="edge1" class="edge">
<title>node_0-&gt;node_18</title>
<path fill="none" stroke="#ff0000" stroke-width="2" d="M472.0536,-964.0006C481.0673,-951.2956 493.1923,-934.2051 503.2385,-920.0448"/>
<polygon fill="#ff0000" stroke="#ff0000" stroke-width="2" points="506.2469,-921.8532 509.1786,-911.672 500.5377,-917.8027 506.2469,-921.8532"/>
</g>
<!-- node_3 -->
<g id="node5" class="node">
<title>node_3</title>
<polygon fill="#00eeee" stroke="#000000" points="610.4083,-804.8 584.7042,-822.8 533.2958,-822.8 507.5917,-804.8 533.2958,-786.8 584.7042,-786.8 610.4083,-804.8"/>
<text text-anchor="middle" x="559" y="-800.6" font-family="Times,serif" font-size="14.00" fill="#000000">3 PHI : I</text>
</g>
<!-- node_18&#45;&gt;node_3 -->
<g id="edge2" class="edge">
<title>node_18-&gt;node_3</title>
<path fill="none" stroke="#00eeee" d="M529.6664,-875.2006C534.8103,-862.8552 541.6796,-846.3689 547.4775,-832.4539"/>
<polygon fill="#00eeee" stroke="#00eeee" points="550.8546,-833.449 551.47,-822.872 544.393,-830.7566 550.8546,-833.449"/>
<text text-anchor="middle" x="558.1876" y="-845" font-family="Times,serif" font-size="14.00" fill="#000000">arg 0</text>
</g>
<!-- node_19 -->
<g id="node9" class="node">
<title>node_19</title>
<polygon fill="#ff4500" stroke="#000000" points="207.8374,-467.6 140.1626,-467.6 140.1626,-431.6 207.8374,-431.6 207.8374,-467.6"/>
<text text-anchor="middle" x="174" y="-445.4" font-family="Times,serif" font-size="14.00" fill="#000000">19 Copy </text>
</g>
<!-- node_18&#45;&gt;node_19 -->
<g id="edge26" class="edge">
<title>node_18-&gt;node_19</title>
<path fill="none" stroke="#ff0000" stroke-width="2" d="M488.1523,-891.4366C372.4799,-883.598 0,-854.498 0,-804.8 0,-804.8 0,-804.8 0,-538.4 0,-480.1774 78.2479,-460.1092 129.798,-453.2057"/>
<polygon fill="#ff0000" stroke="#ff0000" stroke-width="2" points="130.5347,-456.6419 140.038,-451.9581 129.6881,-449.6933 130.5347,-456.6419"/>
</g>
<!-- node_1 -->
<g id="node3" class="node">
<title>node_1</title>
<polygon fill="#ffb90f" stroke="#000000" points="673,-1000.4 525.0271,-982.4 673,-964.4 820.9729,-982.4 673,-1000.4"/>
<text text-anchor="middle" x="673" y="-978.2" font-family="Times,serif" font-size="14.00" fill="#000000">1 MethodArgument : #0</text>
</g>
<!-- node_1&#45;&gt;node_18 -->
<g id="edge25" class="edge">
<title>node_1-&gt;node_18</title>
<path fill="none" stroke="#00eeee" d="M647.3849,-967.3363C623.8743,-953.5102 588.6822,-932.8145 561.5606,-916.8648"/>
<polygon fill="#00eeee" stroke="#00eeee" points="563.0949,-913.7067 552.7007,-911.6544 559.5464,-919.7407 563.0949,-913.7067"/>
<text text-anchor="middle" x="626.1876" y="-933.8" font-family="Times,serif" font-size="14.00" fill="#000000">arg 0</text>
</g>
<!-- node_10 -->
<g id="node17" class="node">
<title>node_10</title>
<polygon fill="#00eeee" stroke="#000000" points="721.8424,-627.2 697.4212,-645.2 648.5788,-645.2 624.1576,-627.2 648.5788,-609.2 697.4212,-609.2 721.8424,-627.2"/>
<text text-anchor="middle" x="673" y="-623" font-family="Times,serif" font-size="14.00" fill="#000000">10 Add </text>
</g>
<!-- node_1&#45;&gt;node_10 -->
<g id="edge15" class="edge">
<title>node_1-&gt;node_10</title>
<path fill="none" stroke="#00eeee" d="M673,-964.3721C673,-946.4311 673,-918.1125 673,-893.6 673,-893.6 673,-893.6 673,-716 673,-695.7006 673,-672.791 673,-655.3264"/>
<polygon fill="#00eeee" stroke="#00eeee" points="676.5001,-655.2279 673,-645.2279 669.5001,-655.2279 676.5001,-655.2279"/>
<text text-anchor="middle" x="687.1876" y="-800.6" font-family="Times,serif" font-size="14.00" fill="#000000">arg 1</text>
</g>
<!-- node_2 -->
<g id="node4" class="node">
<title>node_2</title>
<polygon fill="#ffb90f" stroke="#000000" points="137,-556.4 27.8853,-538.4 137,-520.4 246.1147,-538.4 137,-556.4"/>
<text text-anchor="middle" x="137" y="-534.2" font-family="Times,serif" font-size="14.00" fill="#000000">2 PrimitiveInt : 0</text>
</g>
<!-- node_2&#45;&gt;node_19 -->
<g id="edge27" class="edge">
<title>node_2-&gt;node_19</title>
<path fill="none" stroke="#00eeee" d="M144.134,-521.2785C149.3209,-508.8299 156.454,-491.7105 162.4483,-477.324"/>
<polygon fill="#00eeee" stroke="#00eeee" points="165.763,-478.4687 166.3784,-467.8917 159.3015,-475.7763 165.763,-478.4687"/>
<text text-anchor="middle" x="173.1876" y="-489.8" font-family="Times,serif" font-size="14.00" fill="#000000">arg 0</text>
</g>
<!-- node_17 -->
<g id="node14" class="node">
<title>node_17</title>
<polygon fill="#ff4500" stroke="#000000" points="313.0298,-36 204.9702,-36 204.9702,0 313.0298,0 313.0298,-36"/>
<text text-anchor="middle" x="259" y="-13.8" font-family="Times,serif" font-size="14.00" fill="#000000">17 ReturnValue </text>
</g>
<!-- node_3&#45;&gt;node_17 -->
<g id="edge24" class="edge">
<title>node_3-&gt;node_17</title>
<path fill="none" stroke="#00eeee" d="M513.8409,-800.1796C433.4786,-790.6954 274,-765.6227 274,-716 274,-716 274,-716 274,-582.8 274,-455.1211 243,-424.8789 243,-297.2 243,-297.2 243,-297.2 243,-106.8 243,-86.3034 247.1797,-63.5614 251.2666,-46.2236"/>
<polygon fill="#00eeee" stroke="#00eeee" points="254.7436,-46.7444 253.761,-36.1952 247.9506,-45.0546 254.7436,-46.7444"/>
<text text-anchor="middle" x="268.1876" y="-391.4" font-family="Times,serif" font-size="14.00" fill="#000000">arg 0</text>
</g>
<!-- node_9 -->
<g id="node16" class="node">
<title>node_9</title>
<polygon fill="#00eeee" stroke="#000000" points="629.1911,-716 607.5955,-734 564.4045,-734 542.8089,-716 564.4045,-698 607.5955,-698 629.1911,-716"/>
<text text-anchor="middle" x="586" y="-711.8" font-family="Times,serif" font-size="14.00" fill="#000000">9 Add </text>
</g>
<!-- node_3&#45;&gt;node_9 -->
<g id="edge12" class="edge">
<title>node_3-&gt;node_9</title>
<path fill="none" stroke="#00eeee" d="M564.5944,-786.4006C568.3481,-774.0552 573.3608,-757.5689 577.5917,-743.6539"/>
<polygon fill="#00eeee" stroke="#00eeee" points="580.9446,-744.6577 580.5051,-734.072 574.2474,-742.6214 580.9446,-744.6577"/>
<text text-anchor="middle" x="589.1876" y="-756.2" font-family="Times,serif" font-size="14.00" fill="#000000">arg 0</text>
</g>
<!-- node_20 -->
<g id="node6" class="node">
<title>node_20</title>
<polygon fill="#ff4500" stroke="#000000" points="1107.8374,-270.8 1040.1626,-270.8 1040.1626,-234.8 1107.8374,-234.8 1107.8374,-270.8"/>
<text text-anchor="middle" x="1074" y="-248.6" font-family="Times,serif" font-size="14.00" fill="#000000">20 Copy </text>
</g>
<!-- node_20&#45;&gt;node_3 -->
<g id="edge3" class="edge">
<title>node_20-&gt;node_3</title>
<path fill="none" stroke="#00eeee" d="M1107.7687,-269.0804C1133.3066,-284.0122 1164,-308.7844 1164,-341.6 1164,-716 1164,-716 1164,-716 1164,-773.5403 707.7571,-777.3387 651,-786.8 637.3118,-789.0818 622.5359,-791.8404 608.9152,-794.5051"/>
<polygon fill="#00eeee" stroke="#00eeee" points="607.8917,-791.1397 598.7618,-796.5151 609.2511,-798.0065 607.8917,-791.1397"/>
<text text-anchor="middle" x="1178.1876" y="-534.2" font-family="Times,serif" font-size="14.00" fill="#000000">arg 1</text>
</g>
<!-- node_5 -->
<g id="node10" class="node">
<title>node_5</title>
<polygon fill="#ff4500" stroke="#000000" points="484.4944,-197.8 335.5056,-197.8 335.5056,-161.8 484.4944,-161.8 484.4944,-197.8"/>
<text text-anchor="middle" x="410" y="-175.6" font-family="Times,serif" font-size="14.00" fill="#000000">5 Region L1024597427</text>
</g>
<!-- node_20&#45;&gt;node_5 -->
<g id="edge30" class="edge">
<title>node_20-&gt;node_5</title>
<path fill="none" stroke="#ff0000" stroke-width="2" stroke-dasharray="5,2" d="M1040.1593,-249.0796C939.9582,-238.0635 642.5926,-205.3712 495.0227,-189.1474"/>
<polygon fill="#ff0000" stroke="#ff0000" stroke-width="2" points="494.9839,-185.6221 484.6613,-188.0082 494.2189,-192.5802 494.9839,-185.6221"/>
</g>
<!-- node_4 -->
<g id="node7" class="node">
<title>node_4</title>
<polygon fill="#00eeee" stroke="#000000" points="637.4083,-341.6 611.7042,-359.6 560.2958,-359.6 534.5917,-341.6 560.2958,-323.6 611.7042,-323.6 637.4083,-341.6"/>
<text text-anchor="middle" x="586" y="-337.4" font-family="Times,serif" font-size="14.00" fill="#000000">4 PHI : I</text>
</g>
<!-- node_8 -->
<g id="node13" class="node">
<title>node_8</title>
<polygon fill="#00eeee" stroke="#000000" points="530.799,-252.8 475.3995,-270.8 364.6005,-270.8 309.201,-252.8 364.6005,-234.8 475.3995,-234.8 530.799,-252.8"/>
<text text-anchor="middle" x="420" y="-248.6" font-family="Times,serif" font-size="14.00" fill="#000000">8 NumericalTest : GE</text>
</g>
<!-- node_4&#45;&gt;node_8 -->
<g id="edge10" class="edge">
<title>node_4-&gt;node_8</title>
<path fill="none" stroke="#00eeee" d="M556.7046,-325.9288C530.6402,-311.9859 492.1933,-291.419 462.7055,-275.6449"/>
<polygon fill="#00eeee" stroke="#00eeee" points="464.334,-272.5468 453.8654,-270.916 461.0322,-278.7191 464.334,-272.5468"/>
<text text-anchor="middle" x="532.1876" y="-293" font-family="Times,serif" font-size="14.00" fill="#000000">arg 0</text>
</g>
<!-- node_4&#45;&gt;node_9 -->
<g id="edge13" class="edge">
<title>node_4-&gt;node_9</title>
<path fill="none" stroke="#00eeee" d="M586,-359.945C586,-381.432 586,-418.1 586,-449.6 586,-627.2 586,-627.2 586,-627.2 586,-647.4994 586,-670.409 586,-687.8736"/>
<polygon fill="#00eeee" stroke="#00eeee" points="582.5001,-687.9721 586,-697.9721 589.5001,-687.9721 582.5001,-687.9721"/>
<text text-anchor="middle" x="600.1876" y="-534.2" font-family="Times,serif" font-size="14.00" fill="#000000">arg 1</text>
</g>
<!-- node_14 -->
<g id="node20" class="node">
<title>node_14</title>
<polygon fill="#00eeee" stroke="#000000" points="857.8424,-252.8 833.4212,-270.8 784.5788,-270.8 760.1576,-252.8 784.5788,-234.8 833.4212,-234.8 857.8424,-252.8"/>
<text text-anchor="middle" x="809" y="-248.6" font-family="Times,serif" font-size="14.00" fill="#000000">14 Add </text>
</g>
<!-- node_4&#45;&gt;node_14 -->
<g id="edge19" class="edge">
<title>node_4-&gt;node_14</title>
<path fill="none" stroke="#00eeee" d="M625.0676,-332.8006C650.3375,-326.5367 683.6798,-317.1879 712,-305.6 733.0048,-297.0054 755.3229,-285.0706 773.2494,-274.7219"/>
<polygon fill="#00eeee" stroke="#00eeee" points="775.335,-277.5564 782.1932,-269.4808 771.7958,-271.517 775.335,-277.5564"/>
<text text-anchor="middle" x="762.1876" y="-293" font-family="Times,serif" font-size="14.00" fill="#000000">arg 0</text>
</g>
<!-- node_15 -->
<g id="node8" class="node">
<title>node_15</title>
<polygon fill="#ff4500" stroke="#000000" points="926.8374,-467.6 859.1626,-467.6 859.1626,-431.6 926.8374,-431.6 926.8374,-467.6"/>
<text text-anchor="middle" x="893" y="-445.4" font-family="Times,serif" font-size="14.00" fill="#000000">15 Copy </text>
</g>
<!-- node_15&#45;&gt;node_4 -->
<g id="edge4" class="edge">
<title>node_15-&gt;node_4</title>
<path fill="none" stroke="#00eeee" d="M859.2674,-437.7332C803.3792,-418.0722 691.6193,-378.756 629.7434,-356.9886"/>
<polygon fill="#00eeee" stroke="#00eeee" points="630.8521,-353.6684 620.2572,-353.6514 628.529,-360.2717 630.8521,-353.6684"/>
<text text-anchor="middle" x="799.1876" y="-391.4" font-family="Times,serif" font-size="14.00" fill="#000000">arg 0</text>
</g>
<!-- node_16 -->
<g id="node21" class="node">
<title>node_16</title>
<polygon fill="#ff4500" stroke="#000000" points="1072.4972,-359.6 1007.5028,-359.6 1007.5028,-323.6 1072.4972,-323.6 1072.4972,-359.6"/>
<text text-anchor="middle" x="1040" y="-337.4" font-family="Times,serif" font-size="14.00" fill="#000000">16 Goto </text>
</g>
<!-- node_15&#45;&gt;node_16 -->
<g id="edge22" class="edge">
<title>node_15-&gt;node_16</title>
<path fill="none" stroke="#ff0000" stroke-width="2" d="M926.8981,-438.91C942.498,-432.9795 960.6772,-424.5603 975,-413.6 991.3164,-401.1141 990.2718,-392.886 1004,-377.6 1007.0729,-374.1784 1010.3839,-370.6605 1013.7091,-367.2268"/>
<polygon fill="#ff0000" stroke="#ff0000" stroke-width="2" points="1016.3922,-369.4909 1020.9247,-359.9145 1011.4095,-364.5742 1016.3922,-369.4909"/>
</g>
<!-- node_19&#45;&gt;node_4 -->
<g id="edge5" class="edge">
<title>node_19-&gt;node_4</title>
<path fill="none" stroke="#00eeee" d="M208.1037,-441.375C271.1084,-426.0699 409.9163,-391.8381 526,-359.6 530.6663,-358.3041 535.5247,-356.9144 540.3672,-355.5027"/>
<polygon fill="#00eeee" stroke="#00eeee" points="541.6168,-358.7833 550.2181,-352.5972 539.6364,-352.0693 541.6168,-358.7833"/>
<text text-anchor="middle" x="473.1876" y="-391.4" font-family="Times,serif" font-size="14.00" fill="#000000">arg 1</text>
</g>
<!-- node_19&#45;&gt;node_5 -->
<g id="edge28" class="edge">
<title>node_19-&gt;node_5</title>
<path fill="none" stroke="#ff0000" stroke-width="2" d="M180.498,-431.4392C195.674,-391.2551 237.0064,-293.7169 300,-234.8 314.2099,-221.5097 332.2411,-210.7122 349.5728,-202.3167"/>
<polygon fill="#ff0000" stroke="#ff0000" stroke-width="2" points="351.5007,-205.2808 359.1008,-197.8991 348.5563,-198.9302 351.5007,-205.2808"/>
</g>
<!-- node_7 -->
<g id="node11" class="node">
<title>node_7</title>
<polygon fill="#ff4500" stroke="#000000" points="368,-124.8 314,-124.8 314,-88.8 368,-88.8 368,-124.8"/>
<text text-anchor="middle" x="341" y="-102.6" font-family="Times,serif" font-size="14.00" fill="#000000">7 If </text>
</g>
<!-- node_5&#45;&gt;node_7 -->
<g id="edge6" class="edge">
<title>node_5-&gt;node_7</title>
<path fill="none" stroke="#ff0000" stroke-width="2" d="M392.9438,-161.7551C384.5675,-152.8932 374.3295,-142.0616 365.1638,-132.3646"/>
<polygon fill="#ff0000" stroke="#ff0000" stroke-width="2" points="367.5119,-129.7535 358.0991,-124.8904 362.4247,-134.562 367.5119,-129.7535"/>
</g>
<!-- node_7&#45;&gt;node_17 -->
<g id="edge8" class="edge">
<title>node_7-&gt;node_17</title>
<path fill="none" stroke="#ff0000" stroke-width="2" d="M324.0095,-88.4006C312.0561,-75.4559 295.8987,-57.9586 282.6825,-43.6464"/>
<polygon fill="#ff0000" stroke="#ff0000" stroke-width="2" points="285.0437,-41.0443 275.6881,-36.072 279.901,-45.7933 285.0437,-41.0443"/>
<text text-anchor="middle" x="326.2742" y="-58.2" font-family="Times,serif" font-size="14.00" fill="#000000">TRUE</text>
</g>
<!-- node_12 -->
<g id="node15" class="node">
<title>node_12</title>
<polygon fill="#ff4500" stroke="#000000" points="782.8374,-556.4 715.1626,-556.4 715.1626,-520.4 782.8374,-520.4 782.8374,-556.4"/>
<text text-anchor="middle" x="749" y="-534.2" font-family="Times,serif" font-size="14.00" fill="#000000">12 Copy </text>
</g>
<!-- node_7&#45;&gt;node_12 -->
<g id="edge9" class="edge">
<title>node_7-&gt;node_12</title>
<path fill="none" stroke="#ff0000" stroke-width="2" d="M368.0668,-110.0228C445.9369,-119.657 665,-149.4564 665,-179.8 665,-449.6 665,-449.6 665,-449.6 665,-476.765 686.0026,-498.9661 707.0038,-514.3754"/>
<polygon fill="#ff0000" stroke="#ff0000" stroke-width="2" points="705.1077,-517.3198 715.318,-520.1485 709.1003,-511.57 705.1077,-517.3198"/>
<text text-anchor="middle" x="686.3885" y="-293" font-family="Times,serif" font-size="14.00" fill="#000000">FALSE</text>
</g>
<!-- node_6 -->
<g id="node12" class="node">
<title>node_6</title>
<polygon fill="#ffb90f" stroke="#000000" points="394,-359.6 271.0717,-341.6 394,-323.6 516.9283,-341.6 394,-359.6"/>
<text text-anchor="middle" x="394" y="-337.4" font-family="Times,serif" font-size="14.00" fill="#000000">6 PrimitiveInt : 100</text>
</g>
<!-- node_6&#45;&gt;node_8 -->
<g id="edge11" class="edge">
<title>node_6-&gt;node_8</title>
<path fill="none" stroke="#00eeee" d="M399.1368,-324.056C402.757,-311.6914 407.6805,-294.8759 411.8354,-280.6852"/>
<polygon fill="#00eeee" stroke="#00eeee" points="415.2444,-281.4978 414.6954,-270.9172 408.5264,-279.5308 415.2444,-281.4978"/>
<text text-anchor="middle" x="424.1876" y="-293" font-family="Times,serif" font-size="14.00" fill="#000000">arg 1</text>
</g>
<!-- node_8&#45;&gt;node_7 -->
<g id="edge7" class="edge">
<title>node_8-&gt;node_7</title>
<path fill="none" stroke="#00eeee" d="M354.0011,-238.2035C332.6364,-230.0156 311.2235,-217.3409 298.6248,-197.8 285.2386,-177.0377 299.6686,-151.3678 315.2147,-132.5907"/>
<polygon fill="#00eeee" stroke="#00eeee" points="317.9087,-134.8271 321.8678,-124.9998 312.6444,-130.2132 317.9087,-134.8271"/>
<text text-anchor="middle" x="313.1876" y="-175.6" font-family="Times,serif" font-size="14.00" fill="#000000">arg 0</text>
</g>
<!-- node_12&#45;&gt;node_15 -->
<g id="edge18" class="edge">
<title>node_12-&gt;node_15</title>
<path fill="none" stroke="#ff0000" stroke-width="2" d="M778.488,-520.2157C800.5226,-506.6277 830.8333,-487.9361 854.7352,-473.1966"/>
<polygon fill="#ff0000" stroke="#ff0000" stroke-width="2" points="856.8768,-475.988 863.5514,-467.76 853.2026,-470.0298 856.8768,-475.988"/>
</g>
<!-- node_11 -->
<g id="node18" class="node">
<title>node_11</title>
<ellipse fill="#00eeee" stroke="#000000" cx="1079" cy="-395.6" rx="67.1535" ry="18"/>
<text text-anchor="middle" x="1079" y="-391.4" font-family="Times,serif" font-size="14.00" fill="#000000">11 Variable : I</text>
</g>
<!-- node_12&#45;&gt;node_11 -->
<g id="edge16" class="edge">
<title>node_12-&gt;node_11</title>
<path fill="none" stroke="#00eeee" d="M782.8681,-526.7802C820.6591,-513.5378 883.4058,-490.7213 936,-467.6 971.7776,-451.8715 1011.3923,-431.7006 1039.8362,-416.7119"/>
<polygon fill="#00eeee" stroke="#00eeee" points="1041.8335,-419.6147 1049.0325,-411.8414 1038.5573,-413.4288 1041.8335,-419.6147"/>
<text text-anchor="middle" x="907.1876" y="-489.8" font-family="Times,serif" font-size="14.00" fill="#000000">arg 0</text>
</g>
<!-- node_9&#45;&gt;node_10 -->
<g id="edge14" class="edge">
<title>node_9-&gt;node_10</title>
<path fill="none" stroke="#00eeee" d="M600.1755,-697.7577C608.6195,-687.2769 619.7757,-674.0769 630.6248,-663.2 634.3636,-659.4517 638.4453,-655.6571 642.5513,-652.0082"/>
<polygon fill="#00eeee" stroke="#00eeee" points="645.1227,-654.4116 650.3938,-645.221 640.5419,-649.1185 645.1227,-654.4116"/>
<text text-anchor="middle" x="645.1876" y="-667.4" font-family="Times,serif" font-size="14.00" fill="#000000">arg 0</text>
</g>
<!-- node_10&#45;&gt;node_12 -->
<g id="edge17" class="edge">
<title>node_10-&gt;node_12</title>
<path fill="none" stroke="#00eeee" d="M688.7472,-608.8006C699.7235,-595.9757 714.5242,-578.6822 726.7094,-564.4448"/>
<polygon fill="#00eeee" stroke="#00eeee" points="729.6897,-566.3452 733.533,-556.472 724.3716,-561.7936 729.6897,-566.3452"/>
<text text-anchor="middle" x="732.1876" y="-578.6" font-family="Times,serif" font-size="14.00" fill="#000000">arg 0</text>
</g>
<!-- node_11&#45;&gt;node_20 -->
<g id="edge29" class="edge">
<title>node_11-&gt;node_20</title>
<path fill="none" stroke="#00eeee" d="M1080.214,-377.2941C1080.537,-371.6251 1080.8402,-365.3566 1081,-359.6 1081.4439,-343.6062 1081.7881,-339.5806 1081,-323.6 1080.3061,-309.5286 1078.8409,-293.9411 1077.4294,-280.982"/>
<polygon fill="#00eeee" stroke="#00eeee" points="1080.8799,-280.3471 1076.2746,-270.8056 1073.9246,-281.1365 1080.8799,-280.3471"/>
<text text-anchor="middle" x="1095.1876" y="-337.4" font-family="Times,serif" font-size="14.00" fill="#000000">arg 0</text>
</g>
<!-- node_13 -->
<g id="node19" class="node">
<title>node_13</title>
<polygon fill="#ffb90f" stroke="#000000" points="809,-359.6 692.7285,-341.6 809,-323.6 925.2715,-341.6 809,-359.6"/>
<text text-anchor="middle" x="809" y="-337.4" font-family="Times,serif" font-size="14.00" fill="#000000">13 PrimitiveInt : 1</text>
</g>
<!-- node_13&#45;&gt;node_14 -->
<g id="edge20" class="edge">
<title>node_13-&gt;node_14</title>
<path fill="none" stroke="#00eeee" d="M809,-323.2006C809,-311.0949 809,-295.0076 809,-281.2674"/>
<polygon fill="#00eeee" stroke="#00eeee" points="812.5001,-280.872 809,-270.872 805.5001,-280.8721 812.5001,-280.872"/>
<text text-anchor="middle" x="823.1876" y="-293" font-family="Times,serif" font-size="14.00" fill="#000000">arg 1</text>
</g>
<!-- node_14&#45;&gt;node_15 -->
<g id="edge21" class="edge">
<title>node_14-&gt;node_15</title>
<path fill="none" stroke="#00eeee" d="M845.2645,-262.3404C874.9537,-272.2772 915.0354,-291.0631 934,-323.6 952.5255,-355.3835 931.9054,-396.6277 913.8184,-423.1092"/>
<polygon fill="#00eeee" stroke="#00eeee" points="910.799,-421.3152 907.8419,-431.489 916.498,-425.3798 910.799,-421.3152"/>
<text text-anchor="middle" x="956.1876" y="-337.4" font-family="Times,serif" font-size="14.00" fill="#000000">arg 0</text>
</g>
<!-- node_16&#45;&gt;node_20 -->
<g id="edge23" class="edge">
<title>node_16-&gt;node_20</title>
<path fill="none" stroke="#ff0000" stroke-width="2" d="M1047.0448,-323.2006C1051.7717,-310.8552 1058.084,-294.3689 1063.4118,-280.4539"/>
<polygon fill="#ff0000" stroke="#ff0000" stroke-width="2" points="1066.7734,-281.4624 1067.0805,-270.872 1060.2362,-278.9594 1066.7734,-281.4624"/>
</g>
</g>
</svg>