<?xml version="1.0" encoding="UTF-8" standalone="no"?>
<!DOCTYPE svg PUBLIC "-//W3C//DTD SVG 1.1//EN" "http://www.w3.org/Graphics/SVG/1.1/DTD/svg11.dtd">
<!-- Generated by graphviz version 2.40.1 (20161225.0304)
 -->
<!-- Title: debugoutput Pages: 1 -->
<svg width="1100pt" height="1786pt" viewBox="0.00 0.00 1100.25 1785.80" xmlns="http://www.w3.org/2000/svg" xmlns:xlink="http://www.w3.org/1999/xlink">
<g id="graph0" class="graph" transform="scale(1 1) rotate(0) translate(4 1781.8)">
<title>debugoutput</title>
<polygon fill="#ffffff" stroke="transparent" points="-4,4 -4,-1781.8 1096.2509,-1781.8 1096.2509,4 -4,4"/>
<!-- node_0 -->
<g id="node1" class="node">
<title>node_0</title>
<polygon fill="#ff4500" stroke="#000000" points="655.6453,-1777.8 558.8835,-1777.8 558.8835,-1741.8 655.6453,-1741.8 655.6453,-1777.8"/>
<text text-anchor="middle" x="607.2644" y="-1755.6" font-family="Times,serif" font-size="14.00" fill="#000000">0 Region Start</text>
</g>
<!-- node_2 -->
<g id="node2" class="node">
<title>node_2</title>
<polygon fill="#ff4500" stroke="#000000" points="678.2588,-1704.8 536.27,-1704.8 536.27,-1668.8 678.2588,-1668.8 678.2588,-1704.8"/>
<text text-anchor="middle" x="607.2644" y="-1682.6" font-family="Times,serif" font-size="14.00" fill="#000000">2 Region L572593338</text>
</g>
<!-- node_0&#45;&gt;node_2 -->
<g id="edge1" class="edge">
<title>node_0-&gt;node_2</title>
<path fill="none" stroke="#ff0000" stroke-width="2" d="M607.2644,-1741.7551C607.2644,-1733.6828 607.2644,-1723.9764 607.2644,-1714.9817"/>
<polygon fill="#ff0000" stroke="#ff0000" stroke-width="2" points="610.7645,-1714.8903 607.2644,-1704.8904 603.7645,-1714.8904 610.7645,-1714.8903"/>
</g>
<!-- node_3 -->
<g id="node4" class="node">
<title>node_3</title>
<polygon fill="#ff4500" stroke="#000000" points="742.2488,-1631.8 472.28,-1631.8 472.28,-1595.8 742.2488,-1595.8 742.2488,-1631.8"/>
<text text-anchor="middle" x="607.2644" y="-1609.6" font-family="Times,serif" font-size="14.00" fill="#000000">3 LineNumberDebugInfo : IRExport.java#33</text>
</g>
<!-- node_2&#45;&gt;node_3 -->
<g id="edge2" class="edge">
<title>node_2-&gt;node_3</title>
<path fill="none" stroke="#ff0000" stroke-width="2" d="M607.2644,-1668.7551C607.2644,-1660.6828 607.2644,-1650.9764 607.2644,-1641.9817"/>
<polygon fill="#ff0000" stroke="#ff0000" stroke-width="2" points="610.7645,-1641.8903 607.2644,-1631.8904 603.7645,-1641.8904 610.7645,-1641.8903"/>
</g>
<!-- node_1 -->
<g id="node3" class="node">
<title>node_1</title>
<polygon fill="#ffb90f" stroke="#000000" points="944.2644,-1485.8 796.2915,-1467.8 944.2644,-1449.8 1092.2373,-1467.8 944.2644,-1485.8"/>
<text text-anchor="middle" x="944.2644" y="-1463.6" font-family="Times,serif" font-size="14.00" fill="#000000">1 MethodArgument : #0</text>
</g>
<!-- node_30 -->
<g id="node7" class="node">
<title>node_30</title>
<polygon fill="#ff4500" stroke="#000000" points="641.1018,-1397 573.427,-1397 573.427,-1361 641.1018,-1361 641.1018,-1397"/>
<text text-anchor="middle" x="607.2644" y="-1374.8" font-family="Times,serif" font-size="14.00" fill="#000000">30 Copy </text>
</g>
<!-- node_1&#45;&gt;node_30 -->
<g id="edge37" class="edge">
<title>node_1-&gt;node_30</title>
<path fill="none" stroke="#00eeee" d="M897.406,-1455.4527C831.9989,-1438.2179 714.2314,-1407.186 650.707,-1390.4472"/>
<polygon fill="#00eeee" stroke="#00eeee" points="651.5555,-1387.0514 640.9938,-1387.8877 649.7719,-1393.8203 651.5555,-1387.0514"/>
<text text-anchor="middle" x="819.452" y="-1419.2" font-family="Times,serif" font-size="14.00" fill="#000000">arg 0</text>
</g>
<!-- node_17 -->
<g id="node24" class="node">
<title>node_17</title>
<polygon fill="#00eeee" stroke="#000000" points="934.1068,-1112.6 909.6856,-1130.6 860.8432,-1130.6 836.422,-1112.6 860.8432,-1094.6 909.6856,-1094.6 934.1068,-1112.6"/>
<text text-anchor="middle" x="885.2644" y="-1108.4" font-family="Times,serif" font-size="14.00" fill="#000000">17 Add </text>
</g>
<!-- node_1&#45;&gt;node_17 -->
<g id="edge22" class="edge">
<title>node_1-&gt;node_17</title>
<path fill="none" stroke="#00eeee" d="M955.655,-1450.932C966.2019,-1433.65 980.2644,-1405.6166 980.2644,-1379 980.2644,-1379 980.2644,-1379 980.2644,-1201.4 980.2644,-1169.4914 951.3077,-1145.749 925.3679,-1130.8817"/>
<polygon fill="#00eeee" stroke="#00eeee" points="926.8288,-1127.6923 916.371,-1125.9943 923.4874,-1133.8433 926.8288,-1127.6923"/>
<text text-anchor="middle" x="994.452" y="-1286" font-family="Times,serif" font-size="14.00" fill="#000000">arg 1</text>
</g>
<!-- node_4 -->
<g id="node5" class="node">
<title>node_4</title>
<polygon fill="#ff4500" stroke="#000000" points="678.2588,-1558.8 536.27,-1558.8 536.27,-1522.8 678.2588,-1522.8 678.2588,-1558.8"/>
<text text-anchor="middle" x="607.2644" y="-1536.6" font-family="Times,serif" font-size="14.00" fill="#000000">4 Region L384294141</text>
</g>
<!-- node_3&#45;&gt;node_4 -->
<g id="edge3" class="edge">
<title>node_3-&gt;node_4</title>
<path fill="none" stroke="#ff0000" stroke-width="2" d="M607.2644,-1595.7551C607.2644,-1587.6828 607.2644,-1577.9764 607.2644,-1568.9817"/>
<polygon fill="#ff0000" stroke="#ff0000" stroke-width="2" points="610.7645,-1568.8903 607.2644,-1558.8904 603.7645,-1568.8904 610.7645,-1568.8903"/>
</g>
<!-- node_5 -->
<g id="node6" class="node">
<title>node_5</title>
<polygon fill="#ff4500" stroke="#000000" points="742.2488,-1485.8 472.28,-1485.8 472.28,-1449.8 742.2488,-1449.8 742.2488,-1485.8"/>
<text text-anchor="middle" x="607.2644" y="-1463.6" font-family="Times,serif" font-size="14.00" fill="#000000">5 LineNumberDebugInfo : IRExport.java#34</text>
</g>
<!-- node_4&#45;&gt;node_5 -->
<g id="edge4" class="edge">
<title>node_4-&gt;node_5</title>
<path fill="none" stroke="#ff0000" stroke-width="2" d="M607.2644,-1522.7551C607.2644,-1514.6828 607.2644,-1504.9764 607.2644,-1495.9817"/>
<polygon fill="#ff0000" stroke="#ff0000" stroke-width="2" points="610.7645,-1495.8903 607.2644,-1485.8904 603.7645,-1495.8904 610.7645,-1495.8903"/>
</g>
<!-- node_5&#45;&gt;node_30 -->
<g id="edge5" class="edge">
<title>node_5-&gt;node_30</title>
<path fill="none" stroke="#ff0000" stroke-width="2" d="M607.2644,-1449.4006C607.2644,-1437.2949 607.2644,-1421.2076 607.2644,-1407.4674"/>
<polygon fill="#ff0000" stroke="#ff0000" stroke-width="2" points="610.7645,-1407.072 607.2644,-1397.072 603.7645,-1407.0721 610.7645,-1407.072"/>
</g>
<!-- node_7 -->
<g id="node9" class="node">
<title>node_7</title>
<polygon fill="#00eeee" stroke="#000000" points="658.6727,-1290.2 632.9686,-1308.2 581.5602,-1308.2 555.8561,-1290.2 581.5602,-1272.2 632.9686,-1272.2 658.6727,-1290.2"/>
<text text-anchor="middle" x="607.2644" y="-1286" font-family="Times,serif" font-size="14.00" fill="#000000">7 PHI : I</text>
</g>
<!-- node_30&#45;&gt;node_7 -->
<g id="edge6" class="edge">
<title>node_30-&gt;node_7</title>
<path fill="none" stroke="#00eeee" d="M607.2644,-1360.6006C607.2644,-1348.4949 607.2644,-1332.4076 607.2644,-1318.6674"/>
<polygon fill="#00eeee" stroke="#00eeee" points="610.7645,-1318.272 607.2644,-1308.272 603.7645,-1318.2721 610.7645,-1318.272"/>
<text text-anchor="middle" x="621.452" y="-1330.4" font-family="Times,serif" font-size="14.00" fill="#000000">arg 0</text>
</g>
<!-- node_31 -->
<g id="node13" class="node">
<title>node_31</title>
<polygon fill="#ff4500" stroke="#000000" points="392.1018,-756.2 324.427,-756.2 324.427,-720.2 392.1018,-720.2 392.1018,-756.2"/>
<text text-anchor="middle" x="358.2644" y="-734" font-family="Times,serif" font-size="14.00" fill="#000000">31 Copy </text>
</g>
<!-- node_30&#45;&gt;node_31 -->
<g id="edge38" class="edge">
<title>node_30-&gt;node_31</title>
<path fill="none" stroke="#ff0000" stroke-width="2" d="M573.485,-1377.0338C455.2658,-1369.709 67.2644,-1341.7425 67.2644,-1290.2 67.2644,-1290.2 67.2644,-1290.2 67.2644,-827 67.2644,-775.9659 233.065,-751.3806 314.3652,-742.393"/>
<polygon fill="#ff0000" stroke="#ff0000" stroke-width="2" points="314.7444,-745.8725 324.3135,-741.3245 313.9969,-738.9125 314.7444,-745.8725"/>
</g>
<!-- node_6 -->
<g id="node8" class="node">
<title>node_6</title>
<polygon fill="#ffb90f" stroke="#000000" points="358.2644,-845 249.1497,-827 358.2644,-809 467.3791,-827 358.2644,-845"/>
<text text-anchor="middle" x="358.2644" y="-822.8" font-family="Times,serif" font-size="14.00" fill="#000000">6 PrimitiveInt : 0</text>
</g>
<!-- node_6&#45;&gt;node_31 -->
<g id="edge39" class="edge">
<title>node_6-&gt;node_31</title>
<path fill="none" stroke="#00eeee" d="M358.2644,-808.6006C358.2644,-796.4949 358.2644,-780.4076 358.2644,-766.6674"/>
<polygon fill="#00eeee" stroke="#00eeee" points="361.7645,-766.272 358.2644,-756.272 354.7645,-766.2721 361.7645,-766.272"/>
<text text-anchor="middle" x="372.452" y="-778.4" font-family="Times,serif" font-size="14.00" fill="#000000">arg 0</text>
</g>
<!-- node_16 -->
<g id="node23" class="node">
<title>node_16</title>
<polygon fill="#00eeee" stroke="#000000" points="656.1068,-1201.4 631.6856,-1219.4 582.8432,-1219.4 558.422,-1201.4 582.8432,-1183.4 631.6856,-1183.4 656.1068,-1201.4"/>
<text text-anchor="middle" x="607.2644" y="-1197.2" font-family="Times,serif" font-size="14.00" fill="#000000">16 Add </text>
</g>
<!-- node_7&#45;&gt;node_16 -->
<g id="edge19" class="edge">
<title>node_7-&gt;node_16</title>
<path fill="none" stroke="#00eeee" d="M607.2644,-1271.8006C607.2644,-1259.6949 607.2644,-1243.6076 607.2644,-1229.8674"/>
<polygon fill="#00eeee" stroke="#00eeee" points="610.7645,-1229.472 607.2644,-1219.472 603.7645,-1229.4721 610.7645,-1229.472"/>
<text text-anchor="middle" x="621.452" y="-1241.6" font-family="Times,serif" font-size="14.00" fill="#000000">arg 0</text>
</g>
<!-- node_29 -->
<g id="node33" class="node">
<title>node_29</title>
<polygon fill="#ff4500" stroke="#000000" points="108.2942,-36 .2346,-36 .2346,0 108.2942,0 108.2942,-36"/>
<text text-anchor="middle" x="54.2644" y="-13.8" font-family="Times,serif" font-size="14.00" fill="#000000">29 ReturnValue </text>
</g>
<!-- node_7&#45;&gt;node_29 -->
<g id="edge36" class="edge">
<title>node_7-&gt;node_29</title>
<path fill="none" stroke="#00eeee" d="M560.4882,-1286.8244C435.8667,-1277.2087 105.2644,-1247.3677 105.2644,-1201.4 105.2644,-1201.4 105.2644,-1201.4 105.2644,-881 105.2644,-811.6313 42.2644,-807.5687 42.2644,-738.2 42.2644,-738.2 42.2644,-738.2 42.2644,-91 42.2644,-76.1023 44.7279,-59.7182 47.4226,-46.2531"/>
<polygon fill="#00eeee" stroke="#00eeee" points="50.9114,-46.6765 49.5905,-36.1644 44.0677,-45.2058 50.9114,-46.6765"/>
<text text-anchor="middle" x="56.452" y="-600.8" font-family="Times,serif" font-size="14.00" fill="#000000">arg 0</text>
</g>
<!-- node_32 -->
<g id="node10" class="node">
<title>node_32</title>
<polygon fill="#ff4500" stroke="#000000" points="933.1018,-578.6 865.427,-578.6 865.427,-542.6 933.1018,-542.6 933.1018,-578.6"/>
<text text-anchor="middle" x="899.2644" y="-556.4" font-family="Times,serif" font-size="14.00" fill="#000000">32 Copy </text>
</g>
<!-- node_32&#45;&gt;node_7 -->
<g id="edge7" class="edge">
<title>node_32-&gt;node_7</title>
<path fill="none" stroke="#00eeee" d="M927.3922,-578.7878C958.7952,-601.5542 1005.2644,-643.7063 1005.2644,-693.8 1005.2644,-1112.6 1005.2644,-1112.6 1005.2644,-1112.6 1005.2644,-1188.1906 762.8187,-1253.9731 656.3788,-1279.2109"/>
<polygon fill="#00eeee" stroke="#00eeee" points="655.4512,-1275.8334 646.5154,-1281.5256 657.0506,-1282.6482 655.4512,-1275.8334"/>
<text text-anchor="middle" x="1019.452" y="-930.8" font-family="Times,serif" font-size="14.00" fill="#000000">arg 1</text>
</g>
<!-- node_9 -->
<g id="node14" class="node">
<title>node_9</title>
<polygon fill="#ff4500" stroke="#000000" points="432.7588,-505.6 283.77,-505.6 283.77,-469.6 432.7588,-469.6 432.7588,-505.6"/>
<text text-anchor="middle" x="358.2644" y="-483.4" font-family="Times,serif" font-size="14.00" fill="#000000">9 Region L1024597427</text>
</g>
<!-- node_32&#45;&gt;node_9 -->
<g id="edge42" class="edge">
<title>node_32-&gt;node_9</title>
<path fill="none" stroke="#ff0000" stroke-width="2" stroke-dasharray="5,2" d="M865.4224,-556.0335C781.9477,-544.7698 564.214,-515.3899 442.9367,-499.0253"/>
<polygon fill="#ff0000" stroke="#ff0000" stroke-width="2" points="443.3205,-495.5454 432.9423,-497.6767 442.3844,-502.4826 443.3205,-495.5454"/>
</g>
<!-- node_8 -->
<g id="node11" class="node">
<title>node_8</title>
<polygon fill="#00eeee" stroke="#000000" points="488.6727,-649.4 462.9686,-667.4 411.5602,-667.4 385.8561,-649.4 411.5602,-631.4 462.9686,-631.4 488.6727,-649.4"/>
<text text-anchor="middle" x="437.2644" y="-645.2" font-family="Times,serif" font-size="14.00" fill="#000000">8 PHI : I</text>
</g>
<!-- node_13 -->
<g id="node18" class="node">
<title>node_13</title>
<polygon fill="#00eeee" stroke="#000000" points="330.7142,-560.6 272.4893,-578.6 156.0395,-578.6 97.8146,-560.6 156.0395,-542.6 272.4893,-542.6 330.7142,-560.6"/>
<text text-anchor="middle" x="214.2644" y="-556.4" font-family="Times,serif" font-size="14.00" fill="#000000">13 NumericalTest : GE</text>
</g>
<!-- node_8&#45;&gt;node_13 -->
<g id="edge15" class="edge">
<title>node_8-&gt;node_13</title>
<path fill="none" stroke="#00eeee" d="M404.36,-636.2973C368.767,-622.1239 311.4335,-599.2933 269.027,-582.4068"/>
<polygon fill="#00eeee" stroke="#00eeee" points="270.2628,-579.1317 259.6774,-578.6837 267.673,-585.635 270.2628,-579.1317"/>
<text text-anchor="middle" x="359.452" y="-600.8" font-family="Times,serif" font-size="14.00" fill="#000000">arg 0</text>
</g>
<!-- node_8&#45;&gt;node_16 -->
<g id="edge20" class="edge">
<title>node_8-&gt;node_16</title>
<path fill="none" stroke="#00eeee" d="M469.897,-662.7966C498.4052,-676.9212 535.2644,-702.1533 535.2644,-738.2 535.2644,-1112.6 535.2644,-1112.6 535.2644,-1112.6 535.2644,-1138.9972 554.6981,-1161.9343 573.3727,-1177.8816"/>
<polygon fill="#00eeee" stroke="#00eeee" points="571.2968,-1180.7043 581.2707,-1184.278 575.7023,-1175.2644 571.2968,-1180.7043"/>
<text text-anchor="middle" x="549.452" y="-930.8" font-family="Times,serif" font-size="14.00" fill="#000000">arg 1</text>
</g>
<!-- node_23 -->
<g id="node29" class="node">
<title>node_23</title>
<polygon fill="#00eeee" stroke="#000000" points="672.1068,-560.6 647.6856,-578.6 598.8432,-578.6 574.422,-560.6 598.8432,-542.6 647.6856,-542.6 672.1068,-560.6"/>
<text text-anchor="middle" x="623.2644" y="-556.4" font-family="Times,serif" font-size="14.00" fill="#000000">23 Add </text>
</g>
<!-- node_8&#45;&gt;node_23 -->
<g id="edge28" class="edge">
<title>node_8-&gt;node_23</title>
<path fill="none" stroke="#00eeee" d="M467.9785,-634.7365C499.7626,-619.5621 549.5103,-595.8116 584.1016,-579.2971"/>
<polygon fill="#00eeee" stroke="#00eeee" points="585.9123,-582.3111 593.4287,-574.8442 582.8964,-575.9941 585.9123,-582.3111"/>
<text text-anchor="middle" x="560.452" y="-600.8" font-family="Times,serif" font-size="14.00" fill="#000000">arg 0</text>
</g>
<!-- node_24 -->
<g id="node12" class="node">
<title>node_24</title>
<polygon fill="#ff4500" stroke="#000000" points="794.1018,-756.2 726.427,-756.2 726.427,-720.2 794.1018,-720.2 794.1018,-756.2"/>
<text text-anchor="middle" x="760.2644" y="-734" font-family="Times,serif" font-size="14.00" fill="#000000">24 Copy </text>
</g>
<!-- node_24&#45;&gt;node_8 -->
<g id="edge8" class="edge">
<title>node_24-&gt;node_8</title>
<path fill="none" stroke="#00eeee" d="M726.2803,-729.2838C676.2521,-716.0977 579.8794,-690.4656 498.2644,-667.4 493.3434,-666.0093 488.2066,-664.5326 483.093,-663.0467"/>
<polygon fill="#00eeee" stroke="#00eeee" points="483.9312,-659.6453 473.3508,-660.1978 481.9664,-666.3639 483.9312,-659.6453"/>
<text text-anchor="middle" x="633.452" y="-689.6" font-family="Times,serif" font-size="14.00" fill="#000000">arg 0</text>
</g>
<!-- node_25 -->
<g id="node30" class="node">
<title>node_25</title>
<polygon fill="#ff4500" stroke="#000000" points="886.7616,-667.4 821.7672,-667.4 821.7672,-631.4 886.7616,-631.4 886.7616,-667.4"/>
<text text-anchor="middle" x="854.2644" y="-645.2" font-family="Times,serif" font-size="14.00" fill="#000000">25 Goto </text>
</g>
<!-- node_24&#45;&gt;node_25 -->
<g id="edge31" class="edge">
<title>node_24-&gt;node_25</title>
<path fill="none" stroke="#ff0000" stroke-width="2" d="M779.7413,-719.8006C793.5709,-706.736 812.3093,-689.0342 827.5361,-674.6497"/>
<polygon fill="#ff0000" stroke="#ff0000" stroke-width="2" points="830.2683,-676.8834 835.1341,-667.472 825.4613,-671.7949 830.2683,-676.8834"/>
</g>
<!-- node_31&#45;&gt;node_8 -->
<g id="edge9" class="edge">
<title>node_31-&gt;node_8</title>
<path fill="none" stroke="#00eeee" d="M374.6333,-719.8006C386.1494,-706.8559 401.7157,-689.3586 414.4483,-675.0464"/>
<polygon fill="#00eeee" stroke="#00eeee" points="417.155,-677.2697 421.1868,-667.472 411.925,-672.617 417.155,-677.2697"/>
<text text-anchor="middle" x="418.452" y="-689.6" font-family="Times,serif" font-size="14.00" fill="#000000">arg 1</text>
</g>
<!-- node_31&#45;&gt;node_9 -->
<g id="edge40" class="edge">
<title>node_31-&gt;node_9</title>
<path fill="none" stroke="#ff0000" stroke-width="2" d="M358.2644,-720.1775C358.2644,-677.1151 358.2644,-567.9717 358.2644,-515.9789"/>
<polygon fill="#ff0000" stroke="#ff0000" stroke-width="2" points="361.7645,-515.7959 358.2644,-505.796 354.7645,-515.796 361.7645,-515.7959"/>
</g>
<!-- node_10 -->
<g id="node15" class="node">
<title>node_10</title>
<polygon fill="#ff4500" stroke="#000000" points="410.1704,-416.8 276.3584,-416.8 276.3584,-380.8 410.1704,-380.8 410.1704,-416.8"/>
<text text-anchor="middle" x="343.2644" y="-394.6" font-family="Times,serif" font-size="14.00" fill="#000000">10 FrameDebugInfo </text>
</g>
<!-- node_9&#45;&gt;node_10 -->
<g id="edge10" class="edge">
<title>node_9-&gt;node_10</title>
<path fill="none" stroke="#ff0000" stroke-width="2" d="M355.1564,-469.2006C353.0913,-456.975 350.3402,-440.6887 348.0043,-426.8599"/>
<polygon fill="#ff0000" stroke="#ff0000" stroke-width="2" points="351.4339,-426.1493 346.3171,-416.872 344.5317,-427.3153 351.4339,-426.1493"/>
</g>
<!-- node_12 -->
<g id="node16" class="node">
<title>node_12</title>
<polygon fill="#ff4500" stroke="#000000" points="293.2644,-343.8 239.2644,-343.8 239.2644,-307.8 293.2644,-307.8 293.2644,-343.8"/>
<text text-anchor="middle" x="266.2644" y="-321.6" font-family="Times,serif" font-size="14.00" fill="#000000">12 If </text>
</g>
<!-- node_10&#45;&gt;node_12 -->
<g id="edge11" class="edge">
<title>node_10-&gt;node_12</title>
<path fill="none" stroke="#ff0000" stroke-width="2" d="M324.2307,-380.7551C314.6981,-371.7177 303.0049,-360.6319 292.6236,-350.7899"/>
<polygon fill="#ff0000" stroke="#ff0000" stroke-width="2" points="295.0111,-348.2305 285.346,-343.8904 290.1951,-353.3104 295.0111,-348.2305"/>
</g>
<!-- node_26 -->
<g id="node19" class="node">
<title>node_26</title>
<polygon fill="#ff4500" stroke="#000000" points="328.2588,-255 172.27,-255 172.27,-219 328.2588,-219 328.2588,-255"/>
<text text-anchor="middle" x="250.2644" y="-232.8" font-family="Times,serif" font-size="14.00" fill="#000000">26 Region L1277009227</text>
</g>
<!-- node_12&#45;&gt;node_26 -->
<g id="edge13" class="edge">
<title>node_12-&gt;node_26</title>
<path fill="none" stroke="#ff0000" stroke-width="2" d="M262.9492,-307.4006C260.7464,-295.175 257.8119,-278.8887 255.3202,-265.0599"/>
<polygon fill="#ff0000" stroke="#ff0000" stroke-width="2" points="258.7385,-264.2929 253.5206,-255.072 251.8494,-265.5342 258.7385,-264.2929"/>
<text text-anchor="middle" x="277.5386" y="-277.2" font-family="Times,serif" font-size="14.00" fill="#000000">TRUE</text>
</g>
<!-- node_14 -->
<g id="node20" class="node">
<title>node_14</title>
<polygon fill="#ff4500" stroke="#000000" points="721.7588,-255 572.77,-255 572.77,-219 721.7588,-219 721.7588,-255"/>
<text text-anchor="middle" x="647.2644" y="-232.8" font-family="Times,serif" font-size="14.00" fill="#000000">14 Region L296347592</text>
</g>
<!-- node_12&#45;&gt;node_14 -->
<g id="edge14" class="edge">
<title>node_12-&gt;node_14</title>
<path fill="none" stroke="#ff0000" stroke-width="2" d="M293.3595,-319.4849C348.7147,-306.5832 476.7952,-276.7314 562.7137,-256.7063"/>
<polygon fill="#ff0000" stroke="#ff0000" stroke-width="2" points="563.7693,-260.0542 572.7138,-254.3756 562.1803,-253.2369 563.7693,-260.0542"/>
<text text-anchor="middle" x="511.6529" y="-277.2" font-family="Times,serif" font-size="14.00" fill="#000000">FALSE</text>
</g>
<!-- node_11 -->
<g id="node17" class="node">
<title>node_11</title>
<polygon fill="#ffb90f" stroke="#000000" points="200.2644,-667.4 70.6788,-649.4 200.2644,-631.4 329.85,-649.4 200.2644,-667.4"/>
<text text-anchor="middle" x="200.2644" y="-645.2" font-family="Times,serif" font-size="14.00" fill="#000000">11 PrimitiveInt : 100</text>
</g>
<!-- node_11&#45;&gt;node_13 -->
<g id="edge16" class="edge">
<title>node_11-&gt;node_13</title>
<path fill="none" stroke="#00eeee" d="M203.0975,-631.43C205.0203,-619.2338 207.6027,-602.8543 209.7997,-588.9187"/>
<polygon fill="#00eeee" stroke="#00eeee" points="213.2873,-589.2712 211.3875,-578.8481 206.3727,-588.181 213.2873,-589.2712"/>
<text text-anchor="middle" x="222.452" y="-600.8" font-family="Times,serif" font-size="14.00" fill="#000000">arg 1</text>
</g>
<!-- node_13&#45;&gt;node_12 -->
<g id="edge12" class="edge">
<title>node_13-&gt;node_12</title>
<path fill="none" stroke="#00eeee" d="M218.2584,-542.5655C227.2761,-501.8473 249.2665,-402.552 260.0691,-353.7741"/>
<polygon fill="#00eeee" stroke="#00eeee" points="263.5116,-354.4162 262.2568,-343.8959 256.6772,-352.9025 263.5116,-354.4162"/>
<text text-anchor="middle" x="255.452" y="-439" font-family="Times,serif" font-size="14.00" fill="#000000">arg 0</text>
</g>
<!-- node_27 -->
<g id="node31" class="node">
<title>node_27</title>
<polygon fill="#ff4500" stroke="#000000" points="352.7488,-182 75.78,-182 75.78,-146 352.7488,-146 352.7488,-182"/>
<text text-anchor="middle" x="214.2644" y="-159.8" font-family="Times,serif" font-size="14.00" fill="#000000">27 LineNumberDebugInfo : IRExport.java#37</text>
</g>
<!-- node_26&#45;&gt;node_27 -->
<g id="edge33" class="edge">
<title>node_26-&gt;node_27</title>
<path fill="none" stroke="#ff0000" stroke-width="2" d="M241.3655,-218.9551C237.2549,-210.6196 232.2849,-200.5416 227.7295,-191.3042"/>
<polygon fill="#ff0000" stroke="#ff0000" stroke-width="2" points="230.7477,-189.511 223.1857,-182.0904 224.4696,-192.6071 230.7477,-189.511"/>
</g>
<!-- node_15 -->
<g id="node21" class="node">
<title>node_15</title>
<polygon fill="#ff4500" stroke="#000000" points="1073.7488,-182 796.78,-182 796.78,-146 1073.7488,-146 1073.7488,-182"/>
<text text-anchor="middle" x="935.2644" y="-159.8" font-family="Times,serif" font-size="14.00" fill="#000000">15 LineNumberDebugInfo : IRExport.java#35</text>
</g>
<!-- node_14&#45;&gt;node_15 -->
<g id="edge17" class="edge">
<title>node_14-&gt;node_15</title>
<path fill="none" stroke="#ff0000" stroke-width="2" d="M718.4554,-218.9551C759.5617,-208.5358 811.4098,-195.3937 854.0954,-184.5741"/>
<polygon fill="#ff0000" stroke="#ff0000" stroke-width="2" points="855.0607,-187.9402 863.8942,-182.0904 853.3408,-181.1547 855.0607,-187.9402"/>
</g>
<!-- node_19 -->
<g id="node22" class="node">
<title>node_19</title>
<polygon fill="#ff4500" stroke="#000000" points="919.1018,-1041.8 851.427,-1041.8 851.427,-1005.8 919.1018,-1005.8 919.1018,-1041.8"/>
<text text-anchor="middle" x="885.2644" y="-1019.6" font-family="Times,serif" font-size="14.00" fill="#000000">19 Copy </text>
</g>
<!-- node_15&#45;&gt;node_19 -->
<g id="edge18" class="edge">
<title>node_15-&gt;node_19</title>
<path fill="none" stroke="#ff0000" stroke-width="2" d="M948.28,-182.2498C957.1394,-196.4667 967.2644,-217.0736 967.2644,-237 967.2644,-827 967.2644,-827 967.2644,-827 967.2644,-901.8419 956.7591,-924.2273 917.2644,-987.8 915.1407,-991.2184 912.6847,-994.6237 910.0962,-997.9002"/>
<polygon fill="#ff0000" stroke="#ff0000" stroke-width="2" points="907.2775,-995.8133 903.5031,-1005.713 912.6273,-1000.3278 907.2775,-995.8133"/>
</g>
<!-- node_18 -->
<g id="node25" class="node">
<title>node_18</title>
<ellipse fill="#00eeee" stroke="#000000" cx="885.2644" cy="-881" rx="67.1535" ry="18"/>
<text text-anchor="middle" x="885.2644" y="-876.8" font-family="Times,serif" font-size="14.00" fill="#000000">18 Variable : I</text>
</g>
<!-- node_19&#45;&gt;node_18 -->
<g id="edge23" class="edge">
<title>node_19-&gt;node_18</title>
<path fill="none" stroke="#00eeee" d="M885.2644,-1005.7143C885.2644,-981.4908 885.2644,-938.2461 885.2644,-909.5888"/>
<polygon fill="#00eeee" stroke="#00eeee" points="888.7645,-909.3899 885.2644,-899.3899 881.7645,-909.39 888.7645,-909.3899"/>
<text text-anchor="middle" x="899.452" y="-975.2" font-family="Times,serif" font-size="14.00" fill="#000000">arg 0</text>
</g>
<!-- node_20 -->
<g id="node26" class="node">
<title>node_20</title>
<polygon fill="#ff4500" stroke="#000000" points="838.7588,-953 689.77,-953 689.77,-917 838.7588,-917 838.7588,-953"/>
<text text-anchor="middle" x="764.2644" y="-930.8" font-family="Times,serif" font-size="14.00" fill="#000000">20 Region L315932542</text>
</g>
<!-- node_19&#45;&gt;node_20 -->
<g id="edge25" class="edge">
<title>node_19-&gt;node_20</title>
<path fill="none" stroke="#ff0000" stroke-width="2" d="M860.4863,-1005.6157C842.2158,-992.2073 817.1737,-973.8293 797.2166,-959.1831"/>
<polygon fill="#ff0000" stroke="#ff0000" stroke-width="2" points="799.1422,-956.2549 789.0094,-953.16 795.0006,-961.8982 799.1422,-956.2549"/>
</g>
<!-- node_16&#45;&gt;node_17 -->
<g id="edge21" class="edge">
<title>node_16-&gt;node_17</title>
<path fill="none" stroke="#00eeee" d="M641.3527,-1190.5114C691.6863,-1174.4336 785.8989,-1144.3398 841.3469,-1126.6283"/>
<polygon fill="#00eeee" stroke="#00eeee" points="842.4365,-1129.9546 850.8973,-1123.5777 840.3065,-1123.2865 842.4365,-1129.9546"/>
<text text-anchor="middle" x="784.452" y="-1152.8" font-family="Times,serif" font-size="14.00" fill="#000000">arg 0</text>
</g>
<!-- node_17&#45;&gt;node_19 -->
<g id="edge24" class="edge">
<title>node_17-&gt;node_19</title>
<path fill="none" stroke="#00eeee" d="M885.2644,-1094.2006C885.2644,-1082.0949 885.2644,-1066.0076 885.2644,-1052.2674"/>
<polygon fill="#00eeee" stroke="#00eeee" points="888.7645,-1051.872 885.2644,-1041.872 881.7645,-1051.8721 888.7645,-1051.872"/>
<text text-anchor="middle" x="899.452" y="-1064" font-family="Times,serif" font-size="14.00" fill="#000000">arg 0</text>
</g>
<!-- node_18&#45;&gt;node_32 -->
<g id="edge41" class="edge">
<title>node_18-&gt;node_32</title>
<path fill="none" stroke="#00eeee" d="M889.4223,-862.7762C890.5489,-857.1106 891.6311,-850.8234 892.2644,-845 902.4131,-751.6823 901.3511,-640.1732 900.1305,-588.9162"/>
<polygon fill="#00eeee" stroke="#00eeee" points="903.6221,-588.5432 899.8636,-578.6374 896.6245,-588.7249 903.6221,-588.5432"/>
<text text-anchor="middle" x="913.452" y="-734" font-family="Times,serif" font-size="14.00" fill="#000000">arg 0</text>
</g>
<!-- node_21 -->
<g id="node27" class="node">
<title>node_21</title>
<polygon fill="#ff4500" stroke="#000000" points="883.7488,-845 606.78,-845 606.78,-809 883.7488,-809 883.7488,-845"/>
<text text-anchor="middle" x="745.2644" y="-822.8" font-family="Times,serif" font-size="14.00" fill="#000000">21 LineNumberDebugInfo : IRExport.java#34</text>
</g>
<!-- node_20&#45;&gt;node_21 -->
<g id="edge26" class="edge">
<title>node_20-&gt;node_21</title>
<path fill="none" stroke="#ff0000" stroke-width="2" d="M761.0413,-916.6793C758.0755,-899.821 753.6323,-874.5651 750.2162,-855.147"/>
<polygon fill="#ff0000" stroke="#ff0000" stroke-width="2" points="753.6197,-854.2925 748.4399,-845.0502 746.7256,-855.5054 753.6197,-854.2925"/>
</g>
<!-- node_21&#45;&gt;node_24 -->
<g id="edge27" class="edge">
<title>node_21-&gt;node_24</title>
<path fill="none" stroke="#ff0000" stroke-width="2" d="M748.3724,-808.6006C750.4375,-796.375 753.1886,-780.0887 755.5245,-766.2599"/>
<polygon fill="#ff0000" stroke="#ff0000" stroke-width="2" points="758.9971,-766.7153 757.2117,-756.272 752.0949,-765.5493 758.9971,-766.7153"/>
</g>
<!-- node_22 -->
<g id="node28" class="node">
<title>node_22</title>
<polygon fill="#ffb90f" stroke="#000000" points="623.2644,-667.4 506.9929,-649.4 623.2644,-631.4 739.5359,-649.4 623.2644,-667.4"/>
<text text-anchor="middle" x="623.2644" y="-645.2" font-family="Times,serif" font-size="14.00" fill="#000000">22 PrimitiveInt : 1</text>
</g>
<!-- node_22&#45;&gt;node_23 -->
<g id="edge29" class="edge">
<title>node_22-&gt;node_23</title>
<path fill="none" stroke="#00eeee" d="M623.2644,-631.0006C623.2644,-618.8949 623.2644,-602.8076 623.2644,-589.0674"/>
<polygon fill="#00eeee" stroke="#00eeee" points="626.7645,-588.672 623.2644,-578.672 619.7645,-588.6721 626.7645,-588.672"/>
<text text-anchor="middle" x="637.452" y="-600.8" font-family="Times,serif" font-size="14.00" fill="#000000">arg 1</text>
</g>
<!-- node_23&#45;&gt;node_24 -->
<g id="edge30" class="edge">
<title>node_23-&gt;node_24</title>
<path fill="none" stroke="#00eeee" d="M658.6257,-570.7013C687.75,-580.9888 727.5102,-599.9745 748.2644,-631.4 763.5322,-654.5181 765.1259,-686.748 763.7715,-709.7424"/>
<polygon fill="#00eeee" stroke="#00eeee" points="760.2676,-709.6496 762.9488,-719.8995 767.2448,-710.2148 760.2676,-709.6496"/>
<text text-anchor="middle" x="775.452" y="-645.2" font-family="Times,serif" font-size="14.00" fill="#000000">arg 0</text>
</g>
<!-- node_25&#45;&gt;node_32 -->
<g id="edge32" class="edge">
<title>node_25-&gt;node_32</title>
<path fill="none" stroke="#ff0000" stroke-width="2" d="M863.5884,-631.0006C869.9053,-618.5353 878.3615,-601.8484 885.4556,-587.8494"/>
<polygon fill="#ff0000" stroke="#ff0000" stroke-width="2" points="888.708,-589.1742 890.1063,-578.672 882.4639,-586.0099 888.708,-589.1742"/>
</g>
<!-- node_28 -->
<g id="node32" class="node">
<title>node_28</title>
<polygon fill="#ff4500" stroke="#000000" points="263.1704,-109 129.3584,-109 129.3584,-73 263.1704,-73 263.1704,-109"/>
<text text-anchor="middle" x="196.2644" y="-86.8" font-family="Times,serif" font-size="14.00" fill="#000000">28 FrameDebugInfo </text>
</g>
<!-- node_27&#45;&gt;node_28 -->
<g id="edge34" class="edge">
<title>node_27-&gt;node_28</title>
<path fill="none" stroke="#ff0000" stroke-width="2" d="M209.815,-145.9551C207.8029,-137.7951 205.3791,-127.9652 203.1411,-118.8887"/>
<polygon fill="#ff0000" stroke="#ff0000" stroke-width="2" points="206.5174,-117.9616 200.725,-109.0904 199.7209,-119.6375 206.5174,-117.9616"/>
</g>
<!-- node_28&#45;&gt;node_29 -->
<g id="edge35" class="edge">
<title>node_28-&gt;node_29</title>
<path fill="none" stroke="#ff0000" stroke-width="2" d="M161.1633,-72.9551C142.2183,-63.2157 118.6458,-51.0975 98.4609,-40.7207"/>
<polygon fill="#ff0000" stroke="#ff0000" stroke-width="2" points="99.9477,-37.5497 89.4539,-36.0904 96.7472,-43.7752 99.9477,-37.5497"/>
</g>
</g>
</svg>