<?xml version="1.0" encoding="UTF-8" standalone="no"?>
<!DOCTYPE svg PUBLIC "-//W3C//DTD SVG 1.1//EN" "http://www.w3.org/Graphics/SVG/1.1/DTD/svg11.dtd">
<!-- Generated by graphviz version 2.40.1 (20161225.0304)
 -->
<!-- Title: debugoutput Pages: 1 -->
<svg width="1298pt" height="3033pt" viewBox="0.00 0.00 1297.56 3032.80" xmlns="http://www.w3.org/2000/svg" xmlns:xlink="http://www.w3.org/1999/xlink">
<g id="graph0" class="graph" transform="scale(1 1) rotate(0) translate(4 3028.8)">
<title>debugoutput</title>
<polygon fill="#ffffff" stroke="transparent" points="-4,4 -4,-3028.8 1293.559,-3028.8 1293.559,4 -4,4"/>
<!-- node_0 -->
<g id="node1" class="node">
<title>node_0</title>
<polygon fill="#ff4500" stroke="#000000" points="961.4104,-3024.8 864.6486,-3024.8 864.6486,-2988.8 961.4104,-2988.8 961.4104,-3024.8"/>
<text text-anchor="middle" x="913.0295" y="-3002.6" font-family="Times,serif" font-size="14.00" fill="#000000">0 Region Start</text>
</g>
<!-- node_1 -->
<g id="node2" class="node">
<title>node_1</title>
<polygon fill="#ff4500" stroke="#000000" points="984.0239,-2951.8 842.0351,-2951.8 842.0351,-2915.8 984.0239,-2915.8 984.0239,-2951.8"/>
<text text-anchor="middle" x="913.0295" y="-2929.6" font-family="Times,serif" font-size="14.00" fill="#000000">1 Region L858952163</text>
</g>
<!-- node_0&#45;&gt;node_1 -->
<g id="edge1" class="edge">
<title>node_0-&gt;node_1</title>
<path fill="none" stroke="#ff0000" stroke-width="2" d="M913.0295,-2988.7551C913.0295,-2980.6828 913.0295,-2970.9764 913.0295,-2961.9817"/>
<polygon fill="#ff0000" stroke="#ff0000" stroke-width="2" points="916.5296,-2961.8903 913.0295,-2951.8904 909.5296,-2961.8904 916.5296,-2961.8903"/>
</g>
<!-- node_2 -->
<g id="node3" class="node">
<title>node_2</title>
<polygon fill="#ff4500" stroke="#000000" points="1020.5885,-2878.8 805.4705,-2878.8 805.4705,-2842.8 1020.5885,-2842.8 1020.5885,-2878.8"/>
<text text-anchor="middle" x="913.0295" y="-2856.6" font-family="Times,serif" font-size="14.00" fill="#000000">2 LineNumberDebugInfo : line #14</text>
</g>
<!-- node_1&#45;&gt;node_2 -->
<g id="edge2" class="edge">
<title>node_1-&gt;node_2</title>
<path fill="none" stroke="#ff0000" stroke-width="2" d="M913.0295,-2915.7551C913.0295,-2907.6828 913.0295,-2897.9764 913.0295,-2888.9817"/>
<polygon fill="#ff0000" stroke="#ff0000" stroke-width="2" points="916.5296,-2888.8903 913.0295,-2878.8904 909.5296,-2888.8904 916.5296,-2888.8903"/>
</g>
<!-- node_5 -->
<g id="node4" class="node">
<title>node_5</title>
<polygon fill="#ff4500" stroke="#000000" points="1060.367,-2790 999.692,-2790 999.692,-2754 1060.367,-2754 1060.367,-2790"/>
<text text-anchor="middle" x="1030.0295" y="-2767.8" font-family="Times,serif" font-size="14.00" fill="#000000">5 Copy </text>
</g>
<!-- node_2&#45;&gt;node_5 -->
<g id="edge3" class="edge">
<title>node_2-&gt;node_5</title>
<path fill="none" stroke="#ff0000" stroke-width="2" d="M936.9885,-2842.6157C954.5762,-2829.2672 978.6532,-2810.9933 997.9079,-2796.3794"/>
<polygon fill="#ff0000" stroke="#ff0000" stroke-width="2" points="1000.2529,-2798.9936 1006.1025,-2790.16 996.0209,-2793.4177 1000.2529,-2798.9936"/>
</g>
<!-- node_4 -->
<g id="node6" class="node">
<title>node_4</title>
<ellipse fill="#00eeee" stroke="#000000" cx="1104.0295" cy="-2683.2" rx="62.4975" ry="18"/>
<text text-anchor="middle" x="1104.0295" y="-2679" font-family="Times,serif" font-size="14.00" fill="#000000">4 Variable : I</text>
</g>
<!-- node_5&#45;&gt;node_4 -->
<g id="edge4" class="edge">
<title>node_5-&gt;node_4</title>
<path fill="none" stroke="#00eeee" d="M1045.3623,-2753.6006C1056.1205,-2740.6908 1070.652,-2723.253 1082.5609,-2708.9623"/>
<polygon fill="#00eeee" stroke="#00eeee" points="1085.5082,-2710.8928 1089.2213,-2700.9699 1080.1306,-2706.4115 1085.5082,-2710.8928"/>
<text text-anchor="middle" x="1088.2171" y="-2723.4" font-family="Times,serif" font-size="14.00" fill="#000000">arg 0</text>
</g>
<!-- node_7 -->
<g id="node7" class="node">
<title>node_7</title>
<polygon fill="#ff4500" stroke="#000000" points="1060.367,-2612.4 999.692,-2612.4 999.692,-2576.4 1060.367,-2576.4 1060.367,-2612.4"/>
<text text-anchor="middle" x="1030.0295" y="-2590.2" font-family="Times,serif" font-size="14.00" fill="#000000">7 Copy </text>
</g>
<!-- node_5&#45;&gt;node_7 -->
<g id="edge6" class="edge">
<title>node_5-&gt;node_7</title>
<path fill="none" stroke="#ff0000" stroke-width="2" d="M1030.0295,-2753.9934C1030.0295,-2723.012 1030.0295,-2659.406 1030.0295,-2622.5346"/>
<polygon fill="#ff0000" stroke="#ff0000" stroke-width="2" points="1033.5296,-2622.4542 1030.0295,-2612.4543 1026.5296,-2622.4543 1033.5296,-2622.4542"/>
</g>
<!-- node_3 -->
<g id="node5" class="node">
<title>node_3</title>
<polygon fill="#ffb90f" stroke="#000000" points="1148.0295,-2878.8 1038.9148,-2860.8 1148.0295,-2842.8 1257.1442,-2860.8 1148.0295,-2878.8"/>
<text text-anchor="middle" x="1148.0295" y="-2856.6" font-family="Times,serif" font-size="14.00" fill="#000000">3 PrimitiveInt : 0</text>
</g>
<!-- node_3&#45;&gt;node_5 -->
<g id="edge5" class="edge">
<title>node_3-&gt;node_5</title>
<path fill="none" stroke="#00eeee" d="M1128.279,-2845.9369C1110.3237,-2832.4248 1083.4926,-2812.2333 1062.4042,-2796.3633"/>
<polygon fill="#00eeee" stroke="#00eeee" points="1064.4387,-2793.5141 1054.3439,-2790.2976 1060.2296,-2799.1073 1064.4387,-2793.5141"/>
<text text-anchor="middle" x="1114.2171" y="-2812.2" font-family="Times,serif" font-size="14.00" fill="#000000">arg 0</text>
</g>
<!-- node_4&#45;&gt;node_7 -->
<g id="edge8" class="edge">
<title>node_4-&gt;node_7</title>
<path fill="none" stroke="#00eeee" d="M1089.4095,-2665.656C1078.6055,-2652.6912 1063.7236,-2634.8329 1051.5611,-2620.238"/>
<polygon fill="#00eeee" stroke="#00eeee" points="1054.2179,-2617.9588 1045.1272,-2612.5172 1048.8403,-2622.4401 1054.2179,-2617.9588"/>
<text text-anchor="middle" x="1088.2171" y="-2634.6" font-family="Times,serif" font-size="14.00" fill="#000000">arg 0</text>
</g>
<!-- node_6 -->
<g id="node8" class="node">
<title>node_6</title>
<ellipse fill="#00eeee" stroke="#000000" cx="867.0295" cy="-2451.6" rx="62.4975" ry="18"/>
<text text-anchor="middle" x="867.0295" y="-2447.4" font-family="Times,serif" font-size="14.00" fill="#000000">6 Variable : I</text>
</g>
<!-- node_7&#45;&gt;node_6 -->
<g id="edge7" class="edge">
<title>node_7-&gt;node_6</title>
<path fill="none" stroke="#00eeee" d="M1009.3854,-2576.3143C980.3232,-2550.8536 927.2748,-2504.3793 894.7859,-2475.9167"/>
<polygon fill="#00eeee" stroke="#00eeee" points="896.8243,-2473.0492 886.9961,-2469.0922 892.2115,-2478.3145 896.8243,-2473.0492"/>
<text text-anchor="middle" x="1003.2171" y="-2545.8" font-family="Times,serif" font-size="14.00" fill="#000000">arg 0</text>
</g>
<!-- node_8 -->
<g id="node9" class="node">
<title>node_8</title>
<polygon fill="#ff4500" stroke="#000000" points="1220.5239,-2523.6 1071.5351,-2523.6 1071.5351,-2487.6 1220.5239,-2487.6 1220.5239,-2523.6"/>
<text text-anchor="middle" x="1146.0295" y="-2501.4" font-family="Times,serif" font-size="14.00" fill="#000000">8 Region L1201484275</text>
</g>
<!-- node_7&#45;&gt;node_8 -->
<g id="edge9" class="edge">
<title>node_7-&gt;node_8</title>
<path fill="none" stroke="#ff0000" stroke-width="2" d="M1053.7837,-2576.2157C1071.2211,-2562.8672 1095.0923,-2544.5933 1114.1825,-2529.9794"/>
<polygon fill="#ff0000" stroke="#ff0000" stroke-width="2" points="1116.494,-2532.6177 1122.307,-2523.76 1112.239,-2527.0594 1116.494,-2532.6177"/>
</g>
<!-- node_47 -->
<g id="node16" class="node">
<title>node_47</title>
<polygon fill="#ff4500" stroke="#000000" points="829.8669,-2060.4 762.1921,-2060.4 762.1921,-2024.4 829.8669,-2024.4 829.8669,-2060.4"/>
<text text-anchor="middle" x="796.0295" y="-2038.2" font-family="Times,serif" font-size="14.00" fill="#000000">47 Copy </text>
</g>
<!-- node_6&#45;&gt;node_47 -->
<g id="edge61" class="edge">
<title>node_6-&gt;node_47</title>
<path fill="none" stroke="#00eeee" d="M836.8686,-2435.7059C828.8302,-2430.2503 820.79,-2423.4939 815.0295,-2415.6 797.9403,-2392.1819 796.0295,-2382.1905 796.0295,-2353.2 796.0295,-2353.2 796.0295,-2353.2 796.0295,-2131.2 796.0295,-2110.9006 796.0295,-2087.991 796.0295,-2070.5264"/>
<polygon fill="#00eeee" stroke="#00eeee" points="799.5296,-2070.4279 796.0295,-2060.4279 792.5296,-2070.4279 799.5296,-2070.4279"/>
<text text-anchor="middle" x="810.2171" y="-2260.2" font-family="Times,serif" font-size="14.00" fill="#000000">arg 0</text>
</g>
<!-- node_9 -->
<g id="node10" class="node">
<title>node_9</title>
<polygon fill="#ff4500" stroke="#000000" points="1289.5885,-2415.6 1074.4705,-2415.6 1074.4705,-2379.6 1289.5885,-2379.6 1289.5885,-2415.6"/>
<text text-anchor="middle" x="1182.0295" y="-2393.4" font-family="Times,serif" font-size="14.00" fill="#000000">9 LineNumberDebugInfo : line #15</text>
</g>
<!-- node_8&#45;&gt;node_9 -->
<g id="edge10" class="edge">
<title>node_8-&gt;node_9</title>
<path fill="none" stroke="#ff0000" stroke-width="2" d="M1152.1364,-2487.2793C1157.8079,-2470.2649 1166.3306,-2444.6967 1172.8265,-2425.2091"/>
<polygon fill="#ff0000" stroke="#ff0000" stroke-width="2" points="1176.1708,-2426.2438 1176.0128,-2415.6502 1169.53,-2424.0302 1176.1708,-2426.2438"/>
</g>
<!-- node_12 -->
<g id="node11" class="node">
<title>node_12</title>
<polygon fill="#ff4500" stroke="#000000" points="976.8669,-2326.8 909.1921,-2326.8 909.1921,-2290.8 976.8669,-2290.8 976.8669,-2326.8"/>
<text text-anchor="middle" x="943.0295" y="-2304.6" font-family="Times,serif" font-size="14.00" fill="#000000">12 Copy </text>
</g>
<!-- node_9&#45;&gt;node_12 -->
<g id="edge11" class="edge">
<title>node_9-&gt;node_12</title>
<path fill="none" stroke="#ff0000" stroke-width="2" d="M1133.3762,-2379.523C1090.2892,-2363.5141 1027.9704,-2340.3596 986.5165,-2324.9575"/>
<polygon fill="#ff0000" stroke="#ff0000" stroke-width="2" points="987.5625,-2321.6124 976.9696,-2321.4104 985.1244,-2328.1741 987.5625,-2321.6124"/>
</g>
<!-- node_11 -->
<g id="node13" class="node">
<title>node_11</title>
<ellipse fill="#00eeee" stroke="#000000" cx="952.0295" cy="-2220" rx="67.1535" ry="18"/>
<text text-anchor="middle" x="952.0295" y="-2215.8" font-family="Times,serif" font-size="14.00" fill="#000000">11 Variable : I</text>
</g>
<!-- node_12&#45;&gt;node_11 -->
<g id="edge12" class="edge">
<title>node_12-&gt;node_11</title>
<path fill="none" stroke="#00eeee" d="M944.8943,-2290.4006C946.1334,-2278.175 947.784,-2261.8887 949.1856,-2248.0599"/>
<polygon fill="#00eeee" stroke="#00eeee" points="952.6716,-2248.374 950.1979,-2238.072 945.7073,-2247.6681 952.6716,-2248.374"/>
<text text-anchor="middle" x="963.2171" y="-2260.2" font-family="Times,serif" font-size="14.00" fill="#000000">arg 0</text>
</g>
<!-- node_14 -->
<g id="node14" class="node">
<title>node_14</title>
<polygon fill="#ff4500" stroke="#000000" points="901.8669,-2149.2 834.1921,-2149.2 834.1921,-2113.2 901.8669,-2113.2 901.8669,-2149.2"/>
<text text-anchor="middle" x="868.0295" y="-2127" font-family="Times,serif" font-size="14.00" fill="#000000">14 Copy </text>
</g>
<!-- node_12&#45;&gt;node_14 -->
<g id="edge14" class="edge">
<title>node_12-&gt;node_14</title>
<path fill="none" stroke="#ff0000" stroke-width="2" d="M918.8009,-2290.5899C903.6638,-2277.7156 885.3363,-2259.0496 876.0295,-2238 865.045,-2213.1559 863.9923,-2181.8858 865.1131,-2159.6151"/>
<polygon fill="#ff0000" stroke="#ff0000" stroke-width="2" points="868.6162,-2159.6875 865.8039,-2149.4728 861.6324,-2159.2118 868.6162,-2159.6875"/>
</g>
<!-- node_10 -->
<g id="node12" class="node">
<title>node_10</title>
<polygon fill="#ffb90f" stroke="#000000" points="940.0295,-2415.6 823.758,-2397.6 940.0295,-2379.6 1056.301,-2397.6 940.0295,-2415.6"/>
<text text-anchor="middle" x="940.0295" y="-2393.4" font-family="Times,serif" font-size="14.00" fill="#000000">10 PrimitiveInt : 0</text>
</g>
<!-- node_10&#45;&gt;node_12 -->
<g id="edge13" class="edge">
<title>node_10-&gt;node_12</title>
<path fill="none" stroke="#00eeee" d="M940.6366,-2379.63C941.0486,-2367.4338 941.602,-2351.0543 942.0728,-2337.1187"/>
<polygon fill="#00eeee" stroke="#00eeee" points="945.5733,-2337.1606 942.413,-2327.0481 938.5773,-2336.9242 945.5733,-2337.1606"/>
<text text-anchor="middle" x="956.2171" y="-2349" font-family="Times,serif" font-size="14.00" fill="#000000">arg 0</text>
</g>
<!-- node_11&#45;&gt;node_14 -->
<g id="edge16" class="edge">
<title>node_11-&gt;node_14</title>
<path fill="none" stroke="#00eeee" d="M935.4338,-2202.456C923.0563,-2189.3711 905.9636,-2171.3017 892.0881,-2156.6334"/>
<polygon fill="#00eeee" stroke="#00eeee" points="894.5821,-2154.1767 885.1674,-2149.3172 889.4968,-2158.9872 894.5821,-2154.1767"/>
<text text-anchor="middle" x="932.2171" y="-2171.4" font-family="Times,serif" font-size="14.00" fill="#000000">arg 0</text>
</g>
<!-- node_13 -->
<g id="node15" class="node">
<title>node_13</title>
<ellipse fill="#00eeee" stroke="#000000" cx="878.0295" cy="-1988.4" rx="67.1535" ry="18"/>
<text text-anchor="middle" x="878.0295" y="-1984.2" font-family="Times,serif" font-size="14.00" fill="#000000">13 Variable : I</text>
</g>
<!-- node_14&#45;&gt;node_13 -->
<g id="edge15" class="edge">
<title>node_14-&gt;node_13</title>
<path fill="none" stroke="#00eeee" d="M869.296,-2113.1143C870.9923,-2088.8908 874.0207,-2045.6461 876.0275,-2016.9888"/>
<polygon fill="#00eeee" stroke="#00eeee" points="879.5345,-2017.01 876.7417,-2006.7899 872.5516,-2016.521 879.5345,-2017.01"/>
<text text-anchor="middle" x="886.2171" y="-2082.6" font-family="Times,serif" font-size="14.00" fill="#000000">arg 0</text>
</g>
<!-- node_14&#45;&gt;node_47 -->
<g id="edge17" class="edge">
<title>node_14-&gt;node_47</title>
<path fill="none" stroke="#ff0000" stroke-width="2" d="M853.1111,-2112.8006C842.7125,-2099.9757 828.6908,-2082.6822 817.1469,-2068.4448"/>
<polygon fill="#ff0000" stroke="#ff0000" stroke-width="2" points="819.6992,-2066.0353 810.6825,-2060.472 814.2619,-2070.4439 819.6992,-2066.0353"/>
</g>
<!-- node_48 -->
<g id="node21" class="node">
<title>node_48</title>
<polygon fill="#ff4500" stroke="#000000" points="885.8669,-1898.4 818.1921,-1898.4 818.1921,-1862.4 885.8669,-1862.4 885.8669,-1898.4"/>
<text text-anchor="middle" x="852.0295" y="-1876.2" font-family="Times,serif" font-size="14.00" fill="#000000">48 Copy </text>
</g>
<!-- node_13&#45;&gt;node_48 -->
<g id="edge63" class="edge">
<title>node_13-&gt;node_48</title>
<path fill="none" stroke="#00eeee" d="M873.619,-1970.0793C869.5417,-1953.1429 863.424,-1927.7311 858.7408,-1908.2777"/>
<polygon fill="#00eeee" stroke="#00eeee" points="862.1183,-1907.3532 856.3749,-1898.4502 855.3127,-1908.9916 862.1183,-1907.3532"/>
<text text-anchor="middle" x="883.2171" y="-1930.2" font-family="Times,serif" font-size="14.00" fill="#000000">arg 0</text>
</g>
<!-- node_15 -->
<g id="node17" class="node">
<title>node_15</title>
<polygon fill="#00eeee" stroke="#000000" points="768.0887,-1934.4 739.5591,-1952.4 682.4999,-1952.4 653.9703,-1934.4 682.4999,-1916.4 739.5591,-1916.4 768.0887,-1934.4"/>
<text text-anchor="middle" x="711.0295" y="-1930.2" font-family="Times,serif" font-size="14.00" fill="#000000">15 PHI : I</text>
</g>
<!-- node_47&#45;&gt;node_15 -->
<g id="edge18" class="edge">
<title>node_47-&gt;node_15</title>
<path fill="none" stroke="#00eeee" d="M771.8677,-2024.2548C765.5441,-2018.8919 759.0059,-2012.7467 753.6543,-2006.4 742.2418,-1992.8655 732.0349,-1975.8993 724.4723,-1961.8364"/>
<polygon fill="#00eeee" stroke="#00eeee" points="727.4047,-1959.8901 719.6769,-1952.6423 721.1982,-1963.1274 727.4047,-1959.8901"/>
<text text-anchor="middle" x="768.2171" y="-1984.2" font-family="Times,serif" font-size="14.00" fill="#000000">arg 0</text>
</g>
<!-- node_47&#45;&gt;node_48 -->
<g id="edge62" class="edge">
<title>node_47-&gt;node_48</title>
<path fill="none" stroke="#ff0000" stroke-width="2" d="M798.2909,-2024.3386C800.4337,-2009.587 804.2024,-1988.323 810.0295,-1970.4 817.1367,-1948.5397 828.2313,-1925.0406 837.2332,-1907.5376"/>
<polygon fill="#ff0000" stroke="#ff0000" stroke-width="2" points="840.4386,-1908.9611 841.9803,-1898.4791 834.2384,-1905.7119 840.4386,-1908.9611"/>
</g>
<!-- node_29 -->
<g id="node34" class="node">
<title>node_29</title>
<polygon fill="#ff4500" stroke="#000000" points="153.8669,-1844.4 86.1921,-1844.4 86.1921,-1808.4 153.8669,-1808.4 153.8669,-1844.4"/>
<text text-anchor="middle" x="120.0295" y="-1822.2" font-family="Times,serif" font-size="14.00" fill="#000000">29 Copy </text>
</g>
<!-- node_15&#45;&gt;node_29 -->
<g id="edge38" class="edge">
<title>node_15-&gt;node_29</title>
<path fill="none" stroke="#00eeee" d="M666.6084,-1926.2824C556.7348,-1906.204 273.2359,-1854.3971 163.9217,-1834.4209"/>
<polygon fill="#00eeee" stroke="#00eeee" points="164.3646,-1830.944 153.8983,-1832.5892 163.1062,-1837.8299 164.3646,-1830.944"/>
<text text-anchor="middle" x="517.2171" y="-1876.2" font-family="Times,serif" font-size="14.00" fill="#000000">arg 0</text>
</g>
<!-- node_49 -->
<g id="node18" class="node">
<title>node_49</title>
<polygon fill="#ff4500" stroke="#000000" points="772.8669,-953 705.1921,-953 705.1921,-917 772.8669,-917 772.8669,-953"/>
<text text-anchor="middle" x="739.0295" y="-930.8" font-family="Times,serif" font-size="14.00" fill="#000000">49 Copy </text>
</g>
<!-- node_49&#45;&gt;node_15 -->
<g id="edge19" class="edge">
<title>node_49-&gt;node_15</title>
<path fill="none" stroke="#00eeee" d="M751.8946,-953.0887C762.9187,-970.3881 777.0295,-997.6405 777.0295,-1023.8 777.0295,-1826.4 777.0295,-1826.4 777.0295,-1826.4 777.0295,-1858.1601 755.9912,-1888.4837 737.6706,-1908.8688"/>
<polygon fill="#00eeee" stroke="#00eeee" points="735.1087,-1906.4841 730.8317,-1916.1773 740.2199,-1911.267 735.1087,-1906.4841"/>
<text text-anchor="middle" x="791.2171" y="-1422.6" font-family="Times,serif" font-size="14.00" fill="#000000">arg 1</text>
</g>
<!-- node_17 -->
<g id="node22" class="node">
<title>node_17</title>
<polygon fill="#ff4500" stroke="#000000" points="817.0239,-864.2 661.0351,-864.2 661.0351,-828.2 817.0239,-828.2 817.0239,-864.2"/>
<text text-anchor="middle" x="739.0295" y="-842" font-family="Times,serif" font-size="14.00" fill="#000000">17 Region L1089418272</text>
</g>
<!-- node_49&#45;&gt;node_17 -->
<g id="edge66" class="edge">
<title>node_49-&gt;node_17</title>
<path fill="none" stroke="#ff0000" stroke-width="2" stroke-dasharray="5,2" d="M739.0295,-916.6006C739.0295,-904.4949 739.0295,-888.4076 739.0295,-874.6674"/>
<polygon fill="#ff0000" stroke="#ff0000" stroke-width="2" points="742.5296,-874.272 739.0295,-864.272 735.5296,-874.2721 742.5296,-874.272"/>
</g>
<!-- node_16 -->
<g id="node19" class="node">
<title>node_16</title>
<polygon fill="#00eeee" stroke="#000000" points="628.0887,-1023.8 599.5591,-1041.8 542.4999,-1041.8 513.9703,-1023.8 542.4999,-1005.8 599.5591,-1005.8 628.0887,-1023.8"/>
<text text-anchor="middle" x="571.0295" y="-1019.6" font-family="Times,serif" font-size="14.00" fill="#000000">16 PHI : I</text>
</g>
<!-- node_20 -->
<g id="node24" class="node">
<title>node_20</title>
<polygon fill="#ff4500" stroke="#000000" points="628.8669,-718.2 561.1921,-718.2 561.1921,-682.2 628.8669,-682.2 628.8669,-718.2"/>
<text text-anchor="middle" x="595.0295" y="-696" font-family="Times,serif" font-size="14.00" fill="#000000">20 Copy </text>
</g>
<!-- node_16&#45;&gt;node_20 -->
<g id="edge25" class="edge">
<title>node_16-&gt;node_20</title>
<path fill="none" stroke="#00eeee" d="M579.0212,-1005.4798C586.0028,-987.791 595.0295,-960.0726 595.0295,-935 595.0295,-935 595.0295,-935 595.0295,-773.2 595.0295,-758.4996 595.0295,-742.134 595.0295,-728.6302"/>
<polygon fill="#00eeee" stroke="#00eeee" points="598.5296,-728.5003 595.0295,-718.5003 591.5296,-728.5004 598.5296,-728.5003"/>
<text text-anchor="middle" x="609.2171" y="-842" font-family="Times,serif" font-size="14.00" fill="#000000">arg 0</text>
</g>
<!-- node_31 -->
<g id="node36" class="node">
<title>node_31</title>
<polygon fill="#ff4500" stroke="#000000" points="229.8669,-953 162.1921,-953 162.1921,-917 229.8669,-917 229.8669,-953"/>
<text text-anchor="middle" x="196.0295" y="-930.8" font-family="Times,serif" font-size="14.00" fill="#000000">31 Copy </text>
</g>
<!-- node_16&#45;&gt;node_31 -->
<g id="edge41" class="edge">
<title>node_16-&gt;node_31</title>
<path fill="none" stroke="#00eeee" d="M538.1366,-1008.273C511.6516,-996.3796 473.1754,-980.4548 438.0295,-971 370.1997,-952.7527 289.0223,-943.0579 240.0445,-938.4805"/>
<polygon fill="#00eeee" stroke="#00eeee" points="240.0759,-934.9691 229.8013,-937.5541 239.4454,-941.9406 240.0759,-934.9691"/>
<text text-anchor="middle" x="501.2171" y="-975.2" font-family="Times,serif" font-size="14.00" fill="#000000">arg 0</text>
</g>
<!-- node_40 -->
<g id="node46" class="node">
<title>node_40</title>
<polygon fill="#00eeee" stroke="#000000" points="516.8719,-935 492.4507,-953 443.6083,-953 419.1871,-935 443.6083,-917 492.4507,-917 516.8719,-935"/>
<text text-anchor="middle" x="468.0295" y="-930.8" font-family="Times,serif" font-size="14.00" fill="#000000">40 Add </text>
</g>
<!-- node_16&#45;&gt;node_40 -->
<g id="edge53" class="edge">
<title>node_16-&gt;node_40</title>
<path fill="none" stroke="#00eeee" d="M559.6088,-1005.7334C552.1042,-994.8048 541.564,-981.082 530.0295,-971 523.0096,-964.8642 514.7896,-959.2369 506.6728,-954.3458"/>
<polygon fill="#00eeee" stroke="#00eeee" points="508.3808,-951.2906 497.9674,-949.3383 504.8905,-957.3584 508.3808,-951.2906"/>
<text text-anchor="middle" x="560.2171" y="-975.2" font-family="Times,serif" font-size="14.00" fill="#000000">arg 0</text>
</g>
<!-- node_41 -->
<g id="node20" class="node">
<title>node_41</title>
<polygon fill="#ff4500" stroke="#000000" points="534.8669,-1130.6 467.1921,-1130.6 467.1921,-1094.6 534.8669,-1094.6 534.8669,-1130.6"/>
<text text-anchor="middle" x="501.0295" y="-1108.4" font-family="Times,serif" font-size="14.00" fill="#000000">41 Copy </text>
</g>
<!-- node_41&#45;&gt;node_16 -->
<g id="edge20" class="edge">
<title>node_41-&gt;node_16</title>
<path fill="none" stroke="#00eeee" d="M515.5335,-1094.2006C525.6432,-1081.3757 539.2755,-1064.0822 550.4987,-1049.8448"/>
<polygon fill="#00eeee" stroke="#00eeee" points="553.3415,-1051.8922 556.7835,-1041.872 547.8441,-1047.5586 553.3415,-1051.8922"/>
<text text-anchor="middle" x="557.2171" y="-1064" font-family="Times,serif" font-size="14.00" fill="#000000">arg 0</text>
</g>
<!-- node_42 -->
<g id="node47" class="node">
<title>node_42</title>
<polygon fill="#ff4500" stroke="#000000" points="711.5267,-1041.8 646.5323,-1041.8 646.5323,-1005.8 711.5267,-1005.8 711.5267,-1041.8"/>
<text text-anchor="middle" x="679.0295" y="-1019.6" font-family="Times,serif" font-size="14.00" fill="#000000">42 Goto </text>
</g>
<!-- node_41&#45;&gt;node_42 -->
<g id="edge56" class="edge">
<title>node_41-&gt;node_42</title>
<path fill="none" stroke="#ff0000" stroke-width="2" d="M534.9809,-1096.2327C547.5816,-1090.1188 561.98,-1083.0862 575.0295,-1076.6 595.5989,-1066.3761 618.3596,-1054.8456 637.3308,-1045.1739"/>
<polygon fill="#ff0000" stroke="#ff0000" stroke-width="2" points="638.9975,-1048.2528 646.3133,-1040.5892 635.8152,-1042.0179 638.9975,-1048.2528"/>
</g>
<!-- node_48&#45;&gt;node_16 -->
<g id="edge21" class="edge">
<title>node_48-&gt;node_16</title>
<path fill="none" stroke="#00eeee" d="M843.3285,-1862.3703C834.7864,-1842.9845 823.0295,-1811.03 823.0295,-1782 823.0295,-1782 823.0295,-1782 823.0295,-1112.6 823.0295,-1101.9396 693.0545,-1060.7905 619.7938,-1038.4435"/>
<polygon fill="#00eeee" stroke="#00eeee" points="620.438,-1034.9812 609.8522,-1035.4201 618.4012,-1041.6783 620.438,-1034.9812"/>
<text text-anchor="middle" x="837.2171" y="-1467" font-family="Times,serif" font-size="14.00" fill="#000000">arg 1</text>
</g>
<!-- node_48&#45;&gt;node_17 -->
<g id="edge64" class="edge">
<title>node_48-&gt;node_17</title>
<path fill="none" stroke="#ff0000" stroke-width="2" d="M860.1304,-1862.309C868.0834,-1842.872 879.0295,-1810.8751 879.0295,-1782 879.0295,-1782 879.0295,-1782 879.0295,-935 879.0295,-902.6556 852.0529,-881.5965 821.7832,-868.1473"/>
<polygon fill="#ff0000" stroke="#ff0000" stroke-width="2" points="822.8874,-864.8161 812.3097,-864.2137 820.203,-871.281 822.8874,-864.8161"/>
</g>
<!-- node_18 -->
<g id="node23" class="node">
<title>node_18</title>
<polygon fill="#ff4500" stroke="#000000" points="780.9355,-791.2 647.1235,-791.2 647.1235,-755.2 780.9355,-755.2 780.9355,-791.2"/>
<text text-anchor="middle" x="714.0295" y="-769" font-family="Times,serif" font-size="14.00" fill="#000000">18 FrameDebugInfo </text>
</g>
<!-- node_17&#45;&gt;node_18 -->
<g id="edge22" class="edge">
<title>node_17-&gt;node_18</title>
<path fill="none" stroke="#ff0000" stroke-width="2" d="M732.8497,-828.1551C730.0252,-819.9074 726.6163,-809.9536 723.4802,-800.7962"/>
<polygon fill="#ff0000" stroke="#ff0000" stroke-width="2" points="726.776,-799.617 720.2248,-791.2904 720.1536,-801.885 726.776,-799.617"/>
</g>
<!-- node_18&#45;&gt;node_20 -->
<g id="edge23" class="edge">
<title>node_18-&gt;node_20</title>
<path fill="none" stroke="#ff0000" stroke-width="2" d="M684.6138,-755.1551C669.1665,-745.679 650.0479,-733.9508 633.445,-723.7658"/>
<polygon fill="#ff0000" stroke="#ff0000" stroke-width="2" points="634.8734,-720.536 624.5193,-718.2904 631.2131,-726.5028 634.8734,-720.536"/>
</g>
<!-- node_19 -->
<g id="node25" class="node">
<title>node_19</title>
<ellipse fill="#00eeee" stroke="#000000" cx="591.0295" cy="-557.4" rx="67.1535" ry="18"/>
<text text-anchor="middle" x="591.0295" y="-553.2" font-family="Times,serif" font-size="14.00" fill="#000000">19 Variable : I</text>
</g>
<!-- node_20&#45;&gt;node_19 -->
<g id="edge24" class="edge">
<title>node_20-&gt;node_19</title>
<path fill="none" stroke="#00eeee" d="M594.5229,-682.1143C593.8444,-657.8908 592.633,-614.6461 591.8303,-585.9888"/>
<polygon fill="#00eeee" stroke="#00eeee" points="595.3233,-585.688 591.5446,-575.7899 588.3261,-585.884 595.3233,-585.688"/>
<text text-anchor="middle" x="608.2171" y="-651.6" font-family="Times,serif" font-size="14.00" fill="#000000">arg 0</text>
</g>
<!-- node_23 -->
<g id="node26" class="node">
<title>node_23</title>
<polygon fill="#ff4500" stroke="#000000" points="479.8669,-629.4 412.1921,-629.4 412.1921,-593.4 479.8669,-593.4 479.8669,-629.4"/>
<text text-anchor="middle" x="446.0295" y="-607.2" font-family="Times,serif" font-size="14.00" fill="#000000">23 Copy </text>
</g>
<!-- node_20&#45;&gt;node_23 -->
<g id="edge26" class="edge">
<title>node_20-&gt;node_23</title>
<path fill="none" stroke="#ff0000" stroke-width="2" d="M564.5176,-682.0157C541.5416,-668.3227 509.8693,-649.4468 485.0505,-634.6555"/>
<polygon fill="#ff0000" stroke="#ff0000" stroke-width="2" points="486.6277,-631.521 476.2457,-629.408 483.044,-637.5341 486.6277,-631.521"/>
</g>
<!-- node_25 -->
<g id="node30" class="node">
<title>node_25</title>
<polygon fill="#00eeee" stroke="#000000" points="629.4793,-414.6 571.2544,-432.6 454.8046,-432.6 396.5797,-414.6 454.8046,-396.6 571.2544,-396.6 629.4793,-414.6"/>
<text text-anchor="middle" x="513.0295" y="-410.4" font-family="Times,serif" font-size="14.00" fill="#000000">25 NumericalTest : GE</text>
</g>
<!-- node_19&#45;&gt;node_25 -->
<g id="edge33" class="edge">
<title>node_19-&gt;node_25</title>
<path fill="none" stroke="#00eeee" d="M582.1526,-539.5161C574.8067,-524.8676 563.9978,-503.6555 554.0295,-485.4 546.0868,-470.8542 536.8672,-454.8601 529.1846,-441.7596"/>
<polygon fill="#00eeee" stroke="#00eeee" points="531.9941,-439.6331 523.9024,-432.7938 525.963,-443.1864 531.9941,-439.6331"/>
<text text-anchor="middle" x="587.2171" y="-499.2" font-family="Times,serif" font-size="14.00" fill="#000000">arg 0</text>
</g>
<!-- node_22 -->
<g id="node28" class="node">
<title>node_22</title>
<ellipse fill="#00eeee" stroke="#000000" cx="478.0295" cy="-503.4" rx="67.1535" ry="18"/>
<text text-anchor="middle" x="478.0295" y="-499.2" font-family="Times,serif" font-size="14.00" fill="#000000">22 Variable : I</text>
</g>
<!-- node_23&#45;&gt;node_22 -->
<g id="edge27" class="edge">
<title>node_23-&gt;node_22</title>
<path fill="none" stroke="#00eeee" d="M451.4579,-593.0793C456.476,-576.1429 464.0055,-550.7311 469.7694,-531.2777"/>
<polygon fill="#00eeee" stroke="#00eeee" points="473.1961,-532.0325 472.6813,-521.4502 466.4846,-530.0438 473.1961,-532.0325"/>
<text text-anchor="middle" x="481.2171" y="-553.2" font-family="Times,serif" font-size="14.00" fill="#000000">arg 0</text>
</g>
<!-- node_24 -->
<g id="node29" class="node">
<title>node_24</title>
<polygon fill="#ff4500" stroke="#000000" points="396.0295,-343.8 342.0295,-343.8 342.0295,-307.8 396.0295,-307.8 396.0295,-343.8"/>
<text text-anchor="middle" x="369.0295" y="-321.6" font-family="Times,serif" font-size="14.00" fill="#000000">24 If </text>
</g>
<!-- node_23&#45;&gt;node_24 -->
<g id="edge29" class="edge">
<title>node_23-&gt;node_24</title>
<path fill="none" stroke="#ff0000" stroke-width="2" d="M435.1262,-593.0948C425.0399,-575.357 410.3836,-547.3966 402.0295,-521.4 383.4423,-463.5593 374.8015,-392.5496 371.2254,-353.9884"/>
<polygon fill="#ff0000" stroke="#ff0000" stroke-width="2" points="374.7105,-353.665 370.3469,-344.0105 367.7375,-354.279 374.7105,-353.665"/>
</g>
<!-- node_21 -->
<g id="node27" class="node">
<title>node_21</title>
<polygon fill="#ffb90f" stroke="#000000" points="414.0295,-718.2 284.4439,-700.2 414.0295,-682.2 543.6151,-700.2 414.0295,-718.2"/>
<text text-anchor="middle" x="414.0295" y="-696" font-family="Times,serif" font-size="14.00" fill="#000000">21 PrimitiveInt : 100</text>
</g>
<!-- node_21&#45;&gt;node_23 -->
<g id="edge28" class="edge">
<title>node_21-&gt;node_23</title>
<path fill="none" stroke="#00eeee" d="M420.3517,-682.656C424.8074,-670.2914 430.867,-653.4759 435.9808,-639.2852"/>
<polygon fill="#00eeee" stroke="#00eeee" points="439.4032,-640.1116 439.5008,-629.5172 432.8178,-637.7384 439.4032,-640.1116"/>
<text text-anchor="middle" x="447.2171" y="-651.6" font-family="Times,serif" font-size="14.00" fill="#000000">arg 0</text>
</g>
<!-- node_22&#45;&gt;node_25 -->
<g id="edge34" class="edge">
<title>node_22-&gt;node_25</title>
<path fill="none" stroke="#00eeee" d="M485.1123,-485.43C489.9665,-473.1142 496.5019,-456.5328 502.0291,-442.5095"/>
<polygon fill="#00eeee" stroke="#00eeee" points="505.4264,-443.4349 505.8371,-432.8481 498.914,-440.8681 505.4264,-443.4349"/>
<text text-anchor="middle" x="513.2171" y="-454.8" font-family="Times,serif" font-size="14.00" fill="#000000">arg 1</text>
</g>
<!-- node_26 -->
<g id="node31" class="node">
<title>node_26</title>
<polygon fill="#ff4500" stroke="#000000" points="265.0239,-255 109.0351,-255 109.0351,-219 265.0239,-219 265.0239,-255"/>
<text text-anchor="middle" x="187.0295" y="-232.8" font-family="Times,serif" font-size="14.00" fill="#000000">26 Region L2036127838</text>
</g>
<!-- node_24&#45;&gt;node_26 -->
<g id="edge31" class="edge">
<title>node_24-&gt;node_26</title>
<path fill="none" stroke="#ff0000" stroke-width="2" d="M341.7823,-312.5057C313.1394,-298.5305 267.5621,-276.2928 233.2734,-259.5629"/>
<polygon fill="#ff0000" stroke="#ff0000" stroke-width="2" points="234.4471,-256.2413 223.925,-255.0018 231.3775,-262.5324 234.4471,-256.2413"/>
<text text-anchor="middle" x="316.418" y="-277.2" font-family="Times,serif" font-size="14.00" fill="#000000">FALSE</text>
</g>
<!-- node_43 -->
<g id="node32" class="node">
<title>node_43</title>
<polygon fill="#ff4500" stroke="#000000" points="443.5239,-255 294.5351,-255 294.5351,-219 443.5239,-219 443.5239,-255"/>
<text text-anchor="middle" x="369.0295" y="-232.8" font-family="Times,serif" font-size="14.00" fill="#000000">43 Region L230643635</text>
</g>
<!-- node_24&#45;&gt;node_43 -->
<g id="edge32" class="edge">
<title>node_24-&gt;node_43</title>
<path fill="none" stroke="#ff0000" stroke-width="2" d="M369.0295,-307.4006C369.0295,-295.2949 369.0295,-279.2076 369.0295,-265.4674"/>
<polygon fill="#ff0000" stroke="#ff0000" stroke-width="2" points="372.5296,-265.072 369.0295,-255.072 365.5296,-265.0721 372.5296,-265.072"/>
<text text-anchor="middle" x="387.3037" y="-277.2" font-family="Times,serif" font-size="14.00" fill="#000000">TRUE</text>
</g>
<!-- node_25&#45;&gt;node_24 -->
<g id="edge30" class="edge">
<title>node_25-&gt;node_24</title>
<path fill="none" stroke="#00eeee" d="M483.5415,-396.4157C460.677,-382.3159 428.9012,-362.7209 404.6217,-347.7485"/>
<polygon fill="#00eeee" stroke="#00eeee" points="406.395,-344.7301 396.0461,-342.4603 402.7207,-350.6883 406.395,-344.7301"/>
<text text-anchor="middle" x="468.2171" y="-366" font-family="Times,serif" font-size="14.00" fill="#000000">arg 0</text>
</g>
<!-- node_27 -->
<g id="node33" class="node">
<title>node_27</title>
<polygon fill="#ff4500" stroke="#000000" points="222.0885,-182 -.0295,-182 -.0295,-146 222.0885,-146 222.0885,-182"/>
<text text-anchor="middle" x="111.0295" y="-159.8" font-family="Times,serif" font-size="14.00" fill="#000000">27 LineNumberDebugInfo : line #16</text>
</g>
<!-- node_26&#45;&gt;node_27 -->
<g id="edge35" class="edge">
<title>node_26-&gt;node_27</title>
<path fill="none" stroke="#ff0000" stroke-width="2" d="M168.243,-218.9551C158.9256,-210.0054 147.5168,-199.047 137.3452,-189.2769"/>
<polygon fill="#ff0000" stroke="#ff0000" stroke-width="2" points="139.4999,-186.4935 129.8633,-182.0904 134.6507,-191.5419 139.4999,-186.4935"/>
</g>
<!-- node_44 -->
<g id="node48" class="node">
<title>node_44</title>
<polygon fill="#ff4500" stroke="#000000" points="480.0885,-182 257.9705,-182 257.9705,-146 480.0885,-146 480.0885,-182"/>
<text text-anchor="middle" x="369.0295" y="-159.8" font-family="Times,serif" font-size="14.00" fill="#000000">44 LineNumberDebugInfo : line #18</text>
</g>
<!-- node_43&#45;&gt;node_44 -->
<g id="edge58" class="edge">
<title>node_43-&gt;node_44</title>
<path fill="none" stroke="#ff0000" stroke-width="2" d="M369.0295,-218.9551C369.0295,-210.8828 369.0295,-201.1764 369.0295,-192.1817"/>
<polygon fill="#ff0000" stroke="#ff0000" stroke-width="2" points="372.5296,-192.0903 369.0295,-182.0904 365.5296,-192.0904 372.5296,-192.0903"/>
</g>
<!-- node_27&#45;&gt;node_29 -->
<g id="edge36" class="edge">
<title>node_27-&gt;node_29</title>
<path fill="none" stroke="#ff0000" stroke-width="2" d="M87.9371,-182.1649C73.6547,-195.5797 58.0295,-215.2304 58.0295,-237 58.0295,-1737.6 58.0295,-1737.6 58.0295,-1737.6 58.0295,-1762.221 74.251,-1784.8879 90.0993,-1801.158"/>
<polygon fill="#ff0000" stroke="#ff0000" stroke-width="2" points="87.6896,-1803.6967 97.295,-1808.1673 92.574,-1798.6824 87.6896,-1803.6967"/>
</g>
<!-- node_28 -->
<g id="node35" class="node">
<title>node_28</title>
<ellipse fill="#00eeee" stroke="#000000" cx="191.0295" cy="-1737.6" rx="67.1535" ry="18"/>
<text text-anchor="middle" x="191.0295" y="-1733.4" font-family="Times,serif" font-size="14.00" fill="#000000">28 Variable : I</text>
</g>
<!-- node_29&#45;&gt;node_28 -->
<g id="edge37" class="edge">
<title>node_29-&gt;node_28</title>
<path fill="none" stroke="#00eeee" d="M134.7407,-1808.0006C145.0628,-1795.0908 159.0052,-1777.653 170.4312,-1763.3623"/>
<polygon fill="#00eeee" stroke="#00eeee" points="173.3104,-1765.366 176.8216,-1755.3699 167.8431,-1760.9946 173.3104,-1765.366"/>
<text text-anchor="middle" x="176.2171" y="-1777.8" font-family="Times,serif" font-size="14.00" fill="#000000">arg 0</text>
</g>
<!-- node_29&#45;&gt;node_31 -->
<g id="edge39" class="edge">
<title>node_29-&gt;node_31</title>
<path fill="none" stroke="#ff0000" stroke-width="2" d="M112.0378,-1808.0798C105.0562,-1790.391 96.0295,-1762.6726 96.0295,-1737.6 96.0295,-1737.6 96.0295,-1737.6 96.0295,-1023.8 96.0295,-991.2583 126.0035,-967.7319 153.1309,-953.1033"/>
<polygon fill="#ff0000" stroke="#ff0000" stroke-width="2" points="154.8613,-956.1497 162.1741,-948.4833 151.6765,-949.9161 154.8613,-956.1497"/>
</g>
<!-- node_32 -->
<g id="node39" class="node">
<title>node_32</title>
<polygon fill="#00eeee" stroke="#000000" points="239.8719,-1648.8 215.4507,-1666.8 166.6083,-1666.8 142.1871,-1648.8 166.6083,-1630.8 215.4507,-1630.8 239.8719,-1648.8"/>
<text text-anchor="middle" x="191.0295" y="-1644.6" font-family="Times,serif" font-size="14.00" fill="#000000">32 Add </text>
</g>
<!-- node_28&#45;&gt;node_32 -->
<g id="edge43" class="edge">
<title>node_28-&gt;node_32</title>
<path fill="none" stroke="#00eeee" d="M191.0295,-1719.2006C191.0295,-1707.0949 191.0295,-1691.0076 191.0295,-1677.2674"/>
<polygon fill="#00eeee" stroke="#00eeee" points="194.5296,-1676.872 191.0295,-1666.872 187.5296,-1676.8721 194.5296,-1676.872"/>
<text text-anchor="middle" x="205.2171" y="-1689" font-family="Times,serif" font-size="14.00" fill="#000000">arg 0</text>
</g>
<!-- node_30 -->
<g id="node37" class="node">
<title>node_30</title>
<ellipse fill="#00eeee" stroke="#000000" cx="168.0295" cy="-846.2" rx="67.1535" ry="18"/>
<text text-anchor="middle" x="168.0295" y="-842" font-family="Times,serif" font-size="14.00" fill="#000000">30 Variable : I</text>
</g>
<!-- node_31&#45;&gt;node_30 -->
<g id="edge40" class="edge">
<title>node_31-&gt;node_30</title>
<path fill="none" stroke="#00eeee" d="M190.2279,-916.6006C186.3352,-904.2552 181.1368,-887.7689 176.7492,-873.8539"/>
<polygon fill="#00eeee" stroke="#00eeee" points="180.0731,-872.7566 173.7279,-864.272 173.3972,-874.8617 180.0731,-872.7566"/>
<text text-anchor="middle" x="199.2171" y="-886.4" font-family="Times,serif" font-size="14.00" fill="#000000">arg 0</text>
</g>
<!-- node_34 -->
<g id="node38" class="node">
<title>node_34</title>
<polygon fill="#ff4500" stroke="#000000" points="269.8669,-1578 202.1921,-1578 202.1921,-1542 269.8669,-1542 269.8669,-1578"/>
<text text-anchor="middle" x="236.0295" y="-1555.8" font-family="Times,serif" font-size="14.00" fill="#000000">34 Copy </text>
</g>
<!-- node_31&#45;&gt;node_34 -->
<g id="edge42" class="edge">
<title>node_31-&gt;node_34</title>
<path fill="none" stroke="#ff0000" stroke-width="2" d="M194.3766,-953.2682C189.754,-1005.9926 177.0295,-1162.9888 177.0295,-1293.6 177.0295,-1471.2 177.0295,-1471.2 177.0295,-1471.2 177.0295,-1495.3778 192.3907,-1518.0018 207.4368,-1534.3628"/>
<polygon fill="#ff0000" stroke="#ff0000" stroke-width="2" points="205.2512,-1537.136 214.7291,-1541.8708 210.2725,-1532.2589 205.2512,-1537.136"/>
</g>
<!-- node_30&#45;&gt;node_32 -->
<g id="edge44" class="edge">
<title>node_30-&gt;node_32</title>
<path fill="none" stroke="#00eeee" d="M156.708,-864.141C146.8174,-881.5554 134.0295,-909.0823 134.0295,-935 134.0295,-1560 134.0295,-1560 134.0295,-1560 134.0295,-1583.9297 148.87,-1606.5589 163.4061,-1622.9844"/>
<polygon fill="#00eeee" stroke="#00eeee" points="161.0677,-1625.6084 170.4512,-1630.528 166.1836,-1620.8306 161.0677,-1625.6084"/>
<text text-anchor="middle" x="148.2171" y="-1235.4" font-family="Times,serif" font-size="14.00" fill="#000000">arg 1</text>
</g>
<!-- node_33 -->
<g id="node40" class="node">
<title>node_33</title>
<ellipse fill="#00eeee" stroke="#000000" cx="339.0295" cy="-1471.2" rx="67.1535" ry="18"/>
<text text-anchor="middle" x="339.0295" y="-1467" font-family="Times,serif" font-size="14.00" fill="#000000">33 Variable : I</text>
</g>
<!-- node_34&#45;&gt;node_33 -->
<g id="edge45" class="edge">
<title>node_34-&gt;node_33</title>
<path fill="none" stroke="#00eeee" d="M257.3712,-1541.6006C272.8665,-1528.2415 293.9858,-1510.0338 310.8645,-1495.4821"/>
<polygon fill="#00eeee" stroke="#00eeee" points="313.478,-1497.8501 318.7665,-1488.6695 308.9072,-1492.5484 313.478,-1497.8501"/>
<text text-anchor="middle" x="311.2171" y="-1511.4" font-family="Times,serif" font-size="14.00" fill="#000000">arg 0</text>
</g>
<!-- node_36 -->
<g id="node41" class="node">
<title>node_36</title>
<polygon fill="#ff4500" stroke="#000000" points="471.8669,-1400.4 404.1921,-1400.4 404.1921,-1364.4 471.8669,-1364.4 471.8669,-1400.4"/>
<text text-anchor="middle" x="438.0295" y="-1378.2" font-family="Times,serif" font-size="14.00" fill="#000000">36 Copy </text>
</g>
<!-- node_34&#45;&gt;node_36 -->
<g id="edge47" class="edge">
<title>node_34-&gt;node_36</title>
<path fill="none" stroke="#ff0000" stroke-width="2" d="M269.9621,-1556.2327C310.7388,-1549.8341 378.2497,-1532.9374 415.0295,-1489.2 433.4489,-1467.2962 438.1454,-1434.1098 438.8969,-1410.5506"/>
<polygon fill="#ff0000" stroke="#ff0000" stroke-width="2" points="442.3973,-1410.514 438.9996,-1400.4788 435.3977,-1410.4425 442.3973,-1410.514"/>
</g>
<!-- node_32&#45;&gt;node_34 -->
<g id="edge46" class="edge">
<title>node_32-&gt;node_34</title>
<path fill="none" stroke="#00eeee" d="M200.3535,-1630.4006C206.6704,-1617.9353 215.1266,-1601.2484 222.2207,-1587.2494"/>
<polygon fill="#00eeee" stroke="#00eeee" points="225.4731,-1588.5742 226.8714,-1578.072 219.229,-1585.4099 225.4731,-1588.5742"/>
<text text-anchor="middle" x="232.2171" y="-1600.2" font-family="Times,serif" font-size="14.00" fill="#000000">arg 0</text>
</g>
<!-- node_33&#45;&gt;node_36 -->
<g id="edge49" class="edge">
<title>node_33-&gt;node_36</title>
<path fill="none" stroke="#00eeee" d="M355.9675,-1453.5966C366.3022,-1443.0926 379.9318,-1429.6527 392.6543,-1418.4 396.8912,-1414.6525 401.4569,-1410.8139 406.0024,-1407.1049"/>
<polygon fill="#00eeee" stroke="#00eeee" points="408.4785,-1409.6055 414.0869,-1400.6168 404.0971,-1404.1462 408.4785,-1409.6055"/>
<text text-anchor="middle" x="407.2171" y="-1422.6" font-family="Times,serif" font-size="14.00" fill="#000000">arg 0</text>
</g>
<!-- node_35 -->
<g id="node42" class="node">
<title>node_35</title>
<ellipse fill="#00eeee" stroke="#000000" cx="663.0295" cy="-1239.6" rx="67.1535" ry="18"/>
<text text-anchor="middle" x="663.0295" y="-1235.4" font-family="Times,serif" font-size="14.00" fill="#000000">35 Variable : I</text>
</g>
<!-- node_36&#45;&gt;node_35 -->
<g id="edge48" class="edge">
<title>node_36-&gt;node_35</title>
<path fill="none" stroke="#00eeee" d="M466.5259,-1364.3143C507.6799,-1338.1952 583.6784,-1289.9615 628.1368,-1261.7452"/>
<polygon fill="#00eeee" stroke="#00eeee" points="630.2871,-1264.526 636.8547,-1256.2123 626.5361,-1258.6158 630.2871,-1264.526"/>
<text text-anchor="middle" x="532.2171" y="-1333.8" font-family="Times,serif" font-size="14.00" fill="#000000">arg 0</text>
</g>
<!-- node_37 -->
<g id="node43" class="node">
<title>node_37</title>
<polygon fill="#ff4500" stroke="#000000" points="519.5239,-1311.6 370.5351,-1311.6 370.5351,-1275.6 519.5239,-1275.6 519.5239,-1311.6"/>
<text text-anchor="middle" x="445.0295" y="-1289.4" font-family="Times,serif" font-size="14.00" fill="#000000">37 Region L306115458</text>
</g>
<!-- node_36&#45;&gt;node_37 -->
<g id="edge50" class="edge">
<title>node_36-&gt;node_37</title>
<path fill="none" stroke="#ff0000" stroke-width="2" d="M439.4799,-1364.0006C440.4436,-1351.775 441.7275,-1335.4887 442.8176,-1321.6599"/>
<polygon fill="#ff0000" stroke="#ff0000" stroke-width="2" points="446.3081,-1321.9162 443.6049,-1311.672 439.3298,-1321.366 446.3081,-1321.9162"/>
</g>
<!-- node_35&#45;&gt;node_49 -->
<g id="edge65" class="edge">
<title>node_35-&gt;node_49</title>
<path fill="none" stroke="#00eeee" d="M668.9367,-1221.496C680.0752,-1186.8859 704.4587,-1108.8098 720.0295,-1041.8 726.1556,-1015.4361 731.3915,-985.0134 734.806,-963.3982"/>
<polygon fill="#00eeee" stroke="#00eeee" points="738.3046,-963.6767 736.3762,-953.2588 731.387,-962.6054 738.3046,-963.6767"/>
<text text-anchor="middle" x="721.2171" y="-1108.4" font-family="Times,serif" font-size="14.00" fill="#000000">arg 0</text>
</g>
<!-- node_38 -->
<g id="node44" class="node">
<title>node_38</title>
<polygon fill="#ff4500" stroke="#000000" points="578.0885,-1203.6 355.9705,-1203.6 355.9705,-1167.6 578.0885,-1167.6 578.0885,-1203.6"/>
<text text-anchor="middle" x="467.0295" y="-1181.4" font-family="Times,serif" font-size="14.00" fill="#000000">38 LineNumberDebugInfo : line #15</text>
</g>
<!-- node_37&#45;&gt;node_38 -->
<g id="edge51" class="edge">
<title>node_37-&gt;node_38</title>
<path fill="none" stroke="#ff0000" stroke-width="2" d="M448.7615,-1275.2793C452.2115,-1258.3429 457.388,-1232.9311 461.3507,-1213.4777"/>
<polygon fill="#ff0000" stroke="#ff0000" stroke-width="2" points="464.7861,-1214.1476 463.3526,-1203.6502 457.9269,-1212.7503 464.7861,-1214.1476"/>
</g>
<!-- node_38&#45;&gt;node_41 -->
<g id="edge52" class="edge">
<title>node_38-&gt;node_41</title>
<path fill="none" stroke="#ff0000" stroke-width="2" d="M475.434,-1167.5551C479.3163,-1159.2196 484.0101,-1149.1416 488.3125,-1139.9042"/>
<polygon fill="#ff0000" stroke="#ff0000" stroke-width="2" points="491.5545,-1141.2331 492.6039,-1130.6904 485.209,-1138.2776 491.5545,-1141.2331"/>
</g>
<!-- node_39 -->
<g id="node45" class="node">
<title>node_39</title>
<polygon fill="#ffb90f" stroke="#000000" points="316.0295,-1041.8 199.758,-1023.8 316.0295,-1005.8 432.301,-1023.8 316.0295,-1041.8"/>
<text text-anchor="middle" x="316.0295" y="-1019.6" font-family="Times,serif" font-size="14.00" fill="#000000">39 PrimitiveInt : 1</text>
</g>
<!-- node_39&#45;&gt;node_40 -->
<g id="edge54" class="edge">
<title>node_39-&gt;node_40</title>
<path fill="none" stroke="#00eeee" d="M340.4509,-1009.5327C365.1371,-995.1108 403.57,-972.6579 431.8048,-956.1629"/>
<polygon fill="#00eeee" stroke="#00eeee" points="433.7143,-959.1009 440.5832,-951.0344 430.1832,-953.0567 433.7143,-959.1009"/>
<text text-anchor="middle" x="420.2171" y="-975.2" font-family="Times,serif" font-size="14.00" fill="#000000">arg 1</text>
</g>
<!-- node_40&#45;&gt;node_41 -->
<g id="edge55" class="edge">
<title>node_40-&gt;node_41</title>
<path fill="none" stroke="#00eeee" d="M468.1194,-953.3396C468.5435,-974.7743 470.2596,-1011.2098 476.6543,-1041.8 479.6768,-1056.2584 484.8181,-1071.8298 489.602,-1084.6779"/>
<polygon fill="#00eeee" stroke="#00eeee" points="486.4564,-1086.2491 493.3147,-1094.3247 492.9893,-1083.7348 486.4564,-1086.2491"/>
<text text-anchor="middle" x="491.2171" y="-1019.6" font-family="Times,serif" font-size="14.00" fill="#000000">arg 0</text>
</g>
<!-- node_42&#45;&gt;node_49 -->
<g id="edge57" class="edge">
<title>node_42-&gt;node_49</title>
<path fill="none" stroke="#ff0000" stroke-width="2" d="M691.4615,-1005.4006C700.046,-992.6956 711.5936,-975.6051 721.1614,-961.4448"/>
<polygon fill="#ff0000" stroke="#ff0000" stroke-width="2" points="724.1201,-963.3174 726.8187,-953.072 718.32,-959.3984 724.1201,-963.3174"/>
</g>
<!-- node_45 -->
<g id="node49" class="node">
<title>node_45</title>
<polygon fill="#ff4500" stroke="#000000" points="435.9355,-109 302.1235,-109 302.1235,-73 435.9355,-73 435.9355,-109"/>
<text text-anchor="middle" x="369.0295" y="-86.8" font-family="Times,serif" font-size="14.00" fill="#000000">45 FrameDebugInfo </text>
</g>
<!-- node_44&#45;&gt;node_45 -->
<g id="edge59" class="edge">
<title>node_44-&gt;node_45</title>
<path fill="none" stroke="#ff0000" stroke-width="2" d="M369.0295,-145.9551C369.0295,-137.8828 369.0295,-128.1764 369.0295,-119.1817"/>
<polygon fill="#ff0000" stroke="#ff0000" stroke-width="2" points="372.5296,-119.0903 369.0295,-109.0904 365.5296,-119.0904 372.5296,-119.0903"/>
</g>
<!-- node_46 -->
<g id="node50" class="node">
<title>node_46</title>
<polygon fill="#ff4500" stroke="#000000" points="406.632,-36 331.427,-36 331.427,0 406.632,0 406.632,-36"/>
<text text-anchor="middle" x="369.0295" y="-13.8" font-family="Times,serif" font-size="14.00" fill="#000000">46 Return </text>
</g>
<!-- node_45&#45;&gt;node_46 -->
<g id="edge60" class="edge">
<title>node_45-&gt;node_46</title>
<path fill="none" stroke="#ff0000" stroke-width="2" d="M369.0295,-72.9551C369.0295,-64.8828 369.0295,-55.1764 369.0295,-46.1817"/>
<polygon fill="#ff0000" stroke="#ff0000" stroke-width="2" points="372.5296,-46.0903 369.0295,-36.0904 365.5296,-46.0904 372.5296,-46.0903"/>
</g>
</g>
</svg>